M48
INCH
T01C0.0300
T02C0.0250
T03C0.0400
T04C0.1574
%
T01
X+006123Y-001563
X+006123Y-002563
X+006123Y-003563
X+006123Y-004563
X+006123Y-005563
X+006123Y-006563
X+006123Y-007563
X+006123Y-008563
X+006123Y-009563
X+006123Y-010563
X+006123Y-011563
X+006123Y-012563
X+006123Y-013563
X+006123Y-014563
X+006123Y-015563
X+006123Y-016563
X+006123Y-017563
X+006123Y-018563
X+006123Y-019563
X+006123Y-020563
X+012123Y-020563
X+012123Y-019563
X+012123Y-018563
X+012123Y-017563
X+012123Y-016563
X+012123Y-015563
X+012123Y-014563
X+012123Y-013563
X+012123Y-012563
X+012123Y-011563
X+012123Y-010563
X+012123Y-009563
X+012123Y-008563
X+012123Y-007563
X+012123Y-006563
X+012123Y-005563
X+012123Y-004563
X+012123Y-003563
X+012123Y-002563
X+012123Y-001563
X+002773Y-014063
X+004773Y-014063
X+002373Y-012663
X+003161Y-012663
X+004323Y-012663
X+005111Y-012663
X-001994Y-002644
X-001994Y-003644
X-001994Y-004644
X-001994Y-005644
X-001994Y-006644
X-001994Y-007644
X-001994Y-008644
X-001994Y-009644
X-001994Y-010644
X-001994Y-011644
X+001005Y-011644
X+001005Y-010644
X+001005Y-009644
X+001005Y-008644
X+001005Y-007644
X+001005Y-006644
X+001005Y-005644
X+001005Y-004644
X+001005Y-003644
X+001005Y-002644
X+004505Y-008694
X+004505Y-007694
X+004505Y-006694
X+004505Y-005694
X+004505Y-004694
X+004505Y-003694
X+004505Y-002694
X+004505Y-001694
X-007394Y-002694
X-003394Y-002694
X-007394Y-004644
X-003394Y-004644
X-007394Y-006644
X-003394Y-006644
X-007394Y-008644
X-003394Y-008644
X-007394Y-010644
X-003394Y-010644
X-011044Y-020844
X-010044Y-020844
X-009044Y-020844
X-008044Y-020844
X-007044Y-020844
X-006044Y-020844
X-005044Y-020844
X-004044Y-020844
X-003044Y-020844
X-003044Y-017844
X-004044Y-017844
X-005044Y-017844
X-006044Y-017844
X-007044Y-017844
X-008044Y-017844
X-009044Y-017844
X-010044Y-017844
X-011044Y-017844
X-006044Y-016844
X-006044Y-012844
X-003044Y-016844
X-003044Y-012844
X-004044Y-016844
X-004044Y-012844
X-005044Y-016844
X-005044Y-012844
X+002168Y-001619
X+002955Y-001619
X+017715Y-019264
X+017715Y-020064
X+017715Y-020864
X+000855Y-016334
X+004855Y-016334
X+016447Y-008174
X+016447Y-004174
X-011165Y-013717
X-010165Y-013717
X-012710Y+004432
X-011710Y+004432
X-010710Y+004432
X-009710Y+004432
X-008710Y+004432
X-007710Y+004432
X-006710Y+004432
X-005710Y+004432
X-004710Y+004432
X-004710Y+007432
X-005710Y+007432
X-006710Y+007432
X-007710Y+007432
X-008710Y+007432
X-009710Y+007432
X-010710Y+007432
X-011710Y+007432
X-012710Y+007432
X-008734Y+006450
X-008734Y+005440
X-005724Y+006450
X-004714Y+005430
X-000985Y+004402
X+000014Y+004402
X+001014Y+004402
X+002014Y+004402
X+003014Y+004402
X+004014Y+004402
X+005014Y+004402
X+006014Y+004402
X+007014Y+004402
X+007014Y+007402
X+006014Y+007402
X+005014Y+007402
X+004014Y+007402
X+003014Y+007402
X+002014Y+007402
X+001014Y+007402
X+000014Y+007402
X-000985Y+007402
X+002990Y+006420
X+002990Y+005410
X+006000Y+006420
X+007010Y+005400
X+010768Y+004402
X+011768Y+004402
X+012768Y+004402
X+013768Y+004402
X+014768Y+004402
X+015768Y+004402
X+016768Y+004402
X+017768Y+004402
X+018768Y+004402
X+018768Y+007402
X+017768Y+007402
X+016768Y+007402
X+015768Y+007402
X+014768Y+007402
X+013768Y+007402
X+012768Y+007402
X+011768Y+007402
X+010768Y+007402
X+014744Y+006420
X+014744Y+005410
X+017754Y+006420
X+018764Y+005400
T02
X+004505Y-009694
T03
X-009294Y-002644
X-010294Y-002644
X-011294Y-002644
X-012294Y-002644
X-009244Y-004594
X-010244Y-004594
X-011244Y-004594
X-012244Y-004594
X-009194Y-006644
X-010194Y-006644
X-011194Y-006644
X-012194Y-006644
X-009144Y-008644
X-010144Y-008644
X-011144Y-008644
X-012144Y-008644
X-009144Y-010644
X-010144Y-010644
X-011144Y-010644
X-012144Y-010644
X+018801Y-016956
X+018801Y-015956
X+018801Y-014956
X+016496Y-014971
X+016496Y-016940
X+013543Y-014971
X+013543Y-016940
X+017480Y-014971
X+017480Y-016940
X+013770Y-008607
X+013770Y-007607
X+013770Y-006607
X+013770Y-005607
X+013770Y-004607
X+013770Y-003607
X+013770Y-002607
X+013770Y-001607
X+016565Y-001639
X+015565Y-001639
X-005993Y-022033
X-004993Y-022033
X-003993Y-022033
X-002993Y-022033
X-011165Y-015847
X-010165Y-015847
X-012720Y+001912
X-011720Y+001912
X-010720Y+001912
X-009720Y+001912
X-008720Y+001912
X-007720Y+001912
X-006720Y+001912
X-005720Y+001912
X-004720Y+001912
X-012720Y+009942
X-011720Y+009942
X-010720Y+009942
X-009720Y+009942
X-008720Y+009942
X-007720Y+009942
X-006720Y+009942
X-005720Y+009942
X-004720Y+009942
X+004820Y-020570
X+004820Y-019570
X+004820Y-018570
X+004820Y-017570
X+013370Y-020560
X+013370Y-019560
X+013370Y-018560
X+013410Y-013610
X+013410Y-012610
X+013410Y-011610
X-000995Y+001882
X+000004Y+001882
X+001004Y+001882
X+002004Y+001882
X+003004Y+001882
X+004004Y+001882
X+005004Y+001882
X+006004Y+001882
X+007004Y+001882
X-000995Y+009912
X+000004Y+009912
X+001004Y+009912
X+002004Y+009912
X+003004Y+009912
X+004004Y+009912
X+005004Y+009912
X+006004Y+009912
X+007004Y+009912
X+010758Y+001882
X+011758Y+001882
X+012758Y+001882
X+013758Y+001882
X+014758Y+001882
X+015758Y+001882
X+016758Y+001882
X+017758Y+001882
X+018758Y+001882
X+010758Y+009912
X+011758Y+009912
X+012758Y+009912
X+013758Y+009912
X+014758Y+009912
X+015758Y+009912
X+016758Y+009912
X+017758Y+009912
X+018758Y+009912
T04
X+018169Y-000802
X+002680Y-019130
M30
