M48
INCH
T01C0.0300
T02C0.0400
T03C0.0600
T04C0.1574
T05C0.1181
%
T01
X-003188Y+009173
X-003188Y+008173
X-003188Y+007173
X-003188Y+006173
X-003188Y+005173
X-003188Y+004173
X-003188Y+003173
X-003188Y+002173
X-003188Y+001173
X-003188Y+000173
X-003188Y-000826
X-003188Y-001826
X-003188Y-002826
X-003188Y-003826
X-003188Y-004826
X-003188Y-005826
X-003188Y-006826
X-003188Y-007826
X-003188Y-008826
X-003188Y-009826
X+002811Y-009826
X+002811Y-008826
X+002811Y-007826
X+002811Y-006826
X+002811Y-005826
X+002811Y-004826
X+002811Y-003826
X+002811Y-002826
X+002811Y-001826
X+002811Y-000826
X+002811Y+000173
X+002811Y+001173
X+002811Y+002173
X+002811Y+003173
X+002811Y+004173
X+002811Y+005173
X+002811Y+006173
X+002811Y+007173
X+002811Y+008173
X+002811Y+009173
X-007947Y+010213
X-003947Y+010213
X-009251Y+009251
X-009251Y+010251
X-007171Y-003848
X-005171Y-003848
X-007784Y-002220
X-006784Y-002220
X-008188Y+000157
X-004188Y+000157
X-008188Y+001259
X-004188Y+001259
X-008228Y+002244
X-004228Y+002244
X+009190Y+001330
X+009190Y+000530
X+009190Y-000270
X+006570Y+000010
X+005570Y+000010
X+004150Y+003140
X+008150Y+003140
X+006940Y+011940
X+010940Y+011940
X-014010Y+010680
X-013010Y+010680
X-008110Y-005220
X-004110Y-005220
X-008100Y-006190
X-004100Y-006190
X-011170Y-008730
X-010370Y-008730
X-009570Y-008730
X-008080Y-007090
X-004080Y-007090
X+008644Y-014822
X+009644Y-014822
X+010644Y-014822
X+011644Y-014822
X+011644Y-011822
X+010644Y-011822
X+009644Y-011822
X+008644Y-011822
X+002894Y-014892
X+003894Y-014892
X+004894Y-014892
X+005894Y-014892
X+005894Y-011892
X+004894Y-011892
X+003894Y-011892
X+002894Y-011892
X-005470Y-002200
X-004470Y-002200
X-004100Y-014970
X-000100Y-014970
X+001450Y-014970
X+001450Y-010970
X+004840Y-010910
X-000880Y-010950
X-003170Y-014180
X+000830Y-014180
X+007820Y+001300
X+008850Y-001900
X+003690Y-006780
X+007690Y-006780
X+003780Y-003700
X+007780Y-003700
X+003780Y-002800
X+007780Y-002800
X+014100Y-009409
X+014100Y-011409
X+014100Y-010409
X+016187Y-009370
X+016187Y-011370
X+016187Y-010370
X+018234Y-010527
X+018234Y-011527
X+020206Y-010970
X+021206Y-010970
X+010010Y+003870
X+010010Y+007870
X+023440Y-009469
X+023440Y-011469
X+023440Y-010469
X+025527Y-009430
X+025527Y-011430
X+025527Y-010430
X+027574Y-010587
X+027574Y-011587
X+029546Y-011030
X+030546Y-011030
X+027757Y-000080
X+027757Y+001000
X+027757Y+002080
X+027757Y+003160
X+027757Y+004240
X+026757Y+000460
X+026757Y+001540
X+026757Y+002620
X+026757Y+003700
X+024007Y-001560
X+024007Y-000560
X+024007Y+000440
X+024007Y+001440
X+024007Y+002440
X+024007Y+003440
X+024007Y+004440
X+024007Y+005440
X+021007Y+005440
X+021007Y+004440
X+021007Y+003440
X+021007Y+002440
X+021007Y+001440
X+021007Y+000440
X+021007Y-000560
X+021007Y-001560
X+025127Y-001020
X+025127Y-000020
X+025107Y+001510
X+025107Y+002510
X+022967Y+006540
X+021967Y+006540
X+023047Y-003020
X+022047Y-003020
X+019847Y-001610
X+019847Y-000610
X+017377Y-000140
X+017377Y+000940
X+017377Y+002020
X+017377Y+003100
X+017377Y+004180
X+016377Y+000400
X+016377Y+001480
X+016377Y+002560
X+016377Y+003640
X+019467Y+009260
X+025047Y-003050
X+025037Y+005220
X+025077Y+009710
X+023867Y+009710
X+018867Y-001190
X+018927Y-003780
X+025057Y+006620
T02
X+005637Y-005866
X+005637Y-004866
X+002980Y+010680
X+003980Y+010680
X+004980Y+010680
X+005980Y+010680
X+006980Y+010680
X+007980Y+010680
X+008980Y+010680
X+009980Y+010680
X+010980Y+010680
X+011980Y+010680
X-010330Y+011600
X-009330Y+011600
X-005630Y+003190
X-005630Y+004190
X-009910Y+001230
X-010910Y+001230
X-009940Y-000970
X-010940Y-000970
X-009980Y-003050
X-010980Y-003050
X-009980Y-005080
X-010980Y-005080
X-009980Y-007080
X-010980Y-007080
X-007640Y-011030
X-006640Y-011030
X-012941Y-013572
X-014910Y-013572
X-012941Y-010620
X-014910Y-010620
X-012941Y-014557
X-014910Y-014557
X-009180Y-009840
X-009180Y-014840
X-010950Y-014830
X-010950Y-009830
X+006093Y+002103
X-004290Y-013310
X-005290Y-013310
X-004270Y-012310
X-005270Y-012310
X-004280Y-011040
X-005280Y-011040
X-004260Y-010040
X-005260Y-010040
X+010270Y-005280
X+011270Y-005280
X+010270Y-006370
X+011270Y-006370
X+010170Y-002990
X+011170Y-002990
X+010220Y-004030
X+011220Y-004030
X+010280Y-007480
X+011280Y-007480
X+010280Y-008530
X+011280Y-008530
X+004280Y-001790
X+004280Y-000790
X+014140Y-007889
X+015140Y-007889
X+016140Y-007889
X+017140Y-007889
X+007165Y-009566
X+008165Y-009566
X+004881Y-009724
X+004881Y-008724
X+001910Y+010680
X+004280Y-005860
X+004280Y-004860
X-014400Y-008010
X-013400Y-008010
X-014400Y-009340
X-013400Y-009340
X+023480Y-007949
X+024480Y-007949
X+025480Y-007949
X+026480Y-007949
X-007620Y-012320
X-006620Y-012320
X+019007Y+007080
X+019007Y+006080
X+019007Y+005080
X+019007Y+004080
X+019007Y+003080
X+024577Y+008600
X+023577Y+008600
X+022577Y+008600
X+021577Y+008600
X+020577Y+008600
T03
X-013900Y+004230
X-013900Y+002260
X-013900Y+008360
X-013900Y+006390
X-013910Y-004050
X-013910Y-006020
X-013890Y+000090
X-013890Y-001880
X+014730Y-013755
X+016700Y-013755
X+018922Y-013764
X+020892Y-013764
X+024070Y-013815
X+026040Y-013815
X+028262Y-013824
X+030232Y-013824
T04
X+020000Y-008255
X+000330Y+011340
X-006780Y+011350
X+029340Y-008315
X+029560Y+011840
X+014380Y-005820
X+029930Y-005680
X+014310Y+012060
T05
X+027257Y-002840
X+027257Y+007000
X+016877Y-002900
X+016877Y+006940
M30
