M48
INCH
T01C0.1574
T02C0.0600
T03C0.0300
T04C0.0250
T05C0.0380
T06C0.0400
T07C0.0450
T08C0.0500
%
T01
X-005492Y-018970
X-005492Y+025911
X-035807Y-011490
X-039330Y+026406
X+011969Y+012156
X-000730Y+011856
X-000630Y+025306
X-000907Y-023270
X+040942Y-007820
T02
X-022028Y-022907
X-020028Y-022907
X-018028Y-022907
X-016028Y-022907
X-036595Y-022907
X-034595Y-022907
X-032595Y-022907
X-030595Y-022907
X-005099Y-005978
X-005099Y-004008
X-005099Y+000320
X-005099Y+002290
X-031530Y+023506
X-031530Y+021536
X-007480Y-022943
X-005510Y-022943
X-031022Y-002931
X-029052Y-002931
X-039729Y-002880
X-037759Y-002880
X-038155Y+016309
X-036185Y+016309
X-030955Y+016309
X-028985Y+016309
T03
X-018091Y-019955
X-018091Y-015955
X-018091Y-014443
X-018091Y-010443
X-020059Y-019955
X-020059Y-015955
X-020059Y-014443
X-020059Y-010443
X-022028Y-019955
X-022028Y-015955
X-022028Y-014443
X-022028Y-010443
X-016910Y-015230
X-014410Y-015230
X-016910Y-012474
X-014410Y-012474
X-016910Y-017986
X-014410Y-017986
X-012185Y-017986
X-012185Y-016986
X-012185Y-015230
X-012185Y-014230
X-012185Y-012474
X-012185Y-011474
X-010020Y-011687
X-010020Y-012687
X-010020Y-013687
X-010020Y-014687
X-010020Y-015687
X-010020Y-016687
X-010020Y-017687
X-007020Y-017687
X-007020Y-016687
X-007020Y-015687
X-007020Y-014687
X-007020Y-013687
X-007020Y-012687
X-007020Y-011687
X-014941Y-009325
X-013941Y-009325
X-012941Y-009325
X-011941Y-009325
X-010941Y-009325
X-009941Y-009325
X-008941Y-009325
X-008941Y-006325
X-009941Y-006325
X-010941Y-006325
X-011941Y-006325
X-012941Y-006325
X-013941Y-006325
X-014941Y-006325
X-006083Y-012671
X-006083Y-008671
X-004902Y-012671
X-004902Y-008671
X-007855Y-005388
X-011855Y-005388
X-018878Y-008553
X-018878Y-006553
X-018878Y-007553
X-020059Y-005388
X-020059Y-009388
X-014780Y+003006
X-014780Y+004006
X-014780Y+005006
X-014780Y+006006
X-014780Y+007006
X-014780Y+008006
X-014780Y+009006
X-014780Y+010006
X-014780Y+011006
X-014780Y+012006
X-014780Y+013006
X-014780Y+014006
X-014780Y+015006
X-014780Y+016006
X-017780Y+016006
X-017780Y+015006
X-017780Y+014006
X-017780Y+013006
X-017780Y+012006
X-017780Y+011006
X-017780Y+010006
X-017780Y+009006
X-017780Y+008006
X-017780Y+007006
X-017780Y+006006
X-017780Y+005006
X-017780Y+003014
X-013730Y-001143
X-013730Y+002856
X-014980Y-001193
X-021339Y-005443
X-027030Y-018143
X-024530Y-018143
X-024480Y-020443
X-023480Y-020443
X-023330Y-015393
X-024130Y-015393
X-024930Y-015393
X-026130Y-016693
X-026130Y-015693
X-029130Y-015693
X-029130Y-016693
X-032630Y-019012
X-026630Y-019012
X-012388Y+012990
X-012388Y+010990
X-017240Y+020005
X-021240Y+020005
X-011988Y+020005
X-015988Y+020005
X-009380Y+009056
X-009380Y+008056
X-009380Y+007056
X-009380Y+006056
X-009380Y+005056
X-009380Y+004056
X-009380Y+003056
X-023430Y-012943
X-023430Y-008943
X-011130Y-004493
X-011595Y+001501
X-011630Y+008706
X-017830Y+025756
X-017830Y+026756
X-018880Y-004493
X-008380Y+013006
X-004380Y+013006
X-019030Y+002956
X-019030Y+003956
X-019030Y+004956
X-019030Y+005956
X-019030Y+006956
X-019030Y+007956
X-019030Y+008956
X-019030Y+009956
X-021980Y+011006
X-021980Y+012006
X-023480Y+007956
X-024680Y-009743
X-019180Y+022506
X-015180Y+022506
X-032658Y-016608
X-036988Y-016608
X-033408Y-006372
X-032408Y-006372
X-037036Y-006372
X-034536Y-006372
X-027480Y+012056
X-027480Y+011256
X-027480Y+010456
X-023930Y+014606
X-024730Y+014606
X-025530Y+014606
X-024680Y+007056
X-024680Y+013056
X-025780Y+005156
X-025780Y+011156
X-017830Y+000656
X-020680Y-002893
X-038366Y+018824
X-035866Y+018824
X-028780Y+018824
X-031280Y+018824
X-036988Y-007750
X-032461Y-007750
X-032461Y-009128
X-036988Y-009128
X-016580Y-007793
X-012880Y+009006
X-010807Y+002879
X-009626Y+023351
X-021831Y+016855
X-017831Y+016855
X-035130Y-003843
X-035130Y+000156
X-026180Y-004043
X-026180Y-000043
X-014780Y+000206
X-014780Y+001206
X-011630Y-001043
X-011630Y-000043
X-012780Y+001756
X-012830Y-000393
X+000919Y+023206
X+000919Y+022206
X+000919Y+021206
X+000919Y+020206
X+000919Y+019206
X+000919Y+018206
X+000919Y+017206
X+000919Y+016206
X+000919Y+015206
X+000919Y+014206
X+000919Y+013206
X+000919Y+012206
X+003919Y+012206
X+003919Y+013206
X+003919Y+014206
X+003919Y+015206
X+003919Y+016206
X+003919Y+017206
X+003919Y+018206
X+003919Y+019206
X+003919Y+020206
X+003919Y+021206
X+003919Y+022206
X+003919Y+023206
X+006019Y+021206
X+010019Y+021206
X+006019Y+020206
X+010019Y+020206
X+006019Y+019206
X+010019Y+019206
X+006019Y+018256
X+010019Y+018256
X+010569Y+025656
X+010569Y+026656
X+008819Y+026606
X+004819Y+026606
X+008769Y+025556
X+004769Y+025556
X-002080Y+023156
X-001080Y+023156
X-000180Y+015206
X-000180Y+019206
X+005319Y+014256
X+006319Y+014256
X+007469Y+017106
X+011469Y+017106
X-002030Y+013256
X-001230Y+013256
X-000430Y+013256
X-010580Y+013006
X-009792Y+013006
X-010580Y+011106
X-009792Y+011106
X+003517Y-012612
X+004517Y-012612
X+005517Y-012612
X+006517Y-012612
X+007517Y-012612
X+008517Y-012612
X+009517Y-012612
X+010517Y-012612
X+010517Y-009612
X+009517Y-009612
X+008517Y-009612
X+007517Y-009612
X+006517Y-009612
X+005517Y-009612
X+004517Y-009612
X+003517Y-009612
X+009619Y-013793
X+008619Y-013793
X+007619Y-013793
X+006619Y-013793
X+005619Y-013793
X+004619Y-013793
X+003619Y-013793
X+002619Y-013793
X+001619Y-013793
X+001619Y-016793
X+002619Y-016793
X+003619Y-016793
X+004619Y-016793
X+005619Y-016793
X+006619Y-016793
X+007619Y-016793
X+008619Y-016793
X+009619Y-016793
X+002533Y-008478
X+002533Y-012809
X+002615Y-021657
X+002615Y-017657
X+003665Y-021657
X+003665Y-017657
X+004615Y-021657
X+004615Y-017657
X+005615Y-021657
X+005615Y-017657
X+006615Y-021657
X+006615Y-017657
X+007615Y-021657
X+007615Y-017657
X+008665Y-021657
X+008665Y-017657
X+009665Y-021657
X+009665Y-017657
X+013917Y-012612
X+014917Y-012612
X+015917Y-012612
X+016917Y-012612
X+017917Y-012612
X+018917Y-012612
X+019917Y-012612
X+020917Y-012612
X+020917Y-009612
X+019917Y-009612
X+018917Y-009612
X+017917Y-009612
X+016917Y-009612
X+015917Y-009612
X+014917Y-009612
X+013917Y-009612
X+020019Y-013793
X+019019Y-013793
X+018019Y-013793
X+017019Y-013793
X+016019Y-013793
X+015019Y-013793
X+014019Y-013793
X+013019Y-013793
X+012019Y-013793
X+012019Y-016793
X+013019Y-016793
X+014019Y-016793
X+015019Y-016793
X+016019Y-016793
X+017019Y-016793
X+018019Y-016793
X+019019Y-016793
X+020019Y-016793
X+012933Y-008478
X+012933Y-012809
X+013015Y-021657
X+013015Y-017657
X+014065Y-021657
X+014065Y-017657
X+015015Y-021657
X+015015Y-017657
X+016015Y-021657
X+016015Y-017657
X+017015Y-021657
X+017015Y-017657
X+018015Y-021657
X+018015Y-017657
X+019065Y-021657
X+019065Y-017657
X+020065Y-021657
X+020065Y-017657
X+024167Y-012662
X+025167Y-012662
X+026167Y-012662
X+027167Y-012662
X+028167Y-012662
X+029167Y-012662
X+030167Y-012662
X+031167Y-012662
X+031167Y-009662
X+030167Y-009662
X+029167Y-009662
X+028167Y-009662
X+027167Y-009662
X+026167Y-009662
X+025167Y-009662
X+024167Y-009662
X+030269Y-013843
X+029269Y-013843
X+028269Y-013843
X+027269Y-013843
X+026269Y-013843
X+025269Y-013843
X+024269Y-013843
X+023269Y-013843
X+022269Y-013843
X+022269Y-016843
X+023269Y-016843
X+024269Y-016843
X+025269Y-016843
X+026269Y-016843
X+027269Y-016843
X+028269Y-016843
X+029269Y-016843
X+030269Y-016843
X+023183Y-008528
X+023183Y-012859
X+023265Y-021707
X+023265Y-017707
X+024315Y-021707
X+024315Y-017707
X+025265Y-021707
X+025265Y-017707
X+026265Y-021707
X+026265Y-017707
X+027265Y-021707
X+027265Y-017707
X+028265Y-021707
X+028265Y-017707
X+029315Y-021707
X+029315Y-017707
X+030315Y-021707
X+030315Y-017707
X+034617Y-012662
X+035617Y-012662
X+036617Y-012662
X+037617Y-012662
X+038617Y-012662
X+039617Y-012662
X+040617Y-012662
X+041617Y-012662
X+041617Y-009662
X+040617Y-009662
X+039617Y-009662
X+038617Y-009662
X+037617Y-009662
X+036617Y-009662
X+035617Y-009662
X+034617Y-009662
X+040719Y-013843
X+039719Y-013843
X+038719Y-013843
X+037719Y-013843
X+036719Y-013843
X+035719Y-013843
X+034719Y-013843
X+033719Y-013843
X+032719Y-013843
X+032719Y-016843
X+033719Y-016843
X+034719Y-016843
X+035719Y-016843
X+036719Y-016843
X+037719Y-016843
X+038719Y-016843
X+039719Y-016843
X+040719Y-016843
X+033633Y-008528
X+033633Y-012859
X+033715Y-021707
X+033715Y-017707
X+034765Y-021707
X+034765Y-017707
X+035715Y-021707
X+035715Y-017707
X+036715Y-021707
X+036715Y-017707
X+037715Y-021707
X+037715Y-017707
X+038715Y-021707
X+038715Y-017707
X+039765Y-021707
X+039765Y-017707
X+040765Y-021707
X+040765Y-017707
X-000784Y-011657
X-000784Y-010657
X+019019Y+017418
X+020019Y+017418
X+021019Y+017418
X+022019Y+017418
X+023019Y+017418
X+024019Y+017418
X+025019Y+017418
X+026019Y+017418
X+027019Y+017418
X+028019Y+017418
X+029019Y+017418
X+030019Y+017418
X+031019Y+017418
X+032019Y+017418
X+033019Y+017418
X+034019Y+017418
X+035019Y+017418
X+036019Y+017418
X+037019Y+017418
X+038019Y+017418
X+038019Y+023418
X+037019Y+023418
X+036019Y+023418
X+035019Y+023418
X+034019Y+023418
X+033019Y+023418
X+032019Y+023418
X+031019Y+023418
X+030019Y+023418
X+029019Y+023418
X+028019Y+023418
X+027019Y+023418
X+026019Y+023418
X+025019Y+023418
X+024019Y+023418
X+023019Y+023418
X+022019Y+023418
X+021019Y+023418
X+020019Y+023418
X+019019Y+023418
X+016319Y+015318
X+016319Y+019318
X+017669Y+015768
X+017669Y+016555
X+031519Y+014068
X+031519Y+016068
X+030119Y+013668
X+030119Y+014455
X+030119Y+015618
X+030119Y+016405
X+035119Y+007806
X+035119Y+006806
X+035119Y+005806
X+035119Y+004806
X+035119Y+003806
X+035119Y+002806
X+035119Y+001806
X+035119Y+000806
X+035119Y-000193
X+035119Y-001193
X+035119Y-002193
X+035119Y-003193
X+035119Y-004193
X+035119Y-005193
X+038119Y-005193
X+038119Y-004193
X+038119Y-003193
X+038119Y-002193
X+038119Y-001193
X+038119Y-000193
X+038119Y+000806
X+038119Y+001806
X+038119Y+002806
X+038119Y+003806
X+038119Y+004806
X+038119Y+005806
X+038119Y+007798
X+030269Y+008706
X+034269Y+008706
X+035169Y+008706
X+035957Y+008706
X+033669Y-000593
X+031669Y-000593
X+033182Y+000806
X+033969Y+000806
X+032019Y+000806
X+031232Y+000806
X+003819Y+007806
X+003819Y+006806
X+003819Y+005806
X+003819Y+004806
X+003819Y+003806
X+003819Y+002806
X+003819Y+001806
X+003819Y+000806
X+003819Y-000193
X+003819Y-001193
X+003819Y-002193
X+003819Y-003193
X+003819Y-004193
X+003819Y-005193
X+006819Y-005193
X+006819Y-004193
X+006819Y-003193
X+006819Y-002193
X+006819Y-001193
X+006819Y-000193
X+006819Y+000806
X+006819Y+001806
X+006819Y+002806
X+006819Y+003806
X+006819Y+004806
X+006819Y+005806
X+006819Y+007798
X-001030Y+008706
X+002969Y+008706
X+003869Y+008706
X+004657Y+008706
X+002369Y-000593
X+000369Y-000593
X+001882Y+000806
X+002669Y+000806
X+000719Y+000806
X-000067Y+000806
X+019319Y+007756
X+019319Y+006756
X+019319Y+005756
X+019319Y+004756
X+019319Y+003756
X+019319Y+002756
X+019319Y+001756
X+019319Y+000756
X+019319Y-000243
X+019319Y-001243
X+019319Y-002243
X+019319Y-003243
X+019319Y-004243
X+019319Y-005243
X+022319Y-005243
X+022319Y-004243
X+022319Y-003243
X+022319Y-002243
X+022319Y-001243
X+022319Y-000243
X+022319Y+000756
X+022319Y+001756
X+022319Y+002756
X+022319Y+003756
X+022319Y+004756
X+022319Y+005756
X+022319Y+007748
X+014469Y+008656
X+018469Y+008656
X+019369Y+008656
X+020157Y+008656
X+017869Y-000643
X+015869Y-000643
X+017382Y+000756
X+018169Y+000756
X+016219Y+000756
X+015432Y+000756
T04
X-017780Y+004006
X-009380Y+010056
X-019030Y+001956
X+038119Y+006806
X+006819Y+006806
X+022319Y+006756
T05
X-023122Y+018627
X-022122Y+018627
X-021122Y+018627
X-020122Y+018627
X-019122Y+018627
X-018122Y+018627
X-017122Y+018627
X-016122Y+018627
X-015122Y+018627
X-014122Y+018627
X-013122Y+018627
X-012122Y+018627
X-011122Y+018627
X-010122Y+018627
X-009122Y+018627
X-008122Y+018627
T06
X-005180Y+004006
X-005180Y+005006
X-005180Y+006006
X-005180Y+007006
X-005180Y+008006
X-005180Y+009006
X-005180Y+010006
X-038830Y+023656
X-033830Y+023656
X-038830Y+021506
X-033830Y+021506
X-029180Y+021606
X-024180Y+021606
X-029180Y+023556
X-024180Y+023556
X-021480Y+024706
X-021480Y+025706
X-021480Y+026706
X-014548Y+026756
X-014548Y+025756
X-014548Y+024756
X-024630Y-012093
X-024630Y-011093
X-017680Y+023856
X-016680Y+023856
X-008839Y+025517
X-008839Y+026517
X-007855Y+025517
X-007855Y+026517
X-011004Y+025517
X-011004Y+026517
X-010020Y+025517
X-010020Y+026517
X-021831Y+015477
X-021831Y+014477
X-018980Y+011956
X-018980Y+012956
X-018980Y+013956
X-018980Y+014956
X-026330Y+025606
X-026330Y+026606
X+012569Y+021156
X+012569Y+020156
X+012569Y+019156
X+012569Y+018156
X+012569Y+017156
X+012569Y+016156
X+012569Y+015156
X+012469Y+025656
X+012469Y+026656
X+012569Y+014056
X+012419Y+023006
X+012419Y+024006
X-010630Y+021156
X-010630Y+022156
X-009180Y+021106
X-009180Y+022106
X-007630Y+021106
X-007630Y+022106
X-034130Y+025506
X-034130Y+026506
X-032430Y+025456
X-032430Y+026456
X-030680Y+025456
X-030680Y+026456
X-035630Y+025456
X-035630Y+026456
X-020330Y+002956
X-020330Y+003956
X-020330Y+004956
X-020330Y+005956
X-020330Y+006956
X-020330Y+007956
X-020330Y+008956
X-020330Y+009956
X+001155Y-011628
X+001155Y-010628
X+008565Y-008007
X+007565Y-008007
X+005565Y-008007
X+009615Y-023257
X+008615Y-023257
X+007615Y-023257
X+006615Y-023257
X+005615Y-023257
X+004615Y-023257
X+003615Y-023257
X+002615Y-023257
X+020015Y-023257
X+019015Y-023257
X+018015Y-023257
X+017015Y-023257
X+016015Y-023257
X+015015Y-023257
X+014015Y-023257
X+013015Y-023257
X+030265Y-023307
X+029265Y-023307
X+028265Y-023307
X+027265Y-023307
X+026265Y-023307
X+025265Y-023307
X+024265Y-023307
X+023265Y-023307
X+040715Y-023307
X+039715Y-023307
X+038715Y-023307
X+037715Y-023307
X+036715Y-023307
X+035715Y-023307
X+034715Y-023307
X+033715Y-023307
X+000519Y-020143
X+000519Y-019143
X+010619Y-023243
X+021019Y-023243
X+031269Y-023293
X+041719Y-023293
X+028019Y+011818
X+027019Y+011818
X+026019Y+011818
X+025019Y+011818
X+024019Y+011818
X+023019Y+011818
X+022019Y+011818
X+021019Y+011818
X+020019Y+011818
X+019019Y+011818
X+038019Y+011818
X+037019Y+011818
X+036019Y+011818
X+035019Y+011818
X+034019Y+011818
X+033019Y+011818
X+032019Y+011818
X+031019Y+011818
X+030019Y+011818
X+029019Y+011818
X+028019Y+026818
X+027019Y+026818
X+026019Y+026818
X+025019Y+026818
X+024019Y+026818
X+023019Y+026818
X+022019Y+026818
X+021019Y+026818
X+020019Y+026818
X+019019Y+026818
X+038019Y+026818
X+037019Y+026818
X+036019Y+026818
X+035019Y+026818
X+034019Y+026818
X+033019Y+026818
X+032019Y+026818
X+031019Y+026818
X+030019Y+026818
X+029019Y+026818
X+029419Y+007806
X+029419Y+006806
X+029419Y+005806
X+029419Y+004806
X+029419Y+003806
X+029419Y+002806
X+029419Y+001806
X+041319Y+007856
X+041319Y+006856
X+041319Y+005856
X+041319Y+004856
X+041319Y+003856
X+041319Y+002856
X+041319Y+001856
X+041319Y+000856
X+041319Y-000143
X+041319Y-001143
X+041319Y-002143
X+041319Y-003143
X+041319Y-004143
X+041319Y-005143
X+029419Y+000806
X+029419Y-000193
X+029419Y-001193
X+029419Y-002193
X+029419Y-003193
X+029419Y-004193
X+029419Y-005193
X-001880Y+007806
X-001880Y+006806
X-001880Y+005806
X-001880Y+004806
X-001880Y+003806
X-001880Y+002806
X-001880Y+001806
X+010019Y+007856
X+010019Y+006856
X+010019Y+005856
X+010019Y+004856
X+010019Y+003856
X+010019Y+002856
X+010019Y+001856
X+010019Y+000856
X+010019Y-000143
X+010019Y-001143
X+010019Y-002143
X+010019Y-003143
X+010019Y-004143
X+010019Y-005143
X-001880Y+000806
X-001880Y-000193
X-001880Y-001193
X-001880Y-002193
X-001880Y-003193
X-001880Y-004193
X-001880Y-005193
X+013619Y+007756
X+013619Y+006756
X+013619Y+005756
X+013619Y+004756
X+013619Y+003756
X+013619Y+002756
X+013619Y+001756
X+025519Y+007806
X+025519Y+006806
X+025519Y+005806
X+025519Y+004806
X+025519Y+003806
X+025519Y+002806
X+025519Y+001806
X+025519Y+000806
X+025519Y-000193
X+025519Y-001193
X+025519Y-002193
X+025519Y-003193
X+025519Y-004193
X+025519Y-005193
X+013619Y+000756
X+013619Y-000243
X+013619Y-001243
X+013619Y-002243
X+013619Y-003243
X+013619Y-004243
X+013619Y-005243
T07
X-011430Y-022893
X-013630Y-022893
X-014154Y+022564
T08
X-008480Y+023356
X-010530Y+001806
M30
