  0
SECTION
  2
HEADER
  9
$ACADVER
  1
AC2.10
  0
ENDSEC
  0
SECTION
  2
TABLES
  0
TABLE
  2
LAYER
 70
     8
  0
LAYER
  2
0
 62
     7
 70
0
  6
CONTINUOUS
  0
LAYER
  2
1
 62
     1
 70
0
  6
CONTINUOUS
  0
LAYER
  2
2
 62
     2
 70
0
  6
CONTINUOUS
  0
LAYER
  2
3
 62
     3
 70
0
  6
CONTINUOUS
  0
LAYER
  2
4
 62
     4
 70
0
  6
CONTINUOUS
  0
LAYER
  2
5
 62
     5
 70
0
  6
CONTINUOUS
  0
LAYER
  2
6
 62
     6
 70
0
  6
CONTINUOUS
  0
LAYER
  2
7
 62
     7
 70
0
  6
CONTINUOUS
  0
ENDTAB
  0
TABLE
  2
STYLE
 70
     1
  0
STYLE
 70
     0
  2
STANDARD
  3
TXT
 40
0.00
 41
1.00
 42
1.00
 50
0.00
 71
     0
  0
ENDTAB
  0
ENDSEC
  0
SECTION
  2
BLOCKS
  0
BLOCK
  8
0
  2
EPAD
 70
0
 10
0.0
 20
0.0
  0
POLYLINE
  8
0
 66
1
 70
1
 40
0.5
 41
0.5
  0
VERTEX
  8
0
 10
-0.25
 20
0.0
 42
1.0
  0
VERTEX
  8
0
 10
0.25
 20
0.0
 42
1.0
  0
SEQEND
  8
0
  0
ENDBLK
  8
0
  0
BLOCK
  8
0
  2
RPAD
 70
0
 10
0.0
 20
0.0
  0
TRACE
  8
0
 10
-0.5
 20
-0.5
 11
-0.5
 21
0.5
 12
0.5
 22
-0.5
 13
0.5
 23
0.5
  0
ENDBLK
  8
0
  0
ENDSEC
0
SECTION
2
ENTITIES
0
POLYLINE
8
0
66
1
40
0.070000
41
0.070000
0
VERTEX
8
0
10
0.043000
20
-2.145000
0
VERTEX
8
0
10
0.043000
20
-2.440000
0
SEQEND
8
0
0
POLYLINE
8
0
66
1
40
0.070000
41
0.070000
0
VERTEX
8
0
10
0.243000
20
-2.440000
0
VERTEX
8
0
10
0.243000
20
-2.148000
0
VERTEX
8
0
10
0.240000
20
-2.145000
0
SEQEND
8
0
0
POLYLINE
8
0
66
1
40
0.070000
41
0.070000
0
VERTEX
8
0
10
0.443000
20
-2.440000
0
VERTEX
8
0
10
0.443000
20
-2.151000
0
VERTEX
8
0
10
0.437000
20
-2.145000
0
SEQEND
8
0
0
POLYLINE
8
0
66
1
40
0.070000
41
0.070000
0
VERTEX
8
0
10
0.043000
20
-1.745000
0
VERTEX
8
0
10
0.043000
20
-1.594000
0
SEQEND
8
0
0
POLYLINE
8
0
66
1
40
0.070000
41
0.070000
0
VERTEX
8
0
10
0.240000
20
-1.745000
0
VERTEX
8
0
10
0.240000
20
-1.594000
0
SEQEND
8
0
0
POLYLINE
8
0
66
1
40
0.070000
41
0.070000
0
VERTEX
8
0
10
0.043000
20
-1.194000
0
VERTEX
8
0
10
0.240000
20
-1.194000
0
SEQEND
8
0
0
POLYLINE
8
0
66
1
40
0.050000
41
0.050000
0
VERTEX
8
0
10
0.555000
20
-1.673000
0
VERTEX
8
0
10
0.437000
20
-1.673000
0
SEQEND
8
0
0
POLYLINE
8
0
66
1
40
0.070000
41
0.070000
0
VERTEX
8
0
10
0.437000
20
-1.745000
0
VERTEX
8
0
10
0.437000
20
-1.673000
0
VERTEX
8
0
10
0.437000
20
-1.594000
0
SEQEND
8
0
0
POLYLINE
8
0
66
1
40
0.050000
41
0.050000
0
VERTEX
8
0
10
0.555000
20
-1.948000
0
VERTEX
8
0
10
0.240000
20
-1.948000
0
VERTEX
8
0
10
0.240000
20
-1.745000
0
SEQEND
8
0
0
POLYLINE
8
0
66
1
40
0.050000
41
0.050000
0
VERTEX
8
0
10
0.555000
20
-1.397000
0
VERTEX
8
0
10
0.052000
20
-1.397000
0
VERTEX
8
0
10
0.042000
20
-1.407000
0
VERTEX
8
0
10
0.042000
20
-1.593000
0
VERTEX
8
0
10
0.043000
20
-1.594000
0
SEQEND
8
0
0
POLYLINE
8
0
66
1
40
0.050000
41
0.050000
0
VERTEX
8
0
10
0.805000
20
-1.397000
0
VERTEX
8
0
10
1.028000
20
-1.397000
0
SEQEND
8
0
0
POLYLINE
8
0
66
1
40
0.050000
41
0.050000
0
VERTEX
8
0
10
0.805000
20
-1.673000
0
VERTEX
8
0
10
1.028000
20
-1.673000
0
SEQEND
8
0
0
POLYLINE
8
0
66
1
40
0.050000
41
0.050000
0
VERTEX
8
0
10
0.805000
20
-1.948000
0
VERTEX
8
0
10
1.028000
20
-1.948000
0
SEQEND
8
0
0
POLYLINE
8
0
66
1
40
0.070000
41
0.070000
0
VERTEX
8
0
10
0.240000
20
-1.194000
0
VERTEX
8
0
10
0.319000
20
-1.194000
0
VERTEX
8
0
10
0.437000
20
-1.194000
0
SEQEND
8
0
0
POLYLINE
8
0
66
1
40
0.050000
41
0.050000
0
VERTEX
8
0
10
1.028000
20
-1.573000
0
VERTEX
8
0
10
0.678000
20
-1.573000
0
VERTEX
8
0
10
0.675000
20
-1.570000
0
SEQEND
8
0
0
POLYLINE
8
0
66
1
40
0.070000
41
0.070000
0
VERTEX
8
0
10
0.675000
20
-1.307000
0
VERTEX
8
0
10
0.675000
20
-1.570000
0
SEQEND
8
0
0
POLYLINE
8
0
66
1
40
0.050000
41
0.050000
0
VERTEX
8
0
10
1.028000
20
-1.848000
0
VERTEX
8
0
10
0.678000
20
-1.848000
0
VERTEX
8
0
10
0.675000
20
-1.852000
0
SEQEND
8
0
0
POLYLINE
8
0
66
1
40
0.070000
41
0.070000
0
VERTEX
8
0
10
0.675000
20
-1.570000
0
VERTEX
8
0
10
0.675000
20
-1.852000
0
VERTEX
8
0
10
0.675000
20
-2.066000
0
SEQEND
8
0
0
POLYLINE
8
0
66
1
40
0.030000
41
0.030000
0
VERTEX
8
0
10
1.244000
20
-1.618000
0
VERTEX
8
0
10
1.352000
20
-1.618000
0
VERTEX
8
0
10
1.357000
20
-1.614000
0
VERTEX
8
0
10
1.357000
20
-1.422000
0
VERTEX
8
0
10
1.362000
20
-1.417000
0
VERTEX
8
0
10
1.246000
20
-1.417000
0
VERTEX
8
0
10
1.244000
20
-1.418000
0
SEQEND
8
0
0
POLYLINE
8
0
66
1
40
0.030000
41
0.030000
0
VERTEX
8
0
10
1.244000
20
-1.818000
0
VERTEX
8
0
10
1.356000
20
-1.818000
0
VERTEX
8
0
10
1.357000
20
-1.817000
0
SEQEND
8
0
0
POLYLINE
8
0
66
1
40
0.030000
41
0.030000
0
VERTEX
8
0
10
0.675000
20
-2.066000
0
VERTEX
8
0
10
1.342000
20
-2.066000
0
VERTEX
8
0
10
1.357000
20
-2.052000
0
VERTEX
8
0
10
1.357000
20
-1.817000
0
VERTEX
8
0
10
1.357000
20
-1.614000
0
SEQEND
8
0
0
POLYLINE
8
0
66
1
40
0.030000
41
0.030000
0
VERTEX
8
0
10
1.544000
20
-1.518000
0
VERTEX
8
0
10
1.443000
20
-1.518000
0
VERTEX
8
0
10
1.441000
20
-1.521000
0
VERTEX
8
0
10
1.441000
20
-1.719000
0
VERTEX
8
0
10
1.439000
20
-1.721000
0
VERTEX
8
0
10
1.541000
20
-1.721000
0
VERTEX
8
0
10
1.544000
20
-1.718000
0
SEQEND
8
0
0
POLYLINE
8
0
66
1
40
0.030000
41
0.030000
0
VERTEX
8
0
10
1.441000
20
-1.377000
0
VERTEX
8
0
10
1.441000
20
-1.521000
0
SEQEND
8
0
0
POLYLINE
8
0
66
1
40
0.030000
41
0.030000
0
VERTEX
8
0
10
1.544000
20
-1.318000
0
VERTEX
8
0
10
1.441000
20
-1.318000
0
VERTEX
8
0
10
1.441000
20
-1.377000
0
SEQEND
8
0
0
POLYLINE
8
0
66
1
40
0.030000
41
0.030000
0
VERTEX
8
0
10
1.638000
20
-1.017000
0
VERTEX
8
0
10
1.756000
20
-1.017000
0
SEQEND
8
0
0
POLYLINE
8
0
66
1
40
0.030000
41
0.030000
0
VERTEX
8
0
10
1.544000
20
-1.618000
0
VERTEX
8
0
10
1.755000
20
-1.618000
0
VERTEX
8
0
10
1.755000
20
-1.418000
0
VERTEX
8
0
10
1.756000
20
-1.417000
0
SEQEND
8
0
0
POLYLINE
8
0
66
1
40
0.050000
41
0.050000
0
VERTEX
8
0
10
1.028000
20
-1.297000
0
VERTEX
8
0
10
0.684000
20
-1.297000
0
VERTEX
8
0
10
0.675000
20
-1.307000
0
SEQEND
8
0
0
POLYLINE
8
0
66
1
40
0.050000
41
0.050000
0
VERTEX
8
0
10
0.684000
20
-1.297000
0
VERTEX
8
0
10
0.581000
20
-1.194000
0
VERTEX
8
0
10
0.437000
20
-1.194000
0
SEQEND
8
0
0
POLYLINE
8
0
66
1
40
0.030000
41
0.030000
0
VERTEX
8
0
10
1.047000
20
-1.222000
0
VERTEX
8
0
10
1.067000
20
-1.222000
0
SEQEND
8
0
0
POLYLINE
8
0
66
1
40
0.030000
41
0.030000
0
VERTEX
8
0
10
0.240000
20
-1.088000
0
VERTEX
8
0
10
0.579000
20
-1.088000
0
VERTEX
8
0
10
0.716000
20
-1.226000
0
VERTEX
8
0
10
1.062000
20
-1.226000
0
VERTEX
8
0
10
1.067000
20
-1.222000
0
SEQEND
8
0
0
POLYLINE
8
0
66
1
40
0.030000
41
0.030000
0
VERTEX
8
0
10
0.240000
20
-0.688000
0
VERTEX
8
0
10
0.240000
20
-0.912000
0
VERTEX
8
0
10
0.234000
20
-0.918000
0
VERTEX
8
0
10
0.346000
20
-0.918000
0
VERTEX
8
0
10
0.358000
20
-0.905000
0
VERTEX
8
0
10
0.358000
20
-1.005000
0
SEQEND
8
0
0
POLYLINE
8
0
66
1
40
0.030000
41
0.030000
0
VERTEX
8
0
10
1.052000
20
-1.082000
0
VERTEX
8
0
10
1.052000
20
-1.217000
0
VERTEX
8
0
10
1.047000
20
-1.222000
0
SEQEND
8
0
0
POLYLINE
8
0
66
1
40
0.030000
41
0.030000
0
VERTEX
8
0
10
0.852000
20
-0.782000
0
VERTEX
8
0
10
0.852000
20
-1.082000
0
VERTEX
8
0
10
0.856000
20
-1.086000
0
SEQEND
8
0
0
POLYLINE
8
0
66
1
40
0.030000
41
0.030000
0
VERTEX
8
0
10
0.358000
20
-1.005000
0
VERTEX
8
0
10
0.576000
20
-1.005000
0
VERTEX
8
0
10
0.741000
20
-1.171000
0
VERTEX
8
0
10
0.853000
20
-1.171000
0
VERTEX
8
0
10
0.856000
20
-1.168000
0
VERTEX
8
0
10
0.856000
20
-1.086000
0
SEQEND
8
0
0
POLYLINE
8
0
66
1
40
0.030000
41
0.030000
0
VERTEX
8
0
10
1.638000
20
-1.417000
0
VERTEX
8
0
10
1.598000
20
-1.417000
0
VERTEX
8
0
10
1.546000
20
-1.417000
0
VERTEX
8
0
10
1.544000
20
-1.418000
0
SEQEND
8
0
0
POLYLINE
8
0
66
1
40
0.030000
41
0.030000
0
VERTEX
8
0
10
1.052000
20
-0.782000
0
VERTEX
8
0
10
1.052000
20
-0.701000
0
VERTEX
8
0
10
1.048000
20
-0.697000
0
VERTEX
8
0
10
1.056000
20
-0.688000
0
VERTEX
8
0
10
1.061000
20
-0.688000
0
SEQEND
8
0
0
POLYLINE
8
0
66
1
40
0.030000
41
0.030000
0
VERTEX
8
0
10
1.067000
20
-1.222000
0
VERTEX
8
0
10
1.446000
20
-1.222000
0
VERTEX
8
0
10
1.446000
20
-1.313000
0
VERTEX
8
0
10
1.441000
20
-1.318000
0
SEQEND
8
0
0
POLYLINE
8
0
66
1
40
0.030000
41
0.030000
0
VERTEX
8
0
10
1.465000
20
-1.181000
0
VERTEX
8
0
10
1.500000
20
-1.181000
0
VERTEX
8
0
10
1.500000
20
-1.259000
0
VERTEX
8
0
10
1.579000
20
-1.259000
0
VERTEX
8
0
10
1.638000
20
-1.318000
0
VERTEX
8
0
10
1.638000
20
-1.417000
0
SEQEND
8
0
0
POLYLINE
8
0
66
1
40
0.030000
41
0.030000
0
VERTEX
8
0
10
1.414000
20
-1.141000
0
VERTEX
8
0
10
1.449000
20
-1.177000
0
SEQEND
8
0
0
POLYLINE
8
0
66
1
40
0.010000
41
0.010000
0
VERTEX
8
0
10
1.449000
20
-1.177000
0
VERTEX
8
0
10
1.453000
20
-1.181000
0
VERTEX
8
0
10
1.465000
20
-1.181000
0
SEQEND
8
0
0
POLYLINE
8
0
66
1
40
0.030000
41
0.030000
0
VERTEX
8
0
10
0.952000
20
-1.082000
0
VERTEX
8
0
10
0.952000
20
-1.007000
0
VERTEX
8
0
10
0.949000
20
-1.003000
0
VERTEX
8
0
10
1.413000
20
-1.003000
0
VERTEX
8
0
10
1.414000
20
-1.005000
0
VERTEX
8
0
10
1.414000
20
-1.141000
0
SEQEND
8
0
0
POLYLINE
8
0
66
1
40
0.030000
41
0.030000
0
VERTEX
8
0
10
0.952000
20
-0.782000
0
VERTEX
8
0
10
0.952000
20
-0.958000
0
SEQEND
8
0
0
POLYLINE
8
0
66
1
40
0.030000
41
0.030000
0
VERTEX
8
0
10
1.461000
20
-0.964000
0
VERTEX
8
0
10
1.461000
20
-1.122000
0
VERTEX
8
0
10
1.475000
20
-1.136000
0
SEQEND
8
0
0
POLYLINE
8
0
66
1
40
0.010000
41
0.010000
0
VERTEX
8
0
10
1.475000
20
-1.136000
0
VERTEX
8
0
10
1.480000
20
-1.141000
0
SEQEND
8
0
0
POLYLINE
8
0
66
1
40
0.010000
41
0.010000
0
VERTEX
8
0
10
1.559000
20
-1.214000
0
VERTEX
8
0
10
1.559000
20
-1.220000
0
SEQEND
8
0
0
POLYLINE
8
0
66
1
40
0.010000
41
0.010000
0
VERTEX
8
0
10
1.559000
20
-1.214000
0
VERTEX
8
0
10
1.565000
20
-1.220000
0
SEQEND
8
0
0
POLYLINE
8
0
66
1
40
0.010000
41
0.010000
0
VERTEX
8
0
10
1.559000
20
-1.220000
0
VERTEX
8
0
10
1.565000
20
-1.220000
0
SEQEND
8
0
0
POLYLINE
8
0
66
1
40
0.030000
41
0.030000
0
VERTEX
8
0
10
1.559000
20
-1.214000
0
VERTEX
8
0
10
1.587000
20
-1.214000
0
VERTEX
8
0
10
1.588000
20
-1.215000
0
SEQEND
8
0
0
POLYLINE
8
0
66
1
40
0.010000
41
0.010000
0
VERTEX
8
0
10
1.588000
20
-1.215000
0
VERTEX
8
0
10
1.593000
20
-1.220000
0
SEQEND
8
0
0
POLYLINE
8
0
66
1
40
0.010000
41
0.010000
0
VERTEX
8
0
10
1.565000
20
-1.220000
0
VERTEX
8
0
10
1.593000
20
-1.220000
0
SEQEND
8
0
0
POLYLINE
8
0
66
1
40
0.030000
41
0.030000
0
VERTEX
8
0
10
0.952000
20
-0.958000
0
VERTEX
8
0
10
1.455000
20
-0.958000
0
VERTEX
8
0
10
1.461000
20
-0.964000
0
SEQEND
8
0
0
POLYLINE
8
0
66
1
40
0.030000
41
0.030000
0
VERTEX
8
0
10
1.475000
20
-1.136000
0
VERTEX
8
0
10
1.550000
20
-1.136000
0
VERTEX
8
0
10
1.551000
20
-1.137000
0
VERTEX
8
0
10
1.559000
20
-1.144000
0
VERTEX
8
0
10
1.559000
20
-1.214000
0
SEQEND
8
0
0
POLYLINE
8
0
66
1
40
0.030000
41
0.030000
0
VERTEX
8
0
10
1.587000
20
-1.214000
0
VERTEX
8
0
10
1.667000
20
-1.214000
0
VERTEX
8
0
10
1.673000
20
-1.209000
0
VERTEX
8
0
10
1.756000
20
-1.292000
0
VERTEX
8
0
10
1.756000
20
-1.417000
0
SEQEND
8
0
0
POLYLINE
8
0
66
1
40
0.030000
41
0.030000
0
VERTEX
8
0
10
1.052000
20
-0.782000
0
VERTEX
8
0
10
1.052000
20
-0.900000
0
VERTEX
8
0
10
1.047000
20
-0.905000
0
VERTEX
8
0
10
1.520000
20
-0.905000
0
VERTEX
8
0
10
1.520000
20
-1.023000
0
VERTEX
8
0
10
1.632000
20
-1.023000
0
VERTEX
8
0
10
1.638000
20
-1.017000
0
SEQEND
8
0
0
POLYLINE
8
0
66
1
40
0.030000
41
0.030000
0
VERTEX
8
0
10
1.152000
20
-0.782000
0
VERTEX
8
0
10
1.152000
20
-0.847000
0
VERTEX
8
0
10
1.156000
20
-0.851000
0
VERTEX
8
0
10
1.455000
20
-0.851000
0
SEQEND
8
0
0
POLYLINE
8
0
66
1
40
0.030000
41
0.030000
0
VERTEX
8
0
10
0.852000
20
-0.782000
0
VERTEX
8
0
10
0.852000
20
-0.552000
0
VERTEX
8
0
10
0.850000
20
-0.551000
0
VERTEX
8
0
10
0.850000
20
-0.531000
0
VERTEX
8
0
10
1.258000
20
-0.531000
0
VERTEX
8
0
10
1.259000
20
-0.531000
0
VERTEX
8
0
10
1.259000
20
-0.776000
0
VERTEX
8
0
10
1.252000
20
-0.782000
0
SEQEND
8
0
0
POLYLINE
8
0
66
1
40
0.030000
41
0.030000
0
VERTEX
8
0
10
0.768000
20
0.150000
0
VERTEX
8
0
10
0.858000
20
0.150000
0
VERTEX
8
0
10
0.873000
20
0.135000
0
SEQEND
8
0
0
POLYLINE
8
0
66
1
40
0.030000
41
0.030000
0
VERTEX
8
0
10
0.468000
20
1.050000
0
VERTEX
8
0
10
0.676000
20
1.050000
0
VERTEX
8
0
10
0.677000
20
1.051000
0
VERTEX
8
0
10
0.677000
20
0.856000
0
VERTEX
8
0
10
0.683000
20
0.850000
0
SEQEND
8
0
0
POLYLINE
8
0
66
1
40
0.030000
41
0.030000
0
VERTEX
8
0
10
0.768000
20
0.850000
0
VERTEX
8
0
10
0.683000
20
0.850000
0
SEQEND
8
0
0
POLYLINE
8
0
66
1
40
0.030000
41
0.030000
0
VERTEX
8
0
10
-0.086000
20
-1.689000
0
VERTEX
8
0
10
-0.086000
20
-2.179000
0
VERTEX
8
0
10
-0.101000
20
-2.194000
0
SEQEND
8
0
0
POLYLINE
8
0
66
1
40
0.030000
41
0.030000
0
VERTEX
8
0
10
-0.206000
20
-1.964000
0
VERTEX
8
0
10
-0.206000
20
-2.194000
0
VERTEX
8
0
10
-0.201000
20
-2.194000
0
SEQEND
8
0
0
POLYLINE
8
0
66
1
40
0.030000
41
0.030000
0
VERTEX
8
0
10
-0.101000
20
-2.194000
0
VERTEX
8
0
10
-0.101000
20
-2.306000
0
VERTEX
8
0
10
-0.247000
20
-2.451000
0
VERTEX
8
0
10
-0.801000
20
-2.451000
0
VERTEX
8
0
10
-0.812000
20
-2.440000
0
SEQEND
8
0
0
POLYLINE
8
0
66
1
40
0.030000
41
0.030000
0
VERTEX
8
0
10
-0.206000
20
-1.964000
0
VERTEX
8
0
10
-0.158000
20
-1.964000
0
VERTEX
8
0
10
-0.154000
20
-1.968000
0
VERTEX
8
0
10
-0.154000
20
-1.842000
0
SEQEND
8
0
0
POLYLINE
8
0
66
1
40
0.030000
41
0.030000
0
VERTEX
8
0
10
0.522000
20
1.850000
0
VERTEX
8
0
10
0.647000
20
1.850000
0
VERTEX
8
0
10
0.649000
20
1.850000
0
VERTEX
8
0
10
0.666000
20
1.832000
0
SEQEND
8
0
0
POLYLINE
8
0
66
1
40
0.030000
41
0.030000
0
VERTEX
8
0
10
0.134000
20
1.712000
0
VERTEX
8
0
10
0.260000
20
1.838000
0
VERTEX
8
0
10
0.260000
20
1.850000
0
VERTEX
8
0
10
0.522000
20
1.850000
0
SEQEND
8
0
0
POLYLINE
8
0
66
1
40
0.030000
41
0.030000
0
VERTEX
8
0
10
0.768000
20
1.150000
0
VERTEX
8
0
10
0.543000
20
1.150000
0
VERTEX
8
0
10
0.543000
20
1.149000
0
VERTEX
8
0
10
0.543000
20
1.632000
0
VERTEX
8
0
10
0.541000
20
1.633000
0
VERTEX
8
0
10
0.935000
20
1.633000
0
VERTEX
8
0
10
0.935000
20
1.711000
0
VERTEX
8
0
10
0.934000
20
1.712000
0
SEQEND
8
0
0
POLYLINE
8
0
66
1
40
0.030000
41
0.030000
0
VERTEX
8
0
10
0.768000
20
1.250000
0
VERTEX
8
0
10
0.603000
20
1.250000
0
VERTEX
8
0
10
0.602000
20
1.250000
0
VERTEX
8
0
10
0.602000
20
1.566000
0
VERTEX
8
0
10
1.030000
20
1.566000
0
VERTEX
8
0
10
1.031000
20
1.565000
0
VERTEX
8
0
10
1.031000
20
1.709000
0
VERTEX
8
0
10
1.034000
20
1.712000
0
SEQEND
8
0
0
POLYLINE
8
0
66
1
40
0.030000
41
0.030000
0
VERTEX
8
0
10
0.768000
20
1.350000
0
VERTEX
8
0
10
0.669000
20
1.350000
0
VERTEX
8
0
10
0.665000
20
1.345000
0
VERTEX
8
0
10
0.665000
20
1.512000
0
VERTEX
8
0
10
0.666000
20
1.513000
0
VERTEX
8
0
10
1.136000
20
1.513000
0
VERTEX
8
0
10
1.136000
20
1.710000
0
VERTEX
8
0
10
1.134000
20
1.712000
0
SEQEND
8
0
0
POLYLINE
8
0
66
1
40
0.030000
41
0.030000
0
VERTEX
8
0
10
0.768000
20
1.450000
0
VERTEX
8
0
10
1.232000
20
1.450000
0
VERTEX
8
0
10
1.233000
20
1.449000
0
VERTEX
8
0
10
1.233000
20
1.711000
0
VERTEX
8
0
10
1.234000
20
1.712000
0
SEQEND
8
0
0
POLYLINE
8
0
66
1
40
0.070000
41
0.070000
0
VERTEX
8
0
10
-1.016000
20
-2.051000
0
VERTEX
8
0
10
-1.012000
20
-2.054000
0
SEQEND
8
0
0
POLYLINE
8
0
66
1
40
0.030000
41
0.030000
0
VERTEX
8
0
10
0.768000
20
0.250000
0
VERTEX
8
0
10
1.303000
20
0.250000
0
VERTEX
8
0
10
1.308000
20
0.255000
0
SEQEND
8
0
0
POLYLINE
8
0
66
1
40
0.030000
41
0.030000
0
VERTEX
8
0
10
0.768000
20
0.450000
0
VERTEX
8
0
10
1.303000
20
0.450000
0
VERTEX
8
0
10
1.308000
20
0.455000
0
SEQEND
8
0
0
POLYLINE
8
0
66
1
40
0.030000
41
0.030000
0
VERTEX
8
0
10
0.768000
20
0.550000
0
VERTEX
8
0
10
1.303000
20
0.550000
0
VERTEX
8
0
10
1.308000
20
0.555000
0
SEQEND
8
0
0
POLYLINE
8
0
66
1
40
0.030000
41
0.030000
0
VERTEX
8
0
10
0.240000
20
-1.088000
0
VERTEX
8
0
10
0.172000
20
-1.088000
0
VERTEX
8
0
10
0.170000
20
-1.087000
0
SEQEND
8
0
0
POLYLINE
8
0
66
1
40
0.030000
41
0.030000
0
VERTEX
8
0
10
0.873000
20
-0.264000
0
VERTEX
8
0
10
0.753000
20
-0.264000
0
VERTEX
8
0
10
0.748000
20
-0.269000
0
SEQEND
8
0
0
POLYLINE
8
0
66
1
40
0.030000
41
0.030000
0
VERTEX
8
0
10
1.061000
20
-0.688000
0
VERTEX
8
0
10
1.061000
20
-0.672000
0
VERTEX
8
0
10
1.133000
20
-0.599000
0
SEQEND
8
0
0
POLYLINE
8
0
66
1
40
0.030000
41
0.030000
0
VERTEX
8
0
10
1.308000
20
0.855000
0
VERTEX
8
0
10
1.308000
20
0.845000
0
VERTEX
8
0
10
1.313000
20
0.850000
0
VERTEX
8
0
10
1.728000
20
0.850000
0
SEQEND
8
0
0
POLYLINE
8
0
66
1
40
0.030000
41
0.030000
0
VERTEX
8
0
10
1.544000
20
-1.818000
0
VERTEX
8
0
10
1.835000
20
-1.818000
0
VERTEX
8
0
10
1.835000
20
-0.951000
0
VERTEX
8
0
10
1.833000
20
-0.949000
0
VERTEX
8
0
10
1.583000
20
-0.949000
0
VERTEX
8
0
10
1.583000
20
-0.889000
0
VERTEX
8
0
10
1.549000
20
-0.855000
0
VERTEX
8
0
10
1.470000
20
-0.855000
0
VERTEX
8
0
10
1.461000
20
-0.846000
0
SEQEND
8
0
0
POLYLINE
8
0
66
1
40
0.030000
41
0.030000
0
VERTEX
8
0
10
1.461000
20
-0.688000
0
VERTEX
8
0
10
1.461000
20
-0.846000
0
VERTEX
8
0
10
1.455000
20
-0.851000
0
SEQEND
8
0
0
POLYLINE
8
0
66
1
40
0.030000
41
0.030000
0
VERTEX
8
0
10
1.736000
20
-0.748000
0
VERTEX
8
0
10
1.636000
20
-0.647000
0
VERTEX
8
0
10
1.636000
20
-0.395000
0
VERTEX
8
0
10
1.632000
20
-0.392000
0
VERTEX
8
0
10
1.481000
20
-0.392000
0
VERTEX
8
0
10
1.478000
20
-0.389000
0
VERTEX
8
0
10
1.478000
20
0.085000
0
VERTEX
8
0
10
1.308000
20
0.255000
0
SEQEND
8
0
0
POLYLINE
8
0
66
1
40
0.030000
41
0.030000
0
VERTEX
8
0
10
1.736000
20
-0.551000
0
VERTEX
8
0
10
1.736000
20
-0.316000
0
VERTEX
8
0
10
1.738000
20
-0.314000
0
VERTEX
8
0
10
1.538000
20
-0.314000
0
VERTEX
8
0
10
1.533000
20
-0.319000
0
VERTEX
8
0
10
1.533000
20
0.120000
0
VERTEX
8
0
10
1.362000
20
0.291000
0
SEQEND
8
0
0
POLYLINE
8
0
66
1
40
0.010000
41
0.010000
0
VERTEX
8
0
10
1.362000
20
0.291000
0
VERTEX
8
0
10
1.344000
20
0.309000
0
SEQEND
8
0
0
POLYLINE
8
0
66
1
40
0.030000
41
0.030000
0
VERTEX
8
0
10
1.344000
20
0.309000
0
VERTEX
8
0
10
1.303000
20
0.350000
0
SEQEND
8
0
0
POLYLINE
8
0
66
1
40
0.030000
41
0.030000
0
VERTEX
8
0
10
0.768000
20
0.350000
0
VERTEX
8
0
10
1.303000
20
0.350000
0
VERTEX
8
0
10
1.308000
20
0.355000
0
SEQEND
8
0
0
POLYLINE
8
0
66
1
40
0.030000
41
0.030000
0
VERTEX
8
0
10
1.583000
20
0.175000
0
VERTEX
8
0
10
1.583000
20
0.187000
0
SEQEND
8
0
0
POLYLINE
8
0
66
1
40
0.030000
41
0.030000
0
VERTEX
8
0
10
1.736000
20
-0.118000
0
VERTEX
8
0
10
1.590000
20
-0.118000
0
VERTEX
8
0
10
1.583000
20
-0.124000
0
VERTEX
8
0
10
1.583000
20
0.175000
0
SEQEND
8
0
0
POLYLINE
8
0
66
1
40
0.030000
41
0.030000
0
VERTEX
8
0
10
1.308000
20
0.455000
0
VERTEX
8
0
10
1.578000
20
0.455000
0
VERTEX
8
0
10
1.583000
20
0.450000
0
SEQEND
8
0
0
POLYLINE
8
0
66
1
40
0.030000
41
0.030000
0
VERTEX
8
0
10
1.583000
20
0.187000
0
VERTEX
8
0
10
1.583000
20
0.450000
0
SEQEND
8
0
0
POLYLINE
8
0
66
1
40
0.030000
41
0.030000
0
VERTEX
8
0
10
1.736000
20
0.078000
0
VERTEX
8
0
10
1.859000
20
0.078000
0
VERTEX
8
0
10
1.865000
20
0.072000
0
VERTEX
8
0
10
1.865000
20
0.650000
0
VERTEX
8
0
10
1.868000
20
0.652000
0
VERTEX
8
0
10
1.730000
20
0.652000
0
VERTEX
8
0
10
1.728000
20
0.650000
0
SEQEND
8
0
0
POLYLINE
8
0
66
1
40
0.030000
41
0.030000
0
VERTEX
8
0
10
1.083000
20
0.720000
0
VERTEX
8
0
10
1.083000
20
0.850000
0
VERTEX
8
0
10
1.088000
20
0.855000
0
VERTEX
8
0
10
0.773000
20
0.855000
0
VERTEX
8
0
10
0.768000
20
0.850000
0
SEQEND
8
0
0
POLYLINE
8
0
66
1
40
0.030000
41
0.030000
0
VERTEX
8
0
10
1.728000
20
0.250000
0
VERTEX
8
0
10
1.638000
20
0.160000
0
VERTEX
8
0
10
1.638000
20
-0.014000
0
VERTEX
8
0
10
1.858000
20
-0.014000
0
VERTEX
8
0
10
1.863000
20
-0.009000
0
VERTEX
8
0
10
1.863000
20
-0.884000
0
VERTEX
8
0
10
1.860000
20
-0.887000
0
VERTEX
8
0
10
1.646000
20
-0.887000
0
VERTEX
8
0
10
1.553000
20
-0.794000
0
VERTEX
8
0
10
1.553000
20
-0.794000
0
VERTEX
8
0
10
1.553000
20
-0.616000
0
VERTEX
8
0
10
1.551000
20
-0.614000
0
VERTEX
8
0
10
1.428000
20
-0.614000
0
VERTEX
8
0
10
1.425000
20
-0.610000
0
VERTEX
8
0
10
1.425000
20
-0.362000
0
VERTEX
8
0
10
1.421000
20
-0.359000
0
VERTEX
8
0
10
1.195000
20
-0.359000
0
SEQEND
8
0
0
POLYLINE
8
0
66
1
40
0.070000
41
0.070000
0
VERTEX
8
0
10
-0.906000
20
2.200000
0
VERTEX
8
0
10
-0.676000
20
2.200000
0
VERTEX
8
0
10
-0.671000
20
2.205000
0
SEQEND
8
0
0
POLYLINE
8
0
66
1
40
0.070000
41
0.070000
0
VERTEX
8
0
10
-0.171000
20
2.205000
0
VERTEX
8
0
10
-0.171000
20
2.010000
0
SEQEND
8
0
0
POLYLINE
8
0
66
1
40
0.070000
41
0.070000
0
VERTEX
8
0
10
-0.671000
20
2.010000
0
VERTEX
8
0
10
-0.899000
20
2.010000
0
VERTEX
8
0
10
-0.906000
20
2.003000
0
SEQEND
8
0
0
POLYLINE
8
0
66
1
40
0.070000
41
0.070000
0
VERTEX
8
0
10
-0.906000
20
2.200000
0
VERTEX
8
0
10
-1.121000
20
2.200000
0
VERTEX
8
0
10
-1.136000
20
2.215000
0
SEQEND
8
0
0
POLYLINE
8
0
66
1
40
0.070000
41
0.070000
0
VERTEX
8
0
10
-1.136000
20
2.000000
0
VERTEX
8
0
10
-0.909000
20
2.000000
0
VERTEX
8
0
10
-0.906000
20
2.003000
0
SEQEND
8
0
0
POLYLINE
8
0
66
1
40
0.070000
41
0.070000
0
VERTEX
8
0
10
-1.636000
20
2.215000
0
VERTEX
8
0
10
-1.636000
20
2.000000
0
SEQEND
8
0
0
POLYLINE
8
0
66
1
40
0.030000
41
0.030000
0
VERTEX
8
0
10
0.122000
20
1.850000
0
VERTEX
8
0
10
0.044000
20
1.850000
0
VERTEX
8
0
10
0.034000
20
1.840000
0
SEQEND
8
0
0
POLYLINE
8
0
66
1
40
0.030000
41
0.030000
0
VERTEX
8
0
10
0.034000
20
1.712000
0
VERTEX
8
0
10
0.034000
20
1.840000
0
VERTEX
8
0
10
0.034000
20
1.840000
0
VERTEX
8
0
10
0.034000
20
1.853000
0
SEQEND
8
0
0
POLYLINE
8
0
66
1
40
0.050000
41
0.050000
0
VERTEX
8
0
10
-0.171000
20
2.205000
0
VERTEX
8
0
10
-0.171000
20
2.301000
0
VERTEX
8
0
10
-0.172000
20
2.302000
0
VERTEX
8
0
10
0.081000
20
2.302000
0
VERTEX
8
0
10
0.098000
20
2.320000
0
SEQEND
8
0
0
POLYLINE
8
0
66
1
40
0.030000
41
0.030000
0
VERTEX
8
0
10
1.728000
20
0.850000
0
VERTEX
8
0
10
1.728000
20
1.350000
0
SEQEND
8
0
0
POLYLINE
8
0
66
1
40
0.070000
41
0.070000
0
VERTEX
8
0
10
0.675000
20
-2.066000
0
VERTEX
8
0
10
0.675000
20
-2.199000
0
VERTEX
8
0
10
0.675000
20
-2.409000
0
VERTEX
8
0
10
0.643000
20
-2.440000
0
SEQEND
8
0
0
POLYLINE
8
0
66
1
40
0.070000
41
0.070000
0
VERTEX
8
0
10
0.443000
20
-2.440000
0
VERTEX
8
0
10
0.443000
20
-2.579000
0
VERTEX
8
0
10
0.442000
20
-2.581000
0
VERTEX
8
0
10
0.870000
20
-2.581000
0
VERTEX
8
0
10
0.873000
20
-2.584000
0
VERTEX
8
0
10
0.873000
20
-2.449000
0
VERTEX
8
0
10
0.883000
20
-2.439000
0
SEQEND
8
0
0
POLYLINE
8
0
66
1
40
0.030000
41
0.030000
0
VERTEX
8
0
10
1.334000
20
1.712000
0
VERTEX
8
0
10
1.334000
20
1.224000
0
VERTEX
8
0
10
1.408000
20
1.150000
0
SEQEND
8
0
0
POLYLINE
8
0
66
1
40
0.030000
41
0.030000
0
VERTEX
8
0
10
1.808000
20
1.150000
0
VERTEX
8
0
10
1.808000
20
0.748000
0
VERTEX
8
0
10
1.811000
20
0.745000
0
VERTEX
8
0
10
1.733000
20
0.745000
0
VERTEX
8
0
10
1.728000
20
0.750000
0
SEQEND
8
0
0
POLYLINE
8
0
66
1
40
0.030000
41
0.030000
0
VERTEX
8
0
10
0.888000
20
1.960000
0
VERTEX
8
0
10
0.886000
20
1.958000
0
SEQEND
8
0
0
POLYLINE
8
0
66
1
40
0.030000
41
0.030000
0
VERTEX
8
0
10
1.434000
20
1.712000
0
VERTEX
8
0
10
1.713000
20
1.712000
0
VERTEX
8
0
10
1.722000
20
1.703000
0
SEQEND
8
0
0
POLYLINE
8
0
66
1
40
0.030000
41
0.030000
0
VERTEX
8
0
10
1.047000
20
1.850000
0
VERTEX
8
0
10
1.715000
20
1.850000
0
VERTEX
8
0
10
1.722000
20
1.843000
0
VERTEX
8
0
10
1.722000
20
1.703000
0
SEQEND
8
0
0
POLYLINE
8
0
66
1
40
0.030000
41
0.030000
0
VERTEX
8
0
10
1.028000
20
-1.397000
0
VERTEX
8
0
10
1.104000
20
-1.397000
0
VERTEX
8
0
10
1.178000
20
-1.323000
0
VERTEX
8
0
10
1.240000
20
-1.323000
0
VERTEX
8
0
10
1.244000
20
-1.318000
0
SEQEND
8
0
0
POLYLINE
8
0
66
1
40
0.030000
41
0.030000
0
VERTEX
8
0
10
1.028000
20
-1.673000
0
VERTEX
8
0
10
1.097000
20
-1.673000
0
VERTEX
8
0
10
1.100000
20
-1.675000
0
VERTEX
8
0
10
1.100000
20
-1.608000
0
VERTEX
8
0
10
1.182000
20
-1.525000
0
VERTEX
8
0
10
1.237000
20
-1.525000
0
VERTEX
8
0
10
1.244000
20
-1.518000
0
SEQEND
8
0
0
POLYLINE
8
0
66
1
40
0.030000
41
0.030000
0
VERTEX
8
0
10
1.244000
20
-1.718000
0
VERTEX
8
0
10
1.181000
20
-1.718000
0
VERTEX
8
0
10
1.180000
20
-1.719000
0
VERTEX
8
0
10
1.108000
20
-1.791000
0
VERTEX
8
0
10
1.108000
20
-1.949000
0
VERTEX
8
0
10
1.029000
20
-1.949000
0
VERTEX
8
0
10
1.028000
20
-1.948000
0
SEQEND
8
0
0
POLYLINE
8
0
66
1
40
0.030000
41
0.030000
0
VERTEX
8
0
10
-0.366000
20
-1.819000
0
VERTEX
8
0
10
-0.156000
20
-1.819000
0
VERTEX
8
0
10
-0.154000
20
-1.821000
0
SEQEND
8
0
0
POLYLINE
8
0
66
1
40
0.030000
41
0.030000
0
VERTEX
8
0
10
-0.154000
20
-1.842000
0
VERTEX
8
0
10
-0.154000
20
-1.821000
0
VERTEX
8
0
10
-0.154000
20
-1.700000
0
VERTEX
8
0
10
-0.166000
20
-1.689000
0
SEQEND
8
0
0
POLYLINE
8
0
66
1
40
0.070000
41
0.070000
0
VERTEX
8
0
10
1.498000
20
-2.444000
0
VERTEX
8
0
10
1.108000
20
-2.444000
0
VERTEX
8
0
10
1.103000
20
-2.439000
0
SEQEND
8
0
0
POLYLINE
8
0
66
1
40
0.070000
41
0.070000
0
VERTEX
8
0
10
1.695000
20
-2.444000
0
VERTEX
8
0
10
1.695000
20
-2.349000
0
VERTEX
8
0
10
1.553000
20
-2.207000
0
VERTEX
8
0
10
1.549000
20
-2.207000
0
VERTEX
8
0
10
0.683000
20
-2.207000
0
VERTEX
8
0
10
0.675000
20
-2.199000
0
SEQEND
8
0
0
POLYLINE
8
0
66
1
40
0.030000
41
0.030000
0
VERTEX
8
0
10
0.752000
20
-0.782000
0
VERTEX
8
0
10
0.752000
20
-0.550000
0
VERTEX
8
0
10
0.752000
20
-0.550000
0
VERTEX
8
0
10
0.655000
20
-0.550000
0
VERTEX
8
0
10
0.153000
20
-0.048000
0
VERTEX
8
0
10
0.153000
20
-0.029000
0
VERTEX
8
0
10
0.153000
20
0.000000
0
SEQEND
8
0
0
POLYLINE
8
0
66
1
40
0.030000
41
0.030000
0
VERTEX
8
0
10
0.288000
20
-0.099000
0
VERTEX
8
0
10
0.288000
20
-0.099000
0
SEQEND
8
0
0
POLYLINE
8
0
66
1
40
0.030000
41
0.030000
0
VERTEX
8
0
10
0.267000
20
-0.078000
0
VERTEX
8
0
10
0.288000
20
-0.099000
0
VERTEX
8
0
10
0.610000
20
-0.421000
0
VERTEX
8
0
10
1.362000
20
-0.421000
0
VERTEX
8
0
10
1.362000
20
-0.772000
0
VERTEX
8
0
10
1.352000
20
-0.782000
0
SEQEND
8
0
0
POLYLINE
8
0
66
1
40
0.030000
41
0.030000
0
VERTEX
8
0
10
0.358000
20
-0.599000
0
VERTEX
8
0
10
0.358000
20
-0.617000
0
SEQEND
8
0
0
POLYLINE
8
0
66
1
40
0.030000
41
0.030000
0
VERTEX
8
0
10
0.358000
20
-0.805000
0
VERTEX
8
0
10
0.358000
20
-0.617000
0
SEQEND
8
0
0
POLYLINE
8
0
66
1
40
0.030000
41
0.030000
0
VERTEX
8
0
10
0.752000
20
-1.082000
0
VERTEX
8
0
10
0.752000
20
-0.893000
0
VERTEX
8
0
10
0.748000
20
-0.889000
0
VERTEX
8
0
10
0.674000
20
-0.889000
0
VERTEX
8
0
10
0.672000
20
-0.892000
0
VERTEX
8
0
10
0.672000
20
-0.634000
0
VERTEX
8
0
10
0.675000
20
-0.631000
0
VERTEX
8
0
10
0.646000
20
-0.631000
0
VERTEX
8
0
10
0.093000
20
-0.078000
0
SEQEND
8
0
0
POLYLINE
8
0
66
1
40
0.030000
41
0.030000
0
VERTEX
8
0
10
0.164000
20
0.250000
0
VERTEX
8
0
10
0.158000
20
0.256000
0
VERTEX
8
0
10
0.158000
20
-0.025000
0
VERTEX
8
0
10
0.153000
20
-0.029000
0
SEQEND
8
0
0
POLYLINE
8
0
66
1
40
0.030000
41
0.030000
0
VERTEX
8
0
10
0.224000
20
0.151000
0
VERTEX
8
0
10
0.219000
20
0.155000
0
VERTEX
8
0
10
0.219000
20
-0.020000
0
VERTEX
8
0
10
0.228000
20
-0.029000
0
VERTEX
8
0
10
0.288000
20
-0.089000
0
VERTEX
8
0
10
0.288000
20
-0.099000
0
SEQEND
8
0
0
POLYLINE
8
0
66
1
40
0.030000
41
0.030000
0
VERTEX
8
0
10
0.468000
20
0.151000
0
VERTEX
8
0
10
0.349000
20
0.151000
0
VERTEX
8
0
10
0.343000
20
0.145000
0
VERTEX
8
0
10
0.230000
20
0.145000
0
VERTEX
8
0
10
0.224000
20
0.151000
0
SEQEND
8
0
0
POLYLINE
8
0
66
1
40
0.030000
41
0.030000
0
VERTEX
8
0
10
0.468000
20
0.250000
0
VERTEX
8
0
10
0.348000
20
0.250000
0
VERTEX
8
0
10
0.343000
20
0.245000
0
VERTEX
8
0
10
0.169000
20
0.245000
0
VERTEX
8
0
10
0.164000
20
0.250000
0
SEQEND
8
0
0
POLYLINE
8
0
66
1
40
0.030000
41
0.030000
0
VERTEX
8
0
10
0.468000
20
0.350000
0
VERTEX
8
0
10
0.348000
20
0.350000
0
VERTEX
8
0
10
0.343000
20
0.345000
0
VERTEX
8
0
10
0.101000
20
0.345000
0
VERTEX
8
0
10
0.093000
20
0.337000
0
SEQEND
8
0
0
POLYLINE
8
0
66
1
40
0.030000
41
0.030000
0
VERTEX
8
0
10
0.093000
20
-0.078000
0
VERTEX
8
0
10
0.093000
20
0.337000
0
VERTEX
8
0
10
0.093000
20
0.343000
0
SEQEND
8
0
0
POLYLINE
8
0
66
1
40
0.030000
41
0.030000
0
VERTEX
8
0
10
0.343000
20
0.845000
0
VERTEX
8
0
10
0.463000
20
0.845000
0
VERTEX
8
0
10
0.468000
20
0.850000
0
SEQEND
8
0
0
POLYLINE
8
0
66
1
40
0.030000
41
0.030000
0
VERTEX
8
0
10
0.343000
20
0.745000
0
VERTEX
8
0
10
0.463000
20
0.745000
0
VERTEX
8
0
10
0.468000
20
0.750000
0
SEQEND
8
0
0
POLYLINE
8
0
66
1
40
0.030000
41
0.030000
0
VERTEX
8
0
10
0.343000
20
0.645000
0
VERTEX
8
0
10
0.463000
20
0.645000
0
VERTEX
8
0
10
0.468000
20
0.650000
0
SEQEND
8
0
0
POLYLINE
8
0
66
1
40
0.030000
41
0.030000
0
VERTEX
8
0
10
0.343000
20
0.545000
0
VERTEX
8
0
10
0.463000
20
0.545000
0
VERTEX
8
0
10
0.468000
20
0.550000
0
SEQEND
8
0
0
POLYLINE
8
0
66
1
40
0.030000
41
0.030000
0
VERTEX
8
0
10
0.343000
20
0.445000
0
VERTEX
8
0
10
0.463000
20
0.445000
0
VERTEX
8
0
10
0.468000
20
0.450000
0
SEQEND
8
0
0
POLYLINE
8
0
66
1
40
0.030000
41
0.030000
0
VERTEX
8
0
10
-0.065000
20
1.712000
0
VERTEX
8
0
10
-0.065000
20
2.004000
0
VERTEX
8
0
10
-0.066000
20
2.005000
0
VERTEX
8
0
10
0.208000
20
2.005000
0
VERTEX
8
0
10
0.208000
20
2.413000
0
VERTEX
8
0
10
0.215000
20
2.420000
0
SEQEND
8
0
0
POLYLINE
8
0
66
1
40
0.050000
41
0.050000
0
VERTEX
8
0
10
0.098000
20
2.420000
0
VERTEX
8
0
10
0.215000
20
2.420000
0
VERTEX
8
0
10
0.458000
20
2.420000
0
VERTEX
8
0
10
0.463000
20
2.425000
0
SEQEND
8
0
0
POLYLINE
8
0
66
1
40
0.030000
41
0.030000
0
VERTEX
8
0
10
1.308000
20
0.855000
0
VERTEX
8
0
10
1.193000
20
0.855000
0
VERTEX
8
0
10
1.088000
20
0.855000
0
SEQEND
8
0
0
POLYLINE
8
0
66
1
40
0.030000
41
0.030000
0
VERTEX
8
0
10
0.358000
20
-0.599000
0
VERTEX
8
0
10
0.358000
20
-0.599000
0
SEQEND
8
0
0
POLYLINE
8
0
66
1
40
0.030000
41
0.030000
0
VERTEX
8
0
10
-0.666000
20
-1.719000
0
VERTEX
8
0
10
-0.571000
20
-1.624000
0
VERTEX
8
0
10
-0.571000
20
-1.619000
0
SEQEND
8
0
0
POLYLINE
8
0
66
1
40
0.030000
41
0.030000
0
VERTEX
8
0
10
-0.096000
20
-1.044000
0
VERTEX
8
0
10
0.094000
20
-1.044000
0
VERTEX
8
0
10
0.104000
20
-1.034000
0
SEQEND
8
0
0
POLYLINE
8
0
66
1
40
0.030000
41
0.030000
0
VERTEX
8
0
10
0.170000
20
-1.087000
0
VERTEX
8
0
10
0.104000
20
-1.087000
0
VERTEX
8
0
10
0.104000
20
-1.034000
0
SEQEND
8
0
0
POLYLINE
8
0
66
1
40
0.030000
41
0.030000
0
VERTEX
8
0
10
-0.080000
20
-1.571000
0
VERTEX
8
0
10
-0.080000
20
-1.683000
0
VERTEX
8
0
10
-0.086000
20
-1.689000
0
SEQEND
8
0
0
POLYLINE
8
0
66
1
40
0.030000
41
0.030000
0
VERTEX
8
0
10
-0.366000
20
-1.719000
0
VERTEX
8
0
10
-0.366000
20
-1.668000
0
VERTEX
8
0
10
-0.269000
20
-1.571000
0
VERTEX
8
0
10
-0.080000
20
-1.571000
0
VERTEX
8
0
10
-0.080000
20
-1.571000
0
SEQEND
8
0
0
POLYLINE
8
0
66
1
40
0.030000
41
0.030000
0
VERTEX
8
0
10
-0.216000
20
-1.359000
0
VERTEX
8
0
10
-0.216000
20
-1.464000
0
SEQEND
8
0
0
POLYLINE
8
0
66
1
40
0.030000
41
0.030000
0
VERTEX
8
0
10
-0.666000
20
-1.819000
0
VERTEX
8
0
10
-0.568000
20
-1.819000
0
VERTEX
8
0
10
-0.561000
20
-1.811000
0
VERTEX
8
0
10
-0.561000
20
-1.744000
0
VERTEX
8
0
10
-0.281000
20
-1.464000
0
VERTEX
8
0
10
-0.216000
20
-1.464000
0
VERTEX
8
0
10
-0.116000
20
-1.464000
0
VERTEX
8
0
10
-0.096000
20
-1.444000
0
SEQEND
8
0
0
POLYLINE
8
0
66
1
40
0.030000
41
0.030000
0
VERTEX
8
0
10
-0.221000
20
-1.124000
0
VERTEX
8
0
10
-0.221000
20
-1.254000
0
VERTEX
8
0
10
-0.216000
20
-1.259000
0
SEQEND
8
0
0
POLYLINE
8
0
66
1
40
0.030000
41
0.030000
0
VERTEX
8
0
10
0.328000
20
2.100000
0
VERTEX
8
0
10
0.328000
20
2.221000
0
VERTEX
8
0
10
0.326000
20
2.223000
0
VERTEX
8
0
10
0.466000
20
2.223000
0
VERTEX
8
0
10
0.478000
20
2.235000
0
SEQEND
8
0
0
POLYLINE
8
0
66
1
40
0.030000
41
0.030000
0
VERTEX
8
0
10
0.578000
20
2.235000
0
VERTEX
8
0
10
0.578000
20
2.416000
0
VERTEX
8
0
10
0.570000
20
2.425000
0
SEQEND
8
0
0
POLYLINE
8
0
66
1
40
0.050000
41
0.050000
0
VERTEX
8
0
10
0.463000
20
2.425000
0
VERTEX
8
0
10
0.570000
20
2.425000
0
SEQEND
8
0
0
POLYLINE
8
0
66
1
40
0.030000
41
0.030000
0
VERTEX
8
0
10
-0.571000
20
-1.619000
0
VERTEX
8
0
10
-0.571000
20
-1.619000
0
VERTEX
8
0
10
-0.351000
20
-1.399000
0
VERTEX
8
0
10
-0.351000
20
-0.954000
0
SEQEND
8
0
0
POLYLINE
8
0
66
1
40
0.030000
41
0.030000
0
VERTEX
8
0
10
0.104000
20
-1.034000
0
VERTEX
8
0
10
0.104000
20
-0.796000
0
VERTEX
8
0
10
0.104000
20
-0.702000
0
VERTEX
8
0
10
0.112000
20
-0.694000
0
SEQEND
8
0
0
POLYLINE
8
0
66
1
40
0.030000
41
0.030000
0
VERTEX
8
0
10
0.098000
20
2.520000
0
VERTEX
8
0
10
0.115000
20
2.520000
0
SEQEND
8
0
0
POLYLINE
8
0
66
1
40
0.050000
41
0.050000
0
VERTEX
8
0
10
0.115000
20
2.520000
0
VERTEX
8
0
10
0.458000
20
2.520000
0
VERTEX
8
0
10
0.463000
20
2.525000
0
SEQEND
8
0
0
POLYLINE
8
0
66
1
40
0.030000
41
0.030000
0
VERTEX
8
0
10
-0.501000
20
1.055000
0
VERTEX
8
0
10
-0.140000
20
1.055000
0
VERTEX
8
0
10
-0.139000
20
1.055000
0
VERTEX
8
0
10
-0.139000
20
1.304000
0
VERTEX
8
0
10
-0.146000
20
1.310000
0
SEQEND
8
0
0
POLYLINE
8
0
66
1
40
0.030000
41
0.030000
0
VERTEX
8
0
10
-0.065000
20
1.712000
0
VERTEX
8
0
10
-0.065000
20
1.319000
0
VERTEX
8
0
10
-0.068000
20
1.316000
0
VERTEX
8
0
10
-0.140000
20
1.316000
0
VERTEX
8
0
10
-0.146000
20
1.310000
0
SEQEND
8
0
0
POLYLINE
8
0
66
1
40
0.030000
41
0.030000
0
VERTEX
8
0
10
-0.221000
20
1.155000
0
VERTEX
8
0
10
-0.221000
20
1.305000
0
VERTEX
8
0
10
-0.226000
20
1.310000
0
SEQEND
8
0
0
POLYLINE
8
0
66
1
40
0.030000
41
0.030000
0
VERTEX
8
0
10
-0.221000
20
0.555000
0
VERTEX
8
0
10
0.333000
20
0.555000
0
VERTEX
8
0
10
0.343000
20
0.545000
0
SEQEND
8
0
0
POLYLINE
8
0
66
1
40
0.030000
41
0.030000
0
VERTEX
8
0
10
-0.501000
20
0.975000
0
VERTEX
8
0
10
-0.341000
20
0.975000
0
VERTEX
8
0
10
-0.331000
20
0.965000
0
SEQEND
8
0
0
POLYLINE
8
0
66
1
40
0.030000
41
0.030000
0
VERTEX
8
0
10
0.178000
20
-0.439000
0
VERTEX
8
0
10
0.178000
20
-0.589000
0
VERTEX
8
0
10
0.168000
20
-0.599000
0
VERTEX
8
0
10
0.358000
20
-0.599000
0
SEQEND
8
0
0
POLYLINE
8
0
66
1
40
0.030000
41
0.030000
0
VERTEX
8
0
10
0.343000
20
0.045000
0
VERTEX
8
0
10
0.463000
20
-0.074000
0
VERTEX
8
0
10
0.463000
20
-0.084000
0
SEQEND
8
0
0
POLYLINE
8
0
66
1
40
0.070000
41
0.070000
0
VERTEX
8
0
10
-1.016000
20
-2.051000
0
VERTEX
8
0
10
-1.014000
20
-2.051000
0
VERTEX
8
0
10
-1.014000
20
-1.816000
0
VERTEX
8
0
10
-1.019000
20
-1.811000
0
SEQEND
8
0
0
POLYLINE
8
0
66
1
40
0.070000
41
0.070000
0
VERTEX
8
0
10
-1.012000
20
-2.440000
0
VERTEX
8
0
10
-1.012000
20
-2.054000
0
SEQEND
8
0
0
POLYLINE
8
0
66
1
40
0.030000
41
0.030000
0
VERTEX
8
0
10
-0.456000
20
-1.964000
0
VERTEX
8
0
10
-0.456000
20
-2.011000
0
VERTEX
8
0
10
-0.416000
20
-2.051000
0
SEQEND
8
0
0
POLYLINE
8
0
66
1
40
0.030000
41
0.030000
0
VERTEX
8
0
10
-0.306000
20
1.310000
0
VERTEX
8
0
10
-0.678000
20
1.310000
0
VERTEX
8
0
10
-0.848000
20
1.480000
0
SEQEND
8
0
0
POLYLINE
8
0
66
1
40
0.030000
41
0.030000
0
VERTEX
8
0
10
-0.501000
20
0.895000
0
VERTEX
8
0
10
-0.983000
20
0.895000
0
VERTEX
8
0
10
-1.568000
20
1.480000
0
SEQEND
8
0
0
POLYLINE
8
0
66
1
40
0.030000
41
0.030000
0
VERTEX
8
0
10
0.343000
20
0.445000
0
VERTEX
8
0
10
-0.251000
20
0.445000
0
VERTEX
8
0
10
-0.331000
20
0.365000
0
SEQEND
8
0
0
POLYLINE
8
0
66
1
40
0.030000
41
0.030000
0
VERTEX
8
0
10
-1.457000
20
-0.787000
0
VERTEX
8
0
10
-1.457000
20
-0.920000
0
VERTEX
8
0
10
-1.452000
20
-0.925000
0
SEQEND
8
0
0
POLYLINE
8
0
66
1
40
0.030000
41
0.030000
0
VERTEX
8
0
10
-1.207000
20
-0.787000
0
VERTEX
8
0
10
-1.094000
20
-0.787000
0
SEQEND
8
0
0
POLYLINE
8
0
66
1
40
0.030000
41
0.030000
0
VERTEX
8
0
10
-0.999000
20
-0.925000
0
VERTEX
8
0
10
-0.994000
20
-0.919000
0
SEQEND
8
0
0
POLYLINE
8
0
66
1
40
0.030000
41
0.030000
0
VERTEX
8
0
10
-0.994000
20
-0.787000
0
VERTEX
8
0
10
-0.994000
20
-0.919000
0
SEQEND
8
0
0
POLYLINE
8
0
66
1
40
0.030000
41
0.030000
0
VERTEX
8
0
10
-1.452000
20
-0.925000
0
VERTEX
8
0
10
-1.452000
20
-1.062000
0
SEQEND
8
0
0
POLYLINE
8
0
66
1
40
0.030000
41
0.030000
0
VERTEX
8
0
10
-0.999000
20
-1.062000
0
VERTEX
8
0
10
-0.999000
20
-0.925000
0
SEQEND
8
0
0
POLYLINE
8
0
66
1
40
0.070000
41
0.070000
0
VERTEX
8
0
10
-1.726000
20
-0.438000
0
VERTEX
8
0
10
-1.836000
20
-0.548000
0
VERTEX
8
0
10
-1.836000
20
-2.450000
0
VERTEX
8
0
10
-1.826000
20
-2.460000
0
VERTEX
8
0
10
-1.432000
20
-2.460000
0
VERTEX
8
0
10
-1.412000
20
-2.440000
0
SEQEND
8
0
0
POLYLINE
8
0
66
1
40
0.070000
41
0.070000
0
VERTEX
8
0
10
-1.452000
20
-1.811000
0
VERTEX
8
0
10
-1.452000
20
-1.555000
0
VERTEX
8
0
10
-1.255000
20
-1.555000
0
VERTEX
8
0
10
-0.842000
20
-1.141000
0
VERTEX
8
0
10
-0.842000
20
-0.456000
0
VERTEX
8
0
10
-0.855000
20
-0.443000
0
SEQEND
8
0
0
POLYLINE
8
0
66
1
40
0.030000
41
0.030000
0
VERTEX
8
0
10
-1.094000
20
-0.787000
0
VERTEX
8
0
10
-1.094000
20
0.094000
0
VERTEX
8
0
10
-1.097000
20
0.098000
0
VERTEX
8
0
10
0.004000
20
0.098000
0
VERTEX
8
0
10
0.004000
20
-0.098000
0
VERTEX
8
0
10
0.590000
20
-0.684000
0
SEQEND
8
0
0
POLYLINE
8
0
66
1
40
0.050000
41
0.050000
0
VERTEX
8
0
10
-1.371000
20
1.480000
0
VERTEX
8
0
10
-1.117000
20
1.480000
0
VERTEX
8
0
10
-0.848000
20
1.480000
0
SEQEND
8
0
0
POLYLINE
8
0
66
1
40
0.030000
41
0.030000
0
VERTEX
8
0
10
-1.568000
20
1.480000
0
VERTEX
8
0
10
-1.568000
20
1.711000
0
VERTEX
8
0
10
-1.590000
20
1.732000
0
SEQEND
8
0
0
POLYLINE
8
0
66
1
40
0.030000
41
0.030000
0
VERTEX
8
0
10
-1.371000
20
1.480000
0
VERTEX
8
0
10
-1.371000
20
1.700000
0
VERTEX
8
0
10
-1.340000
20
1.732000
0
SEQEND
8
0
0
POLYLINE
8
0
66
1
40
0.030000
41
0.030000
0
VERTEX
8
0
10
-0.848000
20
1.480000
0
VERTEX
8
0
10
-0.848000
20
1.699000
0
VERTEX
8
0
10
-0.881000
20
1.732000
0
SEQEND
8
0
0
POLYLINE
8
0
66
1
40
0.030000
41
0.030000
0
VERTEX
8
0
10
-0.651000
20
1.480000
0
VERTEX
8
0
10
-0.651000
20
1.711000
0
VERTEX
8
0
10
-0.631000
20
1.732000
0
SEQEND
8
0
0
POLYLINE
8
0
66
1
40
0.030000
41
0.030000
0
VERTEX
8
0
10
1.308000
20
0.555000
0
VERTEX
8
0
10
1.723000
20
0.555000
0
VERTEX
8
0
10
1.728000
20
0.550000
0
SEQEND
8
0
0
POLYLINE
8
0
66
1
40
0.030000
41
0.030000
0
VERTEX
8
0
10
1.728000
20
0.450000
0
VERTEX
8
0
10
1.583000
20
0.450000
0
SEQEND
8
0
0
POLYLINE
8
0
66
1
40
0.050000
41
0.050000
0
VERTEX
8
0
10
-1.491000
20
2.342000
0
VERTEX
8
0
10
-1.747000
20
2.342000
0
VERTEX
8
0
10
-1.747000
20
1.830000
0
VERTEX
8
0
10
-1.117000
20
1.830000
0
VERTEX
8
0
10
-1.117000
20
1.480000
0
SEQEND
8
0
0
POLYLINE
8
0
66
1
40
0.030000
41
0.030000
0
VERTEX
8
0
10
1.722000
20
1.703000
0
VERTEX
8
0
10
1.722000
20
1.377000
0
VERTEX
8
0
10
1.722000
20
1.356000
0
VERTEX
8
0
10
1.728000
20
1.350000
0
SEQEND
8
0
0
POLYLINE
8
0
66
1
40
0.050000
41
0.050000
0
VERTEX
8
0
10
0.463000
20
2.525000
0
VERTEX
8
0
10
0.791000
20
2.525000
0
SEQEND
8
0
0
POLYLINE
8
0
66
1
40
0.050000
41
0.050000
0
VERTEX
8
0
10
0.570000
20
2.425000
0
VERTEX
8
0
10
0.791000
20
2.425000
0
SEQEND
8
0
0
POLYLINE
8
0
66
1
40
0.050000
41
0.050000
0
VERTEX
8
0
10
0.791000
20
2.325000
0
VERTEX
8
0
10
0.791000
20
2.145000
0
VERTEX
8
0
10
0.831000
20
2.106000
0
SEQEND
8
0
0
POLYLINE
8
0
66
1
40
0.050000
41
0.050000
0
VERTEX
8
0
10
0.791000
20
1.958000
0
VERTEX
8
0
10
0.791000
20
2.092000
0
VERTEX
8
0
10
0.783000
20
2.100000
0
SEQEND
8
0
0
POLYLINE
8
0
66
1
40
0.030000
41
0.030000
0
VERTEX
8
0
10
0.034000
20
1.853000
0
VERTEX
8
0
10
0.034000
20
1.957000
0
VERTEX
8
0
10
0.034000
20
1.958000
0
VERTEX
8
0
10
0.791000
20
1.958000
0
VERTEX
8
0
10
0.886000
20
1.958000
0
SEQEND
8
0
0
POLYLINE
8
0
66
1
40
0.050000
41
0.050000
0
VERTEX
8
0
10
0.728000
20
2.100000
0
VERTEX
8
0
10
0.783000
20
2.100000
0
VERTEX
8
0
10
0.825000
20
2.100000
0
VERTEX
8
0
10
0.831000
20
2.106000
0
SEQEND
8
0
0
POLYLINE
8
0
66
1
40
0.030000
41
0.030000
0
VERTEX
8
0
10
1.244000
20
2.501000
0
VERTEX
8
0
10
1.244000
20
2.401000
0
SEQEND
8
0
0
POLYLINE
8
0
66
1
40
0.030000
41
0.030000
0
VERTEX
8
0
10
0.768000
20
0.950000
0
VERTEX
8
0
10
1.006000
20
0.950000
0
VERTEX
8
0
10
1.007000
20
0.948000
0
SEQEND
8
0
0
POLYLINE
8
0
66
1
40
0.030000
41
0.030000
0
VERTEX
8
0
10
0.768000
20
1.050000
0
VERTEX
8
0
10
0.909000
20
1.050000
0
VERTEX
8
0
10
1.007000
20
1.148000
0
SEQEND
8
0
0
POLYLINE
8
0
66
1
40
0.030000
41
0.030000
0
VERTEX
8
0
10
1.146000
20
2.501000
0
VERTEX
8
0
10
1.146000
20
2.401000
0
SEQEND
8
0
0
POLYLINE
8
0
66
1
40
0.050000
41
0.050000
0
VERTEX
8
0
10
0.791000
20
2.425000
0
VERTEX
8
0
10
1.004000
20
2.425000
0
VERTEX
8
0
10
1.008000
20
2.421000
0
SEQEND
8
0
0
POLYLINE
8
0
66
1
40
0.030000
41
0.030000
0
VERTEX
8
0
10
0.873000
20
0.135000
0
VERTEX
8
0
10
1.163000
20
0.135000
0
VERTEX
8
0
10
1.165000
20
0.137000
0
SEQEND
8
0
0
POLYLINE
8
0
66
1
40
0.030000
41
0.030000
0
VERTEX
8
0
10
1.008000
20
2.421000
0
VERTEX
8
0
10
1.126000
20
2.421000
0
VERTEX
8
0
10
1.146000
20
2.401000
0
SEQEND
8
0
0
POLYLINE
8
0
66
1
40
0.030000
41
0.030000
0
VERTEX
8
0
10
1.244000
20
2.401000
0
VERTEX
8
0
10
1.244000
20
2.224000
0
VERTEX
8
0
10
1.283000
20
2.185000
0
SEQEND
8
0
0
POLYLINE
8
0
66
1
40
0.030000
41
0.030000
0
VERTEX
8
0
10
1.461000
20
2.501000
0
VERTEX
8
0
10
1.461000
20
2.401000
0
VERTEX
8
0
10
1.461000
20
2.269000
0
VERTEX
8
0
10
1.470000
20
2.259000
0
VERTEX
8
0
10
1.601000
20
2.259000
0
VERTEX
8
0
10
1.606000
20
2.265000
0
VERTEX
8
0
10
1.717000
20
2.154000
0
VERTEX
8
0
10
1.717000
20
1.960000
0
SEQEND
8
0
0
POLYLINE
8
0
66
1
40
0.030000
41
0.030000
0
VERTEX
8
0
10
1.808000
20
1.150000
0
VERTEX
8
0
10
1.808000
20
1.955000
0
VERTEX
8
0
10
1.813000
20
1.960000
0
VERTEX
8
0
10
1.717000
20
1.960000
0
VERTEX
8
0
10
0.888000
20
1.960000
0
SEQEND
8
0
0
POLYLINE
8
0
66
1
40
0.030000
41
0.030000
0
VERTEX
8
0
10
1.362000
20
2.501000
0
VERTEX
8
0
10
1.362000
20
2.401000
0
SEQEND
8
0
0
POLYLINE
8
0
66
1
40
0.030000
41
0.030000
0
VERTEX
8
0
10
1.362000
20
2.501000
0
VERTEX
8
0
10
1.362000
20
2.618000
0
VERTEX
8
0
10
-1.806000
20
2.618000
0
VERTEX
8
0
10
-1.826000
20
2.598000
0
VERTEX
8
0
10
-1.826000
20
0.739000
0
VERTEX
8
0
10
-1.824000
20
0.736000
0
VERTEX
8
0
10
0.334000
20
0.736000
0
VERTEX
8
0
10
0.343000
20
0.745000
0
SEQEND
8
0
0
POLYLINE
8
0
66
1
40
0.030000
41
0.030000
0
VERTEX
8
0
10
0.463000
20
1.535000
0
VERTEX
8
0
10
0.463000
20
1.455000
0
VERTEX
8
0
10
0.468000
20
1.450000
0
SEQEND
8
0
0
POLYLINE
8
0
66
1
40
0.030000
41
0.030000
0
VERTEX
8
0
10
0.063000
20
1.397000
0
VERTEX
8
0
10
0.063000
20
1.535000
0
SEQEND
8
0
0
POLYLINE
8
0
66
1
40
0.030000
41
0.030000
0
VERTEX
8
0
10
0.468000
20
0.950000
0
VERTEX
8
0
10
0.048000
20
0.950000
0
SEQEND
8
0
0
POLYLINE
8
0
66
1
40
0.030000
41
0.030000
0
VERTEX
8
0
10
0.063000
20
1.297000
0
VERTEX
8
0
10
0.063000
20
1.065000
0
VERTEX
8
0
10
0.048000
20
1.050000
0
VERTEX
8
0
10
0.343000
20
1.050000
0
VERTEX
8
0
10
0.348000
20
1.045000
0
VERTEX
8
0
10
0.463000
20
1.045000
0
VERTEX
8
0
10
0.468000
20
1.050000
0
SEQEND
8
0
0
POLYLINE
8
0
66
1
40
0.030000
41
0.030000
0
VERTEX
8
0
10
0.468000
20
1.150000
0
VERTEX
8
0
10
0.353000
20
1.150000
0
VERTEX
8
0
10
0.348000
20
1.145000
0
SEQEND
8
0
0
POLYLINE
8
0
66
1
40
0.030000
41
0.030000
0
VERTEX
8
0
10
0.234000
20
1.712000
0
VERTEX
8
0
10
0.133000
20
1.611000
0
VERTEX
8
0
10
0.133000
20
1.440000
0
SEQEND
8
0
0
POLYLINE
8
0
66
1
40
0.010000
41
0.010000
0
VERTEX
8
0
10
0.133000
20
1.440000
0
VERTEX
8
0
10
0.133000
20
1.254000
0
SEQEND
8
0
0
POLYLINE
8
0
66
1
40
0.030000
41
0.030000
0
VERTEX
8
0
10
0.133000
20
1.254000
0
VERTEX
8
0
10
0.133000
20
1.137000
0
VERTEX
8
0
10
0.340000
20
1.137000
0
VERTEX
8
0
10
0.348000
20
1.145000
0
SEQEND
8
0
0
POLYLINE
8
0
66
1
40
0.030000
41
0.030000
0
VERTEX
8
0
10
0.334000
20
1.712000
0
VERTEX
8
0
10
0.217000
20
1.595000
0
VERTEX
8
0
10
0.213000
20
1.595000
0
VERTEX
8
0
10
0.213000
20
1.240000
0
VERTEX
8
0
10
0.343000
20
1.240000
0
VERTEX
8
0
10
0.348000
20
1.245000
0
SEQEND
8
0
0
POLYLINE
8
0
66
1
40
0.030000
41
0.030000
0
VERTEX
8
0
10
0.434000
20
1.712000
0
VERTEX
8
0
10
0.301000
20
1.579000
0
VERTEX
8
0
10
0.301000
20
1.393000
0
VERTEX
8
0
10
0.348000
20
1.345000
0
SEQEND
8
0
0
POLYLINE
8
0
66
1
40
0.030000
41
0.030000
0
VERTEX
8
0
10
-0.994000
20
-0.787000
0
VERTEX
8
0
10
-0.994000
20
-0.029000
0
VERTEX
8
0
10
-0.186000
20
-0.029000
0
VERTEX
8
0
10
0.178000
20
-0.394000
0
VERTEX
8
0
10
0.178000
20
-0.439000
0
SEQEND
8
0
0
POLYLINE
8
0
66
1
40
0.030000
41
0.030000
0
VERTEX
8
0
10
0.168000
20
-0.599000
0
VERTEX
8
0
10
-0.184000
20
-0.599000
0
VERTEX
8
0
10
-0.361000
20
-0.775000
0
VERTEX
8
0
10
-0.361000
20
-0.944000
0
VERTEX
8
0
10
-0.351000
20
-0.954000
0
SEQEND
8
0
0
POLYLINE
8
0
66
1
40
0.070000
41
0.070000
0
VERTEX
8
0
10
-1.266000
20
-0.534000
0
VERTEX
8
0
10
-1.534000
20
-0.534000
0
VERTEX
8
0
10
-1.535000
20
-0.535000
0
SEQEND
8
0
0
POLYLINE
8
0
66
1
40
0.070000
41
0.070000
0
VERTEX
8
0
10
-1.212000
20
-2.440000
0
VERTEX
8
0
10
-1.212000
20
-2.148000
0
VERTEX
8
0
10
-1.216000
20
-2.145000
0
VERTEX
8
0
10
-1.609000
20
-2.145000
0
VERTEX
8
0
10
-1.609000
20
-0.647000
0
VERTEX
8
0
10
-1.535000
20
-0.573000
0
VERTEX
8
0
10
-1.535000
20
-0.535000
0
VERTEX
8
0
10
-1.535000
20
-0.444000
0
VERTEX
8
0
10
-1.529000
20
-0.438000
0
SEQEND
8
0
0
POLYLINE
8
0
66
1
40
0.070000
41
0.070000
0
VERTEX
8
0
10
-1.726000
20
-0.438000
0
VERTEX
8
0
10
-1.726000
20
-0.121000
0
VERTEX
8
0
10
-1.728000
20
-0.119000
0
VERTEX
8
0
10
-1.281000
20
-0.119000
0
VERTEX
8
0
10
-1.266000
20
-0.134000
0
SEQEND
8
0
0
POLYLINE
8
0
66
1
40
0.070000
41
0.070000
0
VERTEX
8
0
10
-0.371000
20
-0.154000
0
VERTEX
8
0
10
-0.764000
20
-0.154000
0
VERTEX
8
0
10
-0.826000
20
-0.217000
0
VERTEX
8
0
10
-0.826000
20
-0.414000
0
VERTEX
8
0
10
-0.855000
20
-0.443000
0
SEQEND
8
0
0
POLYLINE
8
0
66
1
40
0.070000
41
0.070000
0
VERTEX
8
0
10
-0.371000
20
-0.554000
0
VERTEX
8
0
10
-0.531000
20
-0.554000
0
VERTEX
8
0
10
-0.546000
20
-0.569000
0
SEQEND
8
0
0
POLYLINE
8
0
66
1
40
0.070000
41
0.070000
0
VERTEX
8
0
10
-0.812000
20
-2.440000
0
VERTEX
8
0
10
-0.812000
20
-1.565000
0
VERTEX
8
0
10
-0.546000
20
-1.299000
0
VERTEX
8
0
10
-0.546000
20
-0.569000
0
VERTEX
8
0
10
-0.546000
20
-0.555000
0
VERTEX
8
0
10
-0.658000
20
-0.443000
0
SEQEND
8
0
0
POLYLINE
8
0
66
1
40
0.030000
41
0.030000
0
VERTEX
8
0
10
0.768000
20
-0.129000
0
VERTEX
8
0
10
0.701000
20
-0.129000
0
VERTEX
8
0
10
0.627000
20
-0.055000
0
VERTEX
8
0
10
0.623000
20
-0.051000
0
SEQEND
8
0
0
POLYLINE
8
0
66
1
40
0.030000
41
0.030000
0
VERTEX
8
0
10
0.468000
20
0.950000
0
VERTEX
8
0
10
0.613000
20
0.950000
0
VERTEX
8
0
10
0.623000
20
0.940000
0
VERTEX
8
0
10
0.623000
20
-0.051000
0
SEQEND
8
0
0
POLYLINE
8
0
66
1
40
0.030000
41
0.030000
0
VERTEX
8
0
10
0.768000
20
-0.029000
0
VERTEX
8
0
10
0.768000
20
0.150000
0
SEQEND
8
0
0
POLYLINE
8
0
66
1
40
0.030000
41
0.030000
0
VERTEX
8
0
10
1.083000
20
-0.254000
0
VERTEX
8
0
10
1.083000
20
-0.344000
0
VERTEX
8
0
10
1.098000
20
-0.359000
0
SEQEND
8
0
0
POLYLINE
8
0
66
1
40
0.030000
41
0.030000
0
VERTEX
8
0
10
0.468000
20
0.850000
0
VERTEX
8
0
10
0.563000
20
0.850000
0
VERTEX
8
0
10
0.563000
20
-0.214000
0
VERTEX
8
0
10
0.708000
20
-0.359000
0
VERTEX
8
0
10
1.098000
20
-0.359000
0
VERTEX
8
0
10
1.195000
20
-0.359000
0
SEQEND
8
0
0
POLYLINE
8
0
66
1
40
0.030000
41
0.030000
0
VERTEX
8
0
10
1.083000
20
-0.154000
0
VERTEX
8
0
10
1.083000
20
-0.003000
0
VERTEX
8
0
10
1.087000
20
0.000000
0
SEQEND
8
0
0
POLYLINE
8
0
66
1
40
0.030000
41
0.030000
0
VERTEX
8
0
10
0.968000
20
0.025000
0
VERTEX
8
0
10
0.968000
20
-0.184000
0
VERTEX
8
0
10
0.963000
20
-0.189000
0
SEQEND
8
0
0
POLYLINE
8
0
66
1
40
0.030000
41
0.030000
0
VERTEX
8
0
10
0.768000
20
0.750000
0
VERTEX
8
0
10
0.768000
20
0.752000
0
VERTEX
8
0
10
0.956000
20
0.752000
0
VERTEX
8
0
10
0.958000
20
0.750000
0
SEQEND
8
0
0
POLYLINE
8
0
66
1
40
0.030000
41
0.030000
0
VERTEX
8
0
10
1.623000
20
1.377000
0
VERTEX
8
0
10
1.722000
20
1.377000
0
SEQEND
8
0
0
POLYLINE
8
0
66
1
40
0.050000
41
0.050000
0
VERTEX
8
0
10
1.008000
20
2.421000
0
VERTEX
8
0
10
1.008000
20
2.130000
0
VERTEX
8
0
10
1.056000
20
2.082000
0
VERTEX
8
0
10
1.610000
20
2.082000
0
VERTEX
8
0
10
1.621000
20
2.093000
0
SEQEND
8
0
0
POLYLINE
8
0
66
1
40
0.030000
41
0.030000
0
VERTEX
8
0
10
1.283000
20
2.185000
0
VERTEX
8
0
10
1.398000
20
2.185000
0
VERTEX
8
0
10
1.398000
20
2.185000
0
SEQEND
8
0
0
POLYLINE
8
0
66
1
40
0.030000
41
0.030000
0
VERTEX
8
0
10
1.165000
20
0.137000
0
VERTEX
8
0
10
1.165000
20
0.058000
0
VERTEX
8
0
10
1.193000
20
0.030000
0
SEQEND
8
0
0
POLYLINE
8
0
66
1
40
0.030000
41
0.030000
0
VERTEX
8
0
10
0.588000
20
-0.929000
0
VERTEX
8
0
10
0.588000
20
-0.688000
0
VERTEX
8
0
10
0.584000
20
-0.684000
0
VERTEX
8
0
10
0.590000
20
-0.684000
0
SEQEND
8
0
0
POLYLINE
8
0
66
1
40
0.050000
41
0.050000
0
VERTEX
8
0
10
-1.636000
20
2.215000
0
VERTEX
8
0
10
-1.264000
20
2.215000
0
VERTEX
8
0
10
-1.255000
20
2.224000
0
VERTEX
8
0
10
-1.255000
20
2.421000
0
SEQEND
8
0
0
POLYLINE
8
0
66
1
40
0.050000
41
0.050000
0
VERTEX
8
0
10
0.097000
20
2.421000
0
VERTEX
8
0
10
0.098000
20
2.420000
0
SEQEND
8
0
0
POLYLINE
8
0
66
1
40
0.050000
41
0.050000
0
VERTEX
8
0
10
-1.491000
20
2.342000
0
VERTEX
8
0
10
-1.346000
20
2.342000
0
VERTEX
8
0
10
-1.336000
20
2.352000
0
VERTEX
8
0
10
-1.336000
20
2.497000
0
SEQEND
8
0
0
POLYLINE
8
0
66
1
40
0.050000
41
0.050000
0
VERTEX
8
0
10
0.098000
20
2.520000
0
VERTEX
8
0
10
-0.376000
20
2.520000
0
VERTEX
8
0
10
-0.386000
20
2.510000
0
VERTEX
8
0
10
-1.323000
20
2.510000
0
VERTEX
8
0
10
-1.336000
20
2.497000
0
SEQEND
8
0
0
POLYLINE
8
0
66
1
40
0.050000
41
0.050000
0
VERTEX
8
0
10
0.098000
20
2.420000
0
VERTEX
8
0
10
-0.376000
20
2.420000
0
VERTEX
8
0
10
-0.386000
20
2.410000
0
VERTEX
8
0
10
-1.244000
20
2.410000
0
VERTEX
8
0
10
-1.255000
20
2.421000
0
SEQEND
8
0
0
POLYLINE
8
0
66
1
40
0.030000
41
0.030000
0
VERTEX
8
0
10
-0.101000
20
0.645000
0
VERTEX
8
0
10
0.343000
20
0.645000
0
SEQEND
8
0
0
INSERT
8
0
2
EPAD
10
0.043000
20
-2.440000
41
0.120000
42
0.120000
0
CIRCLE
8
0
10
0.043000
20
-2.440000
40
0.030000
0
INSERT
8
0
2
EPAD
10
0.243000
20
-2.440000
41
0.120000
42
0.120000
0
CIRCLE
8
0
10
0.243000
20
-2.440000
40
0.030000
0
INSERT
8
0
2
EPAD
10
0.443000
20
-2.440000
41
0.120000
42
0.120000
0
CIRCLE
8
0
10
0.443000
20
-2.440000
40
0.030000
0
INSERT
8
0
2
EPAD
10
0.643000
20
-2.440000
41
0.120000
42
0.120000
0
CIRCLE
8
0
10
0.643000
20
-2.440000
40
0.030000
0
INSERT
8
0
2
EPAD
10
-1.412000
20
-2.440000
41
0.120000
42
0.120000
0
CIRCLE
8
0
10
-1.412000
20
-2.440000
40
0.030000
0
INSERT
8
0
2
EPAD
10
-1.212000
20
-2.440000
41
0.120000
42
0.120000
0
CIRCLE
8
0
10
-1.212000
20
-2.440000
40
0.030000
0
INSERT
8
0
2
EPAD
10
-1.012000
20
-2.440000
41
0.120000
42
0.120000
0
CIRCLE
8
0
10
-1.012000
20
-2.440000
40
0.030000
0
INSERT
8
0
2
EPAD
10
-0.812000
20
-2.440000
41
0.120000
42
0.120000
0
CIRCLE
8
0
10
-0.812000
20
-2.440000
40
0.030000
0
INSERT
8
0
2
EPAD
10
1.736000
20
-0.748000
41
0.120000
42
0.120000
0
CIRCLE
8
0
10
1.736000
20
-0.748000
40
0.030000
0
INSERT
8
0
2
EPAD
10
1.736000
20
-0.551000
41
0.120000
42
0.120000
0
CIRCLE
8
0
10
1.736000
20
-0.551000
40
0.030000
0
INSERT
8
0
2
EPAD
10
1.736000
20
-0.118000
41
0.120000
42
0.120000
0
CIRCLE
8
0
10
1.736000
20
-0.118000
40
0.030000
0
INSERT
8
0
2
EPAD
10
1.736000
20
0.078000
41
0.120000
42
0.120000
0
CIRCLE
8
0
10
1.736000
20
0.078000
40
0.030000
0
INSERT
8
0
2
EPAD
10
0.437000
20
-2.145000
41
0.070000
42
0.070000
0
CIRCLE
8
0
10
0.437000
20
-2.145000
40
0.025000
0
INSERT
8
0
2
EPAD
10
0.437000
20
-1.745000
41
0.070000
42
0.070000
0
CIRCLE
8
0
10
0.437000
20
-1.745000
40
0.025000
0
INSERT
8
0
2
EPAD
10
0.437000
20
-1.594000
41
0.070000
42
0.070000
0
CIRCLE
8
0
10
0.437000
20
-1.594000
40
0.025000
0
INSERT
8
0
2
EPAD
10
0.437000
20
-1.194000
41
0.070000
42
0.070000
0
CIRCLE
8
0
10
0.437000
20
-1.194000
40
0.025000
0
INSERT
8
0
2
EPAD
10
0.240000
20
-2.145000
41
0.070000
42
0.070000
0
CIRCLE
8
0
10
0.240000
20
-2.145000
40
0.025000
0
INSERT
8
0
2
EPAD
10
0.240000
20
-1.745000
41
0.070000
42
0.070000
0
CIRCLE
8
0
10
0.240000
20
-1.745000
40
0.025000
0
INSERT
8
0
2
EPAD
10
0.240000
20
-1.594000
41
0.070000
42
0.070000
0
CIRCLE
8
0
10
0.240000
20
-1.594000
40
0.025000
0
INSERT
8
0
2
EPAD
10
0.240000
20
-1.194000
41
0.070000
42
0.070000
0
CIRCLE
8
0
10
0.240000
20
-1.194000
40
0.025000
0
INSERT
8
0
2
EPAD
10
0.043000
20
-2.145000
41
0.070000
42
0.070000
0
CIRCLE
8
0
10
0.043000
20
-2.145000
40
0.025000
0
INSERT
8
0
2
EPAD
10
0.043000
20
-1.745000
41
0.070000
42
0.070000
0
CIRCLE
8
0
10
0.043000
20
-1.745000
40
0.025000
0
INSERT
8
0
2
EPAD
10
0.043000
20
-1.594000
41
0.070000
42
0.070000
0
CIRCLE
8
0
10
0.043000
20
-1.594000
40
0.025000
0
INSERT
8
0
2
EPAD
10
0.043000
20
-1.194000
41
0.070000
42
0.070000
0
CIRCLE
8
0
10
0.043000
20
-1.194000
40
0.025000
0
INSERT
8
0
2
EPAD
10
0.555000
20
-1.673000
41
0.070000
42
0.070000
0
CIRCLE
8
0
10
0.555000
20
-1.673000
40
0.025000
0
INSERT
8
0
2
EPAD
10
0.805000
20
-1.673000
41
0.070000
42
0.070000
0
CIRCLE
8
0
10
0.805000
20
-1.673000
40
0.025000
0
INSERT
8
0
2
EPAD
10
0.555000
20
-1.397000
41
0.070000
42
0.070000
0
CIRCLE
8
0
10
0.555000
20
-1.397000
40
0.025000
0
INSERT
8
0
2
EPAD
10
0.805000
20
-1.397000
41
0.070000
42
0.070000
0
CIRCLE
8
0
10
0.805000
20
-1.397000
40
0.025000
0
INSERT
8
0
2
EPAD
10
0.555000
20
-1.948000
41
0.070000
42
0.070000
0
CIRCLE
8
0
10
0.555000
20
-1.948000
40
0.025000
0
INSERT
8
0
2
EPAD
10
0.805000
20
-1.948000
41
0.070000
42
0.070000
0
CIRCLE
8
0
10
0.805000
20
-1.948000
40
0.025000
0
INSERT
8
0
2
EPAD
10
1.028000
20
-1.948000
41
0.080000
42
0.080000
0
CIRCLE
8
0
10
1.028000
20
-1.948000
40
0.025000
0
INSERT
8
0
2
EPAD
10
1.028000
20
-1.848000
41
0.080000
42
0.080000
0
CIRCLE
8
0
10
1.028000
20
-1.848000
40
0.025000
0
INSERT
8
0
2
EPAD
10
1.028000
20
-1.673000
41
0.080000
42
0.080000
0
CIRCLE
8
0
10
1.028000
20
-1.673000
40
0.025000
0
INSERT
8
0
2
EPAD
10
1.028000
20
-1.573000
41
0.080000
42
0.080000
0
CIRCLE
8
0
10
1.028000
20
-1.573000
40
0.025000
0
INSERT
8
0
2
EPAD
10
1.028000
20
-1.397000
41
0.080000
42
0.080000
0
CIRCLE
8
0
10
1.028000
20
-1.397000
40
0.025000
0
INSERT
8
0
2
EPAD
10
1.028000
20
-1.297000
41
0.080000
42
0.080000
0
CIRCLE
8
0
10
1.028000
20
-1.297000
40
0.025000
0
INSERT
8
0
2
RPAD
10
1.244000
20
-1.318000
41
0.050000
42
0.050000
50
270.000000
0
CIRCLE
8
0
10
1.244000
20
-1.318000
40
0.030000
0
INSERT
8
0
2
EPAD
10
1.244000
20
-1.418000
41
0.050000
42
0.050000
0
CIRCLE
8
0
10
1.244000
20
-1.418000
40
0.030000
0
INSERT
8
0
2
EPAD
10
1.244000
20
-1.518000
41
0.050000
42
0.050000
0
CIRCLE
8
0
10
1.244000
20
-1.518000
40
0.030000
0
INSERT
8
0
2
EPAD
10
1.244000
20
-1.618000
41
0.050000
42
0.050000
0
CIRCLE
8
0
10
1.244000
20
-1.618000
40
0.030000
0
INSERT
8
0
2
EPAD
10
1.244000
20
-1.718000
41
0.050000
42
0.050000
0
CIRCLE
8
0
10
1.244000
20
-1.718000
40
0.030000
0
INSERT
8
0
2
EPAD
10
1.244000
20
-1.818000
41
0.050000
42
0.050000
0
CIRCLE
8
0
10
1.244000
20
-1.818000
40
0.030000
0
INSERT
8
0
2
EPAD
10
1.244000
20
-1.918000
41
0.050000
42
0.050000
0
CIRCLE
8
0
10
1.244000
20
-1.918000
40
0.030000
0
INSERT
8
0
2
EPAD
10
1.544000
20
-1.918000
41
0.050000
42
0.050000
0
CIRCLE
8
0
10
1.544000
20
-1.918000
40
0.030000
0
INSERT
8
0
2
EPAD
10
1.544000
20
-1.818000
41
0.050000
42
0.050000
0
CIRCLE
8
0
10
1.544000
20
-1.818000
40
0.030000
0
INSERT
8
0
2
EPAD
10
1.544000
20
-1.718000
41
0.050000
42
0.050000
0
CIRCLE
8
0
10
1.544000
20
-1.718000
40
0.030000
0
INSERT
8
0
2
EPAD
10
1.544000
20
-1.618000
41
0.050000
42
0.050000
0
CIRCLE
8
0
10
1.544000
20
-1.618000
40
0.030000
0
INSERT
8
0
2
EPAD
10
1.544000
20
-1.518000
41
0.050000
42
0.050000
0
CIRCLE
8
0
10
1.544000
20
-1.518000
40
0.030000
0
INSERT
8
0
2
EPAD
10
1.544000
20
-1.418000
41
0.050000
42
0.050000
0
CIRCLE
8
0
10
1.544000
20
-1.418000
40
0.030000
0
INSERT
8
0
2
EPAD
10
1.544000
20
-1.318000
41
0.050000
42
0.050000
0
CIRCLE
8
0
10
1.544000
20
-1.318000
40
0.030000
0
INSERT
8
0
2
RPAD
10
0.752000
20
-1.082000
41
0.050000
42
0.050000
50
0.000000
0
CIRCLE
8
0
10
0.752000
20
-1.082000
40
0.030000
0
INSERT
8
0
2
EPAD
10
0.852000
20
-1.082000
41
0.050000
42
0.050000
0
CIRCLE
8
0
10
0.852000
20
-1.082000
40
0.030000
0
INSERT
8
0
2
EPAD
10
0.952000
20
-1.082000
41
0.050000
42
0.050000
0
CIRCLE
8
0
10
0.952000
20
-1.082000
40
0.030000
0
INSERT
8
0
2
EPAD
10
1.052000
20
-1.082000
41
0.050000
42
0.050000
0
CIRCLE
8
0
10
1.052000
20
-1.082000
40
0.030000
0
INSERT
8
0
2
EPAD
10
1.152000
20
-1.082000
41
0.050000
42
0.050000
0
CIRCLE
8
0
10
1.152000
20
-1.082000
40
0.030000
0
INSERT
8
0
2
EPAD
10
1.252000
20
-1.082000
41
0.050000
42
0.050000
0
CIRCLE
8
0
10
1.252000
20
-1.082000
40
0.030000
0
INSERT
8
0
2
EPAD
10
1.352000
20
-1.082000
41
0.050000
42
0.050000
0
CIRCLE
8
0
10
1.352000
20
-1.082000
40
0.030000
0
INSERT
8
0
2
EPAD
10
1.352000
20
-0.782000
41
0.050000
42
0.050000
0
CIRCLE
8
0
10
1.352000
20
-0.782000
40
0.030000
0
INSERT
8
0
2
EPAD
10
1.252000
20
-0.782000
41
0.050000
42
0.050000
0
CIRCLE
8
0
10
1.252000
20
-0.782000
40
0.030000
0
INSERT
8
0
2
EPAD
10
1.152000
20
-0.782000
41
0.050000
42
0.050000
0
CIRCLE
8
0
10
1.152000
20
-0.782000
40
0.030000
0
INSERT
8
0
2
EPAD
10
1.052000
20
-0.782000
41
0.050000
42
0.050000
0
CIRCLE
8
0
10
1.052000
20
-0.782000
40
0.030000
0
INSERT
8
0
2
EPAD
10
0.952000
20
-0.782000
41
0.050000
42
0.050000
0
CIRCLE
8
0
10
0.952000
20
-0.782000
40
0.030000
0
INSERT
8
0
2
EPAD
10
0.852000
20
-0.782000
41
0.050000
42
0.050000
0
CIRCLE
8
0
10
0.852000
20
-0.782000
40
0.030000
0
INSERT
8
0
2
EPAD
10
0.752000
20
-0.782000
41
0.050000
42
0.050000
0
CIRCLE
8
0
10
0.752000
20
-0.782000
40
0.030000
0
INSERT
8
0
2
EPAD
10
1.638000
20
-1.417000
41
0.070000
42
0.070000
0
CIRCLE
8
0
10
1.638000
20
-1.417000
40
0.025000
0
INSERT
8
0
2
EPAD
10
1.638000
20
-1.017000
41
0.070000
42
0.070000
0
CIRCLE
8
0
10
1.638000
20
-1.017000
40
0.025000
0
INSERT
8
0
2
EPAD
10
1.756000
20
-1.417000
41
0.070000
42
0.070000
0
CIRCLE
8
0
10
1.756000
20
-1.417000
40
0.025000
0
INSERT
8
0
2
EPAD
10
1.756000
20
-1.017000
41
0.070000
42
0.070000
0
CIRCLE
8
0
10
1.756000
20
-1.017000
40
0.025000
0
INSERT
8
0
2
EPAD
10
1.461000
20
-0.688000
41
0.070000
42
0.070000
0
CIRCLE
8
0
10
1.461000
20
-0.688000
40
0.025000
0
INSERT
8
0
2
EPAD
10
1.061000
20
-0.688000
41
0.070000
42
0.070000
0
CIRCLE
8
0
10
1.061000
20
-0.688000
40
0.025000
0
INSERT
8
0
2
EPAD
10
0.358000
20
-1.005000
41
0.080000
42
0.080000
0
CIRCLE
8
0
10
0.358000
20
-1.005000
40
0.025000
0
INSERT
8
0
2
EPAD
10
0.358000
20
-0.805000
41
0.080000
42
0.080000
0
CIRCLE
8
0
10
0.358000
20
-0.805000
40
0.025000
0
INSERT
8
0
2
EPAD
10
0.358000
20
-0.905000
41
0.080000
42
0.080000
0
CIRCLE
8
0
10
0.358000
20
-0.905000
40
0.025000
0
INSERT
8
0
2
EPAD
10
0.240000
20
-0.688000
41
0.070000
42
0.070000
0
CIRCLE
8
0
10
0.240000
20
-0.688000
40
0.025000
0
INSERT
8
0
2
EPAD
10
0.240000
20
-1.088000
41
0.070000
42
0.070000
0
CIRCLE
8
0
10
0.240000
20
-1.088000
40
0.025000
0
INSERT
8
0
2
RPAD
10
0.768000
20
0.150000
41
0.050000
42
0.050000
50
-180.000000
0
CIRCLE
8
0
10
0.768000
20
0.150000
40
0.010000
0
INSERT
8
0
2
EPAD
10
0.768000
20
0.250000
41
0.050000
42
0.050000
0
CIRCLE
8
0
10
0.768000
20
0.250000
40
0.010000
0
INSERT
8
0
2
EPAD
10
0.768000
20
0.350000
41
0.050000
42
0.050000
0
CIRCLE
8
0
10
0.768000
20
0.350000
40
0.010000
0
INSERT
8
0
2
EPAD
10
0.768000
20
0.450000
41
0.050000
42
0.050000
0
CIRCLE
8
0
10
0.768000
20
0.450000
40
0.010000
0
INSERT
8
0
2
EPAD
10
0.768000
20
0.550000
41
0.050000
42
0.050000
0
CIRCLE
8
0
10
0.768000
20
0.550000
40
0.010000
0
INSERT
8
0
2
EPAD
10
0.768000
20
0.650000
41
0.050000
42
0.050000
0
CIRCLE
8
0
10
0.768000
20
0.650000
40
0.010000
0
INSERT
8
0
2
EPAD
10
0.768000
20
0.750000
41
0.050000
42
0.050000
0
CIRCLE
8
0
10
0.768000
20
0.750000
40
0.010000
0
INSERT
8
0
2
EPAD
10
0.768000
20
0.850000
41
0.050000
42
0.050000
0
CIRCLE
8
0
10
0.768000
20
0.850000
40
0.010000
0
INSERT
8
0
2
EPAD
10
0.768000
20
0.950000
41
0.050000
42
0.050000
0
CIRCLE
8
0
10
0.768000
20
0.950000
40
0.010000
0
INSERT
8
0
2
EPAD
10
0.768000
20
1.050000
41
0.050000
42
0.050000
0
CIRCLE
8
0
10
0.768000
20
1.050000
40
0.010000
0
INSERT
8
0
2
EPAD
10
0.768000
20
1.150000
41
0.050000
42
0.050000
0
CIRCLE
8
0
10
0.768000
20
1.150000
40
0.010000
0
INSERT
8
0
2
EPAD
10
0.768000
20
1.250000
41
0.050000
42
0.050000
0
CIRCLE
8
0
10
0.768000
20
1.250000
40
0.010000
0
INSERT
8
0
2
EPAD
10
0.768000
20
1.350000
41
0.050000
42
0.050000
0
CIRCLE
8
0
10
0.768000
20
1.350000
40
0.010000
0
INSERT
8
0
2
EPAD
10
0.768000
20
1.450000
41
0.050000
42
0.050000
0
CIRCLE
8
0
10
0.768000
20
1.450000
40
0.010000
0
INSERT
8
0
2
EPAD
10
0.468000
20
1.450000
41
0.050000
42
0.050000
0
CIRCLE
8
0
10
0.468000
20
1.450000
40
0.010000
0
INSERT
8
0
2
EPAD
10
0.468000
20
1.350000
41
0.050000
42
0.050000
0
CIRCLE
8
0
10
0.468000
20
1.350000
40
0.010000
0
INSERT
8
0
2
EPAD
10
0.468000
20
1.250000
41
0.050000
42
0.050000
0
CIRCLE
8
0
10
0.468000
20
1.250000
40
0.010000
0
INSERT
8
0
2
EPAD
10
0.468000
20
1.150000
41
0.050000
42
0.050000
0
CIRCLE
8
0
10
0.468000
20
1.150000
40
0.010000
0
INSERT
8
0
2
EPAD
10
0.468000
20
1.050000
41
0.050000
42
0.050000
0
CIRCLE
8
0
10
0.468000
20
1.050000
40
0.010000
0
INSERT
8
0
2
EPAD
10
0.468000
20
0.950000
41
0.050000
42
0.050000
0
CIRCLE
8
0
10
0.468000
20
0.950000
40
0.010000
0
INSERT
8
0
2
EPAD
10
0.468000
20
0.850000
41
0.050000
42
0.050000
0
CIRCLE
8
0
10
0.468000
20
0.850000
40
0.010000
0
INSERT
8
0
2
EPAD
10
0.468000
20
0.750000
41
0.050000
42
0.050000
0
CIRCLE
8
0
10
0.468000
20
0.750000
40
0.010000
0
INSERT
8
0
2
EPAD
10
0.468000
20
0.650000
41
0.050000
42
0.050000
0
CIRCLE
8
0
10
0.468000
20
0.650000
40
0.010000
0
INSERT
8
0
2
EPAD
10
0.468000
20
0.550000
41
0.050000
42
0.050000
0
CIRCLE
8
0
10
0.468000
20
0.550000
40
0.010000
0
INSERT
8
0
2
EPAD
10
0.468000
20
0.450000
41
0.050000
42
0.050000
0
CIRCLE
8
0
10
0.468000
20
0.450000
40
0.010000
0
INSERT
8
0
2
EPAD
10
0.468000
20
0.350000
41
0.050000
42
0.050000
0
CIRCLE
8
0
10
0.468000
20
0.350000
40
0.010000
0
INSERT
8
0
2
EPAD
10
0.468000
20
0.250000
41
0.050000
42
0.050000
0
CIRCLE
8
0
10
0.468000
20
0.250000
40
0.025000
0
INSERT
8
0
2
EPAD
10
0.468000
20
0.151000
41
0.050000
42
0.050000
0
CIRCLE
8
0
10
0.468000
20
0.151000
40
0.010000
0
INSERT
8
0
2
EPAD
10
0.873000
20
-0.264000
41
0.070000
42
0.070000
0
CIRCLE
8
0
10
0.873000
20
-0.264000
40
0.025000
0
INSERT
8
0
2
EPAD
10
0.873000
20
0.135000
41
0.070000
42
0.070000
0
CIRCLE
8
0
10
0.873000
20
0.135000
40
0.025000
0
INSERT
8
0
2
EPAD
10
0.748000
20
-0.269000
41
0.070000
42
0.070000
0
CIRCLE
8
0
10
0.748000
20
-0.269000
40
0.025000
0
INSERT
8
0
2
EPAD
10
0.112000
20
-0.694000
41
0.070000
42
0.070000
0
CIRCLE
8
0
10
0.112000
20
-0.694000
40
0.025000
0
INSERT
8
0
2
EPAD
10
-0.456000
20
-1.964000
41
0.070000
42
0.070000
0
CIRCLE
8
0
10
-0.456000
20
-1.964000
40
0.025000
0
INSERT
8
0
2
EPAD
10
-0.206000
20
-1.964000
41
0.070000
42
0.070000
0
CIRCLE
8
0
10
-0.206000
20
-1.964000
40
0.025000
0
INSERT
8
0
2
EPAD
10
-0.201000
20
-2.194000
41
0.080000
42
0.080000
0
CIRCLE
8
0
10
-0.201000
20
-2.194000
40
0.025000
0
INSERT
8
0
2
EPAD
10
-0.101000
20
-2.194000
41
0.080000
42
0.080000
0
CIRCLE
8
0
10
-0.101000
20
-2.194000
40
0.025000
0
INSERT
8
0
2
EPAD
10
-0.086000
20
-1.689000
41
0.060000
42
0.060000
0
CIRCLE
8
0
10
-0.086000
20
-1.689000
40
0.025000
0
INSERT
8
0
2
EPAD
10
-0.166000
20
-1.689000
41
0.060000
42
0.060000
0
CIRCLE
8
0
10
-0.166000
20
-1.689000
40
0.025000
0
INSERT
8
0
2
EPAD
10
-0.246000
20
-1.689000
41
0.060000
42
0.060000
0
CIRCLE
8
0
10
-0.246000
20
-1.689000
40
0.025000
0
INSERT
8
0
2
RPAD
10
-0.366000
20
-1.819000
41
0.050000
42
0.050000
50
90.000000
0
CIRCLE
8
0
10
-0.366000
20
-1.819000
40
0.030000
0
INSERT
8
0
2
EPAD
10
-0.366000
20
-1.719000
41
0.050000
42
0.050000
0
CIRCLE
8
0
10
-0.366000
20
-1.719000
40
0.030000
0
INSERT
8
0
2
EPAD
10
-0.666000
20
-1.719000
41
0.050000
42
0.050000
0
CIRCLE
8
0
10
-0.666000
20
-1.719000
40
0.030000
0
INSERT
8
0
2
EPAD
10
-0.666000
20
-1.819000
41
0.050000
42
0.050000
0
CIRCLE
8
0
10
-0.666000
20
-1.819000
40
0.030000
0
INSERT
8
0
2
EPAD
10
-1.016000
20
-2.051000
41
0.080000
42
0.080000
0
CIRCLE
8
0
10
-1.016000
20
-2.051000
40
0.025000
0
INSERT
8
0
2
EPAD
10
-0.416000
20
-2.051000
41
0.080000
42
0.080000
0
CIRCLE
8
0
10
-0.416000
20
-2.051000
40
0.025000
0
INSERT
8
0
2
EPAD
10
1.007000
20
1.148000
41
0.080000
42
0.080000
0
CIRCLE
8
0
10
1.007000
20
1.148000
40
0.025000
0
INSERT
8
0
2
EPAD
10
1.007000
20
0.948000
41
0.080000
42
0.080000
0
CIRCLE
8
0
10
1.007000
20
0.948000
40
0.025000
0
INSERT
8
0
2
EPAD
10
-0.065000
20
1.712000
41
0.060000
42
0.060000
0
INSERT
8
0
2
EPAD
10
-0.065000
20
1.712000
41
0.060000
42
0.060000
0
INSERT
8
0
2
EPAD
10
0.034000
20
1.712000
41
0.060000
42
0.060000
0
INSERT
8
0
2
EPAD
10
0.034000
20
1.712000
41
0.060000
42
0.060000
0
INSERT
8
0
2
EPAD
10
0.134000
20
1.712000
41
0.060000
42
0.060000
0
INSERT
8
0
2
EPAD
10
0.134000
20
1.712000
41
0.060000
42
0.060000
0
INSERT
8
0
2
EPAD
10
0.234000
20
1.712000
41
0.060000
42
0.060000
0
INSERT
8
0
2
EPAD
10
0.234000
20
1.712000
41
0.060000
42
0.060000
0
INSERT
8
0
2
EPAD
10
0.334000
20
1.712000
41
0.060000
42
0.060000
0
INSERT
8
0
2
EPAD
10
0.334000
20
1.712000
41
0.060000
42
0.060000
0
INSERT
8
0
2
EPAD
10
0.434000
20
1.712000
41
0.060000
42
0.060000
0
INSERT
8
0
2
EPAD
10
0.434000
20
1.712000
41
0.060000
42
0.060000
0
INSERT
8
0
2
EPAD
10
0.534000
20
1.712000
41
0.060000
42
0.060000
0
INSERT
8
0
2
EPAD
10
0.534000
20
1.712000
41
0.060000
42
0.060000
0
INSERT
8
0
2
EPAD
10
0.634000
20
1.712000
41
0.060000
42
0.060000
0
INSERT
8
0
2
EPAD
10
0.634000
20
1.712000
41
0.060000
42
0.060000
0
INSERT
8
0
2
EPAD
10
0.734000
20
1.712000
41
0.060000
42
0.060000
0
INSERT
8
0
2
EPAD
10
0.734000
20
1.712000
41
0.060000
42
0.060000
0
INSERT
8
0
2
EPAD
10
0.834000
20
1.712000
41
0.060000
42
0.060000
0
INSERT
8
0
2
EPAD
10
0.834000
20
1.712000
41
0.060000
42
0.060000
0
INSERT
8
0
2
EPAD
10
0.934000
20
1.712000
41
0.060000
42
0.060000
0
INSERT
8
0
2
EPAD
10
0.934000
20
1.712000
41
0.060000
42
0.060000
0
INSERT
8
0
2
EPAD
10
1.034000
20
1.712000
41
0.060000
42
0.060000
0
INSERT
8
0
2
EPAD
10
1.034000
20
1.712000
41
0.060000
42
0.060000
0
INSERT
8
0
2
EPAD
10
1.134000
20
1.712000
41
0.060000
42
0.060000
0
INSERT
8
0
2
EPAD
10
1.134000
20
1.712000
41
0.060000
42
0.060000
0
INSERT
8
0
2
EPAD
10
1.234000
20
1.712000
41
0.060000
42
0.060000
0
INSERT
8
0
2
EPAD
10
1.234000
20
1.712000
41
0.060000
42
0.060000
0
INSERT
8
0
2
EPAD
10
1.334000
20
1.712000
41
0.060000
42
0.060000
0
INSERT
8
0
2
EPAD
10
1.334000
20
1.712000
41
0.060000
42
0.060000
0
INSERT
8
0
2
EPAD
10
1.434000
20
1.712000
41
0.060000
42
0.060000
0
INSERT
8
0
2
EPAD
10
1.434000
20
1.712000
41
0.060000
42
0.060000
0
INSERT
8
0
2
EPAD
10
0.522000
20
1.850000
41
0.070000
42
0.070000
0
CIRCLE
8
0
10
0.522000
20
1.850000
40
0.025000
0
INSERT
8
0
2
EPAD
10
0.122000
20
1.850000
41
0.070000
42
0.070000
0
CIRCLE
8
0
10
0.122000
20
1.850000
40
0.025000
0
INSERT
8
0
2
EPAD
10
1.047000
20
1.850000
41
0.070000
42
0.070000
0
CIRCLE
8
0
10
1.047000
20
1.850000
40
0.025000
0
INSERT
8
0
2
EPAD
10
0.647000
20
1.850000
41
0.070000
42
0.070000
0
CIRCLE
8
0
10
0.647000
20
1.850000
40
0.025000
0
INSERT
8
0
2
RPAD
10
1.308000
20
0.855000
41
0.060000
42
0.060000
50
270.000000
0
CIRCLE
8
0
10
1.308000
20
0.855000
40
0.025000
0
INSERT
8
0
2
EPAD
10
1.308000
20
0.755000
41
0.070000
42
0.070000
0
CIRCLE
8
0
10
1.308000
20
0.755000
40
0.025000
0
INSERT
8
0
2
EPAD
10
1.308000
20
0.655000
41
0.070000
42
0.070000
0
CIRCLE
8
0
10
1.308000
20
0.655000
40
0.025000
0
INSERT
8
0
2
EPAD
10
1.308000
20
0.555000
41
0.070000
42
0.070000
0
CIRCLE
8
0
10
1.308000
20
0.555000
40
0.025000
0
INSERT
8
0
2
EPAD
10
1.308000
20
0.455000
41
0.070000
42
0.070000
0
CIRCLE
8
0
10
1.308000
20
0.455000
40
0.025000
0
INSERT
8
0
2
EPAD
10
1.308000
20
0.355000
41
0.070000
42
0.070000
0
CIRCLE
8
0
10
1.308000
20
0.355000
40
0.025000
0
INSERT
8
0
2
EPAD
10
1.308000
20
0.255000
41
0.070000
42
0.070000
0
CIRCLE
8
0
10
1.308000
20
0.255000
40
0.025000
0
INSERT
8
0
2
EPAD
10
1.308000
20
0.155000
41
0.070000
42
0.070000
0
CIRCLE
8
0
10
1.308000
20
0.155000
40
0.025000
0
INSERT
8
0
2
EPAD
10
-0.096000
20
-1.444000
41
0.070000
42
0.070000
0
CIRCLE
8
0
10
-0.096000
20
-1.444000
40
0.025000
0
INSERT
8
0
2
EPAD
10
-0.096000
20
-1.044000
41
0.070000
42
0.070000
0
CIRCLE
8
0
10
-0.096000
20
-1.044000
40
0.025000
0
INSERT
8
0
2
RPAD
10
1.728000
20
0.250000
41
0.080000
42
0.080000
50
90.000000
0
CIRCLE
8
0
10
1.728000
20
0.250000
40
0.025000
0
INSERT
8
0
2
RPAD
10
1.728000
20
0.350000
41
0.080000
42
0.080000
50
90.000000
0
CIRCLE
8
0
10
1.728000
20
0.350000
40
0.025000
0
INSERT
8
0
2
RPAD
10
1.728000
20
0.450000
41
0.080000
42
0.080000
50
90.000000
0
CIRCLE
8
0
10
1.728000
20
0.450000
40
0.025000
0
INSERT
8
0
2
RPAD
10
1.728000
20
0.550000
41
0.080000
42
0.080000
50
90.000000
0
CIRCLE
8
0
10
1.728000
20
0.550000
40
0.025000
0
INSERT
8
0
2
RPAD
10
1.728000
20
0.650000
41
0.080000
42
0.080000
50
90.000000
0
CIRCLE
8
0
10
1.728000
20
0.650000
40
0.025000
0
INSERT
8
0
2
RPAD
10
1.728000
20
0.750000
41
0.080000
42
0.080000
50
90.000000
0
CIRCLE
8
0
10
1.728000
20
0.750000
40
0.025000
0
INSERT
8
0
2
RPAD
10
1.728000
20
0.850000
41
0.080000
42
0.080000
50
90.000000
0
CIRCLE
8
0
10
1.728000
20
0.850000
40
0.025000
0
INSERT
8
0
2
EPAD
10
1.133000
20
-0.599000
41
0.070000
42
0.070000
0
CIRCLE
8
0
10
1.133000
20
-0.599000
40
0.025000
0
INSERT
8
0
2
EPAD
10
1.087000
20
0.000000
41
0.070000
42
0.070000
0
CIRCLE
8
0
10
1.087000
20
0.000000
40
0.025000
0
INSERT
8
0
2
EPAD
10
1.083000
20
0.720000
41
0.070000
42
0.070000
0
CIRCLE
8
0
10
1.083000
20
0.720000
40
0.025000
0
INSERT
8
0
2
EPAD
10
-0.906000
20
2.200000
41
0.120000
42
0.120000
0
CIRCLE
8
0
10
-0.906000
20
2.200000
40
0.030000
0
INSERT
8
0
2
EPAD
10
-0.906000
20
2.003000
41
0.120000
42
0.120000
0
CIRCLE
8
0
10
-0.906000
20
2.003000
40
0.030000
0
INSERT
8
0
2
EPAD
10
-1.636000
20
2.215000
41
0.090000
42
0.090000
0
CIRCLE
8
0
10
-1.636000
20
2.215000
40
0.025000
0
INSERT
8
0
2
EPAD
10
-1.136000
20
2.215000
41
0.090000
42
0.090000
0
CIRCLE
8
0
10
-1.136000
20
2.215000
40
0.025000
0
INSERT
8
0
2
EPAD
10
-1.636000
20
2.000000
41
0.090000
42
0.090000
0
CIRCLE
8
0
10
-1.636000
20
2.000000
40
0.025000
0
INSERT
8
0
2
EPAD
10
-1.136000
20
2.000000
41
0.090000
42
0.090000
0
CIRCLE
8
0
10
-1.136000
20
2.000000
40
0.025000
0
INSERT
8
0
2
EPAD
10
-0.671000
20
2.010000
41
0.090000
42
0.090000
0
CIRCLE
8
0
10
-0.671000
20
2.010000
40
0.025000
0
INSERT
8
0
2
EPAD
10
-0.171000
20
2.010000
41
0.090000
42
0.090000
0
CIRCLE
8
0
10
-0.171000
20
2.010000
40
0.025000
0
INSERT
8
0
2
EPAD
10
-0.671000
20
2.205000
41
0.090000
42
0.090000
0
CIRCLE
8
0
10
-0.671000
20
2.205000
40
0.025000
0
INSERT
8
0
2
EPAD
10
-0.171000
20
2.205000
41
0.090000
42
0.090000
0
CIRCLE
8
0
10
-0.171000
20
2.205000
40
0.025000
0
INSERT
8
0
2
RPAD
10
0.098000
20
2.320000
41
0.080000
42
0.080000
50
90.000000
0
CIRCLE
8
0
10
0.098000
20
2.320000
40
0.025000
0
INSERT
8
0
2
RPAD
10
0.098000
20
2.420000
41
0.080000
42
0.080000
50
90.000000
0
CIRCLE
8
0
10
0.098000
20
2.420000
40
0.025000
0
INSERT
8
0
2
RPAD
10
0.098000
20
2.520000
41
0.080000
42
0.080000
50
90.000000
0
CIRCLE
8
0
10
0.098000
20
2.520000
40
0.025000
0
INSERT
8
0
2
RPAD
10
0.791000
20
2.525000
41
0.080000
42
0.080000
50
270.000000
0
CIRCLE
8
0
10
0.791000
20
2.525000
40
0.025000
0
INSERT
8
0
2
RPAD
10
0.791000
20
2.425000
41
0.080000
42
0.080000
50
270.000000
0
CIRCLE
8
0
10
0.791000
20
2.425000
40
0.025000
0
INSERT
8
0
2
RPAD
10
0.791000
20
2.325000
41
0.080000
42
0.080000
50
270.000000
0
CIRCLE
8
0
10
0.791000
20
2.325000
40
0.025000
0
INSERT
8
0
2
EPAD
10
0.463000
20
2.425000
41
0.080000
42
0.080000
0
CIRCLE
8
0
10
0.463000
20
2.425000
40
0.025000
0
INSERT
8
0
2
EPAD
10
0.463000
20
2.525000
41
0.080000
42
0.080000
0
CIRCLE
8
0
10
0.463000
20
2.525000
40
0.025000
0
INSERT
8
0
2
EPAD
10
0.358000
20
-0.599000
41
0.070000
42
0.070000
0
CIRCLE
8
0
10
0.358000
20
-0.599000
40
0.025000
0
INSERT
8
0
2
EPAD
10
1.103000
20
-2.439000
41
0.100000
42
0.100000
0
CIRCLE
8
0
10
1.103000
20
-2.439000
40
0.025000
0
INSERT
8
0
2
EPAD
10
0.883000
20
-2.439000
41
0.100000
42
0.100000
0
CIRCLE
8
0
10
0.883000
20
-2.439000
40
0.025000
0
INSERT
8
0
2
EPAD
10
1.408000
20
1.150000
41
0.070000
42
0.070000
0
CIRCLE
8
0
10
1.408000
20
1.150000
40
0.025000
0
INSERT
8
0
2
EPAD
10
1.808000
20
1.150000
41
0.070000
42
0.070000
0
CIRCLE
8
0
10
1.808000
20
1.150000
40
0.025000
0
INSERT
8
0
2
EPAD
10
0.831000
20
2.106000
41
0.100000
42
0.100000
0
CIRCLE
8
0
10
0.831000
20
2.106000
40
0.025000
0
INSERT
8
0
2
EPAD
10
1.498000
20
-2.444000
41
0.120000
42
0.120000
0
CIRCLE
8
0
10
1.498000
20
-2.444000
40
0.030000
0
INSERT
8
0
2
EPAD
10
1.695000
20
-2.444000
41
0.120000
42
0.120000
0
CIRCLE
8
0
10
1.695000
20
-2.444000
40
0.030000
0
INSERT
8
0
2
RPAD
10
0.343000
20
0.045000
41
0.060000
42
0.060000
50
90.000000
0
CIRCLE
8
0
10
0.343000
20
0.045000
40
0.025000
0
INSERT
8
0
2
EPAD
10
0.343000
20
0.145000
41
0.070000
42
0.070000
0
CIRCLE
8
0
10
0.343000
20
0.145000
40
0.025000
0
INSERT
8
0
2
EPAD
10
0.343000
20
0.245000
41
0.070000
42
0.070000
0
CIRCLE
8
0
10
0.343000
20
0.245000
40
0.025000
0
INSERT
8
0
2
EPAD
10
0.343000
20
0.345000
41
0.070000
42
0.070000
0
CIRCLE
8
0
10
0.343000
20
0.345000
40
0.025000
0
INSERT
8
0
2
EPAD
10
0.343000
20
0.445000
41
0.070000
42
0.070000
0
CIRCLE
8
0
10
0.343000
20
0.445000
40
0.025000
0
INSERT
8
0
2
EPAD
10
0.343000
20
0.545000
41
0.070000
42
0.070000
0
CIRCLE
8
0
10
0.343000
20
0.545000
40
0.025000
0
INSERT
8
0
2
EPAD
10
0.343000
20
0.645000
41
0.070000
42
0.070000
0
CIRCLE
8
0
10
0.343000
20
0.645000
40
0.025000
0
INSERT
8
0
2
EPAD
10
0.343000
20
0.745000
41
0.070000
42
0.070000
0
CIRCLE
8
0
10
0.343000
20
0.745000
40
0.025000
0
INSERT
8
0
2
EPAD
10
0.343000
20
0.845000
41
0.070000
42
0.070000
0
CIRCLE
8
0
10
0.343000
20
0.845000
40
0.025000
0
INSERT
8
0
2
EPAD
10
0.048000
20
0.950000
41
0.080000
42
0.080000
0
CIRCLE
8
0
10
0.048000
20
0.950000
40
0.025000
0
INSERT
8
0
2
EPAD
10
0.048000
20
1.050000
41
0.080000
42
0.080000
0
CIRCLE
8
0
10
0.048000
20
1.050000
40
0.025000
0
INSERT
8
0
2
EPAD
10
-0.101000
20
0.645000
41
0.070000
42
0.070000
0
CIRCLE
8
0
10
-0.101000
20
0.645000
40
0.025000
0
INSERT
8
0
2
RPAD
10
-0.216000
20
-1.359000
41
0.080000
42
0.080000
50
90.000000
0
CIRCLE
8
0
10
-0.216000
20
-1.359000
40
0.025000
0
INSERT
8
0
2
RPAD
10
-0.216000
20
-1.259000
41
0.080000
42
0.080000
50
90.000000
0
CIRCLE
8
0
10
-0.216000
20
-1.259000
40
0.025000
0
INSERT
8
0
2
EPAD
10
-0.221000
20
-1.124000
41
0.070000
42
0.070000
0
CIRCLE
8
0
10
-0.221000
20
-1.124000
40
0.025000
0
INSERT
8
0
2
EPAD
10
0.328000
20
2.100000
41
0.070000
42
0.070000
0
CIRCLE
8
0
10
0.328000
20
2.100000
40
0.025000
0
INSERT
8
0
2
EPAD
10
0.728000
20
2.100000
41
0.070000
42
0.070000
0
CIRCLE
8
0
10
0.728000
20
2.100000
40
0.025000
0
INSERT
8
0
2
RPAD
10
0.478000
20
2.235000
41
0.080000
42
0.080000
50
0.000000
0
CIRCLE
8
0
10
0.478000
20
2.235000
40
0.025000
0
INSERT
8
0
2
RPAD
10
0.578000
20
2.235000
41
0.080000
42
0.080000
50
0.000000
0
CIRCLE
8
0
10
0.578000
20
2.235000
40
0.025000
0
INSERT
8
0
2
EPAD
10
-1.019000
20
-1.811000
41
0.070000
42
0.070000
0
CIRCLE
8
0
10
-1.019000
20
-1.811000
40
0.025000
0
INSERT
8
0
2
EPAD
10
-1.452000
20
-1.811000
41
0.070000
42
0.070000
0
CIRCLE
8
0
10
-1.452000
20
-1.811000
40
0.025000
0
INSERT
8
0
2
EPAD
10
-1.094000
20
-0.787000
41
0.080000
42
0.080000
0
CIRCLE
8
0
10
-1.094000
20
-0.787000
40
0.025000
0
INSERT
8
0
2
EPAD
10
-0.994000
20
-0.787000
41
0.080000
42
0.080000
0
CIRCLE
8
0
10
-0.994000
20
-0.787000
40
0.025000
0
INSERT
8
0
2
EPAD
10
-1.457000
20
-0.787000
41
0.070000
42
0.070000
0
CIRCLE
8
0
10
-1.457000
20
-0.787000
40
0.025000
0
INSERT
8
0
2
EPAD
10
-1.207000
20
-0.787000
41
0.070000
42
0.070000
0
CIRCLE
8
0
10
-1.207000
20
-0.787000
40
0.025000
0
INSERT
8
0
2
EPAD
10
-0.855000
20
-0.443000
41
0.120000
42
0.120000
0
CIRCLE
8
0
10
-0.855000
20
-0.443000
40
0.030000
0
INSERT
8
0
2
EPAD
10
-0.658000
20
-0.443000
41
0.120000
42
0.120000
0
CIRCLE
8
0
10
-0.658000
20
-0.443000
40
0.030000
0
INSERT
8
0
2
EPAD
10
-1.726000
20
-0.438000
41
0.120000
42
0.120000
0
CIRCLE
8
0
10
-1.726000
20
-0.438000
40
0.030000
0
INSERT
8
0
2
EPAD
10
-1.529000
20
-0.438000
41
0.120000
42
0.120000
0
CIRCLE
8
0
10
-1.529000
20
-0.438000
40
0.030000
0
INSERT
8
0
2
EPAD
10
-1.568000
20
1.480000
41
0.120000
42
0.120000
0
CIRCLE
8
0
10
-1.568000
20
1.480000
40
0.030000
0
INSERT
8
0
2
EPAD
10
-1.371000
20
1.480000
41
0.120000
42
0.120000
0
CIRCLE
8
0
10
-1.371000
20
1.480000
40
0.030000
0
INSERT
8
0
2
EPAD
10
-0.848000
20
1.480000
41
0.120000
42
0.120000
0
CIRCLE
8
0
10
-0.848000
20
1.480000
40
0.030000
0
INSERT
8
0
2
EPAD
10
-0.651000
20
1.480000
41
0.120000
42
0.120000
0
CIRCLE
8
0
10
-0.651000
20
1.480000
40
0.030000
0
INSERT
8
0
2
EPAD
10
-0.501000
20
1.055000
41
0.060000
42
0.060000
0
CIRCLE
8
0
10
-0.501000
20
1.055000
40
0.025000
0
INSERT
8
0
2
EPAD
10
-0.501000
20
0.975000
41
0.060000
42
0.060000
0
CIRCLE
8
0
10
-0.501000
20
0.975000
40
0.025000
0
INSERT
8
0
2
EPAD
10
-0.501000
20
0.895000
41
0.060000
42
0.060000
0
CIRCLE
8
0
10
-0.501000
20
0.895000
40
0.025000
0
INSERT
8
0
2
EPAD
10
-0.146000
20
1.310000
41
0.060000
42
0.060000
0
CIRCLE
8
0
10
-0.146000
20
1.310000
40
0.025000
0
INSERT
8
0
2
EPAD
10
-0.226000
20
1.310000
41
0.060000
42
0.060000
0
CIRCLE
8
0
10
-0.226000
20
1.310000
40
0.025000
0
INSERT
8
0
2
EPAD
10
-0.306000
20
1.310000
41
0.060000
42
0.060000
0
CIRCLE
8
0
10
-0.306000
20
1.310000
40
0.025000
0
INSERT
8
0
2
EPAD
10
-0.221000
20
0.555000
41
0.080000
42
0.080000
0
CIRCLE
8
0
10
-0.221000
20
0.555000
40
0.025000
0
INSERT
8
0
2
EPAD
10
-0.221000
20
1.155000
41
0.080000
42
0.080000
0
CIRCLE
8
0
10
-0.221000
20
1.155000
40
0.025000
0
INSERT
8
0
2
EPAD
10
-0.331000
20
0.365000
41
0.080000
42
0.080000
0
CIRCLE
8
0
10
-0.331000
20
0.365000
40
0.025000
0
INSERT
8
0
2
EPAD
10
-0.331000
20
0.965000
41
0.080000
42
0.080000
0
CIRCLE
8
0
10
-0.331000
20
0.965000
40
0.025000
0
INSERT
8
0
2
EPAD
10
0.463000
20
-0.084000
41
0.070000
42
0.070000
0
CIRCLE
8
0
10
0.463000
20
-0.084000
40
0.025000
0
INSERT
8
0
2
EPAD
10
0.178000
20
-0.439000
41
0.070000
42
0.070000
0
CIRCLE
8
0
10
0.178000
20
-0.439000
40
0.025000
0
INSERT
8
0
2
EPAD
10
-1.590000
20
1.732000
41
0.070000
42
0.070000
0
CIRCLE
8
0
10
-1.590000
20
1.732000
40
0.025000
0
INSERT
8
0
2
EPAD
10
-1.340000
20
1.732000
41
0.070000
42
0.070000
0
CIRCLE
8
0
10
-1.340000
20
1.732000
40
0.025000
0
INSERT
8
0
2
EPAD
10
-0.631000
20
1.732000
41
0.070000
42
0.070000
0
CIRCLE
8
0
10
-0.631000
20
1.732000
40
0.025000
0
INSERT
8
0
2
EPAD
10
-0.881000
20
1.732000
41
0.070000
42
0.070000
0
CIRCLE
8
0
10
-0.881000
20
1.732000
40
0.025000
0
INSERT
8
0
2
EPAD
10
-1.452000
20
-0.925000
41
0.070000
42
0.070000
0
CIRCLE
8
0
10
-1.452000
20
-0.925000
40
0.025000
0
INSERT
8
0
2
EPAD
10
-0.999000
20
-0.925000
41
0.070000
42
0.070000
0
CIRCLE
8
0
10
-0.999000
20
-0.925000
40
0.025000
0
INSERT
8
0
2
EPAD
10
-0.999000
20
-1.062000
41
0.070000
42
0.070000
0
CIRCLE
8
0
10
-0.999000
20
-1.062000
40
0.025000
0
INSERT
8
0
2
EPAD
10
-1.452000
20
-1.062000
41
0.070000
42
0.070000
0
CIRCLE
8
0
10
-1.452000
20
-1.062000
40
0.025000
0
INSERT
8
0
2
EPAD
10
0.588000
20
-0.929000
41
0.070000
42
0.070000
0
CIRCLE
8
0
10
0.588000
20
-0.929000
40
0.025000
0
INSERT
8
0
2
EPAD
10
0.958000
20
0.750000
41
0.070000
42
0.070000
0
CIRCLE
8
0
10
0.958000
20
0.750000
40
0.025000
0
INSERT
8
0
2
RPAD
10
1.362000
20
2.401000
41
0.080000
42
0.080000
50
90.000000
0
CIRCLE
8
0
10
1.362000
20
2.401000
40
0.025000
0
INSERT
8
0
2
RPAD
10
1.362000
20
2.501000
41
0.080000
42
0.080000
50
90.000000
0
CIRCLE
8
0
10
1.362000
20
2.501000
40
0.025000
0
INSERT
8
0
2
RPAD
10
1.461000
20
2.401000
41
0.080000
42
0.080000
50
90.000000
0
CIRCLE
8
0
10
1.461000
20
2.401000
40
0.025000
0
INSERT
8
0
2
RPAD
10
1.461000
20
2.501000
41
0.080000
42
0.080000
50
90.000000
0
CIRCLE
8
0
10
1.461000
20
2.501000
40
0.025000
0
INSERT
8
0
2
EPAD
10
1.623000
20
1.377000
41
0.070000
42
0.070000
0
CIRCLE
8
0
10
1.623000
20
1.377000
40
0.025000
0
INSERT
8
0
2
EPAD
10
1.621000
20
2.093000
41
0.070000
42
0.070000
0
CIRCLE
8
0
10
1.621000
20
2.093000
40
0.025000
0
INSERT
8
0
2
RPAD
10
1.146000
20
2.401000
41
0.080000
42
0.080000
50
90.000000
0
CIRCLE
8
0
10
1.146000
20
2.401000
40
0.025000
0
INSERT
8
0
2
RPAD
10
1.146000
20
2.501000
41
0.080000
42
0.080000
50
90.000000
0
CIRCLE
8
0
10
1.146000
20
2.501000
40
0.025000
0
INSERT
8
0
2
RPAD
10
1.244000
20
2.401000
41
0.080000
42
0.080000
50
90.000000
0
CIRCLE
8
0
10
1.244000
20
2.401000
40
0.025000
0
INSERT
8
0
2
RPAD
10
1.244000
20
2.501000
41
0.080000
42
0.080000
50
90.000000
0
CIRCLE
8
0
10
1.244000
20
2.501000
40
0.025000
0
INSERT
8
0
2
EPAD
10
1.165000
20
0.137000
41
0.070000
42
0.070000
0
CIRCLE
8
0
10
1.165000
20
0.137000
40
0.025000
0
INSERT
8
0
2
EPAD
10
1.283000
20
2.185000
41
0.070000
42
0.070000
0
CIRCLE
8
0
10
1.283000
20
2.185000
40
0.025000
0
INSERT
8
0
2
EPAD
10
0.063000
20
1.535000
41
0.070000
42
0.070000
0
CIRCLE
8
0
10
0.063000
20
1.535000
40
0.025000
0
INSERT
8
0
2
EPAD
10
0.463000
20
1.535000
41
0.070000
42
0.070000
0
CIRCLE
8
0
10
0.463000
20
1.535000
40
0.025000
0
INSERT
8
0
2
RPAD
10
0.063000
20
1.397000
41
0.080000
42
0.080000
50
270.000000
0
CIRCLE
8
0
10
0.063000
20
1.397000
40
0.025000
0
INSERT
8
0
2
RPAD
10
0.063000
20
1.297000
41
0.080000
42
0.080000
50
270.000000
0
CIRCLE
8
0
10
0.063000
20
1.297000
40
0.025000
0
INSERT
8
0
2
RPAD
10
0.348000
20
1.045000
41
0.080000
42
0.080000
50
90.000000
0
CIRCLE
8
0
10
0.348000
20
1.045000
40
0.025000
0
INSERT
8
0
2
RPAD
10
0.348000
20
1.145000
41
0.080000
42
0.080000
50
90.000000
0
CIRCLE
8
0
10
0.348000
20
1.145000
40
0.025000
0
INSERT
8
0
2
RPAD
10
0.348000
20
1.245000
41
0.080000
42
0.080000
50
90.000000
0
CIRCLE
8
0
10
0.348000
20
1.245000
40
0.025000
0
INSERT
8
0
2
RPAD
10
0.348000
20
1.345000
41
0.080000
42
0.080000
50
90.000000
0
CIRCLE
8
0
10
0.348000
20
1.345000
40
0.025000
0
INSERT
8
0
2
EPAD
10
-1.266000
20
-0.534000
41
0.080000
42
0.080000
0
CIRCLE
8
0
10
-1.266000
20
-0.534000
40
0.025000
0
INSERT
8
0
2
EPAD
10
-1.266000
20
-0.134000
41
0.080000
42
0.080000
0
CIRCLE
8
0
10
-1.266000
20
-0.134000
40
0.025000
0
INSERT
8
0
2
EPAD
10
-0.371000
20
-0.554000
41
0.080000
42
0.080000
0
CIRCLE
8
0
10
-0.371000
20
-0.554000
40
0.025000
0
INSERT
8
0
2
EPAD
10
-0.371000
20
-0.154000
41
0.080000
42
0.080000
0
CIRCLE
8
0
10
-0.371000
20
-0.154000
40
0.025000
0
INSERT
8
0
2
EPAD
10
0.768000
20
-0.129000
41
0.070000
42
0.070000
0
CIRCLE
8
0
10
0.768000
20
-0.129000
40
0.025000
0
INSERT
8
0
2
EPAD
10
0.768000
20
-0.029000
41
0.070000
42
0.070000
0
CIRCLE
8
0
10
0.768000
20
-0.029000
40
0.025000
0
INSERT
8
0
2
EPAD
10
1.083000
20
-0.254000
41
0.070000
42
0.070000
0
CIRCLE
8
0
10
1.083000
20
-0.254000
40
0.025000
0
INSERT
8
0
2
EPAD
10
1.083000
20
-0.154000
41
0.070000
42
0.070000
0
CIRCLE
8
0
10
1.083000
20
-0.154000
40
0.025000
0
INSERT
8
0
2
EPAD
10
0.968000
20
0.025000
41
0.070000
42
0.070000
0
CIRCLE
8
0
10
0.968000
20
0.025000
40
0.025000
0
INSERT
8
0
2
EPAD
10
0.963000
20
-0.189000
41
0.070000
42
0.070000
0
CIRCLE
8
0
10
0.963000
20
-0.189000
40
0.025000
0
INSERT
8
0
2
RPAD
10
1.398000
20
2.185000
41
0.100000
42
0.100000
50
0.000000
0
CIRCLE
8
0
10
1.398000
20
2.185000
40
0.030000
0
INSERT
8
0
2
RPAD
10
1.193000
20
0.030000
41
0.100000
42
0.100000
50
0.000000
0
CIRCLE
8
0
10
1.193000
20
0.030000
40
0.030000
0
INSERT
8
0
2
RPAD
10
-0.386000
20
2.410000
41
0.080000
42
0.080000
50
90.000000
0
CIRCLE
8
0
10
-0.386000
20
2.410000
40
0.025000
0
INSERT
8
0
2
RPAD
10
-0.386000
20
2.510000
41
0.080000
42
0.080000
50
90.000000
0
CIRCLE
8
0
10
-0.386000
20
2.510000
40
0.025000
0
POLYLINE
8
0
66
1
40
0.008000
41
0.008000
0
VERTEX
8
0
10
-1.913000
20
-2.657000
0
VERTEX
8
0
10
1.913000
20
-2.657000
0
VERTEX
8
0
10
1.913000
20
2.657000
0
VERTEX
8
0
10
-1.913000
20
2.657000
0
VERTEX
8
0
10
-1.913000
20
-2.657000
0
SEQEND
8
0
0
POLYLINE
8
0
66
1
40
0.008000
41
0.008000
0
VERTEX
8
0
10
-0.056000
20
-2.240000
0
VERTEX
8
0
10
-0.056000
20
-2.640000
0
SEQEND
8
0
0
POLYLINE
8
0
66
1
40
0.008000
41
0.008000
0
VERTEX
8
0
10
0.743000
20
-2.240000
0
VERTEX
8
0
10
0.743000
20
-2.640000
0
VERTEX
8
0
10
-0.056000
20
-2.640000
0
SEQEND
8
0
0
POLYLINE
8
0
66
1
40
0.008000
41
0.008000
0
VERTEX
8
0
10
-0.056000
20
-2.240000
0
VERTEX
8
0
10
0.743000
20
-2.240000
0
SEQEND
8
0
0
POLYLINE
8
0
66
1
40
0.008000
41
0.008000
0
VERTEX
8
0
10
-1.512000
20
-2.240000
0
VERTEX
8
0
10
-1.512000
20
-2.640000
0
SEQEND
8
0
0
POLYLINE
8
0
66
1
40
0.008000
41
0.008000
0
VERTEX
8
0
10
-0.712000
20
-2.240000
0
VERTEX
8
0
10
-0.712000
20
-2.640000
0
VERTEX
8
0
10
-1.512000
20
-2.640000
0
SEQEND
8
0
0
POLYLINE
8
0
66
1
40
0.008000
41
0.008000
0
VERTEX
8
0
10
-1.512000
20
-2.240000
0
VERTEX
8
0
10
-0.712000
20
-2.240000
0
SEQEND
8
0
0
POLYLINE
8
0
66
1
40
0.008000
41
0.008000
0
VERTEX
8
0
10
1.886000
20
-0.848000
0
VERTEX
8
0
10
1.586000
20
-0.848000
0
SEQEND
8
0
0
POLYLINE
8
0
66
1
40
0.008000
41
0.008000
0
VERTEX
8
0
10
1.586000
20
-0.448000
0
VERTEX
8
0
10
1.886000
20
-0.448000
0
SEQEND
8
0
0
POLYLINE
8
0
66
1
40
0.008000
41
0.008000
0
VERTEX
8
0
10
1.886000
20
-0.848000
0
VERTEX
8
0
10
1.886000
20
-0.448000
0
SEQEND
8
0
0
POLYLINE
8
0
66
1
40
0.008000
41
0.008000
0
VERTEX
8
0
10
1.586000
20
-0.848000
0
VERTEX
8
0
10
1.586000
20
-0.448000
0
SEQEND
8
0
0
POLYLINE
8
0
66
1
40
0.008000
41
0.008000
0
VERTEX
8
0
10
1.886000
20
-0.218000
0
VERTEX
8
0
10
1.586000
20
-0.218000
0
SEQEND
8
0
0
POLYLINE
8
0
66
1
40
0.008000
41
0.008000
0
VERTEX
8
0
10
1.586000
20
0.181000
0
VERTEX
8
0
10
1.886000
20
0.181000
0
SEQEND
8
0
0
POLYLINE
8
0
66
1
40
0.008000
41
0.008000
0
VERTEX
8
0
10
1.886000
20
-0.218000
0
VERTEX
8
0
10
1.886000
20
0.181000
0
SEQEND
8
0
0
POLYLINE
8
0
66
1
40
0.008000
41
0.008000
0
VERTEX
8
0
10
1.586000
20
-0.218000
0
VERTEX
8
0
10
1.586000
20
0.181000
0
SEQEND
8
0
0
POLYLINE
8
0
66
1
40
0.008000
41
0.008000
0
VERTEX
8
0
10
0.437000
20
-2.095000
0
VERTEX
8
0
10
0.437000
20
-2.045000
0
SEQEND
8
0
0
POLYLINE
8
0
66
1
40
0.008000
41
0.008000
0
VERTEX
8
0
10
0.412000
20
-2.045000
0
VERTEX
8
0
10
0.462000
20
-2.045000
0
VERTEX
8
0
10
0.462000
20
-1.845000
0
VERTEX
8
0
10
0.412000
20
-1.845000
0
VERTEX
8
0
10
0.412000
20
-2.045000
0
SEQEND
8
0
0
POLYLINE
8
0
66
1
40
0.008000
41
0.008000
0
VERTEX
8
0
10
0.437000
20
-1.845000
0
VERTEX
8
0
10
0.437000
20
-1.795000
0
SEQEND
8
0
0
POLYLINE
8
0
66
1
40
0.008000
41
0.008000
0
VERTEX
8
0
10
0.437000
20
-1.544000
0
VERTEX
8
0
10
0.437000
20
-1.494000
0
SEQEND
8
0
0
POLYLINE
8
0
66
1
40
0.008000
41
0.008000
0
VERTEX
8
0
10
0.412000
20
-1.494000
0
VERTEX
8
0
10
0.462000
20
-1.494000
0
VERTEX
8
0
10
0.462000
20
-1.294000
0
VERTEX
8
0
10
0.412000
20
-1.294000
0
VERTEX
8
0
10
0.412000
20
-1.494000
0
SEQEND
8
0
0
POLYLINE
8
0
66
1
40
0.008000
41
0.008000
0
VERTEX
8
0
10
0.437000
20
-1.294000
0
VERTEX
8
0
10
0.437000
20
-1.244000
0
SEQEND
8
0
0
POLYLINE
8
0
66
1
40
0.008000
41
0.008000
0
VERTEX
8
0
10
0.240000
20
-2.095000
0
VERTEX
8
0
10
0.240000
20
-2.045000
0
SEQEND
8
0
0
POLYLINE
8
0
66
1
40
0.008000
41
0.008000
0
VERTEX
8
0
10
0.215000
20
-2.045000
0
VERTEX
8
0
10
0.265000
20
-2.045000
0
VERTEX
8
0
10
0.265000
20
-1.845000
0
VERTEX
8
0
10
0.215000
20
-1.845000
0
VERTEX
8
0
10
0.215000
20
-2.045000
0
SEQEND
8
0
0
POLYLINE
8
0
66
1
40
0.008000
41
0.008000
0
VERTEX
8
0
10
0.240000
20
-1.845000
0
VERTEX
8
0
10
0.240000
20
-1.795000
0
SEQEND
8
0
0
POLYLINE
8
0
66
1
40
0.008000
41
0.008000
0
VERTEX
8
0
10
0.240000
20
-1.544000
0
VERTEX
8
0
10
0.240000
20
-1.494000
0
SEQEND
8
0
0
POLYLINE
8
0
66
1
40
0.008000
41
0.008000
0
VERTEX
8
0
10
0.215000
20
-1.494000
0
VERTEX
8
0
10
0.265000
20
-1.494000
0
VERTEX
8
0
10
0.265000
20
-1.294000
0
VERTEX
8
0
10
0.215000
20
-1.294000
0
VERTEX
8
0
10
0.215000
20
-1.494000
0
SEQEND
8
0
0
POLYLINE
8
0
66
1
40
0.008000
41
0.008000
0
VERTEX
8
0
10
0.240000
20
-1.294000
0
VERTEX
8
0
10
0.240000
20
-1.244000
0
SEQEND
8
0
0
POLYLINE
8
0
66
1
40
0.008000
41
0.008000
0
VERTEX
8
0
10
0.043000
20
-2.095000
0
VERTEX
8
0
10
0.043000
20
-2.045000
0
SEQEND
8
0
0
POLYLINE
8
0
66
1
40
0.008000
41
0.008000
0
VERTEX
8
0
10
0.018000
20
-2.045000
0
VERTEX
8
0
10
0.068000
20
-2.045000
0
VERTEX
8
0
10
0.068000
20
-1.845000
0
VERTEX
8
0
10
0.018000
20
-1.845000
0
VERTEX
8
0
10
0.018000
20
-2.045000
0
SEQEND
8
0
0
POLYLINE
8
0
66
1
40
0.008000
41
0.008000
0
VERTEX
8
0
10
0.043000
20
-1.845000
0
VERTEX
8
0
10
0.043000
20
-1.795000
0
SEQEND
8
0
0
POLYLINE
8
0
66
1
40
0.008000
41
0.008000
0
VERTEX
8
0
10
0.043000
20
-1.544000
0
VERTEX
8
0
10
0.043000
20
-1.494000
0
SEQEND
8
0
0
POLYLINE
8
0
66
1
40
0.008000
41
0.008000
0
VERTEX
8
0
10
0.018000
20
-1.494000
0
VERTEX
8
0
10
0.068000
20
-1.494000
0
VERTEX
8
0
10
0.068000
20
-1.294000
0
VERTEX
8
0
10
0.018000
20
-1.294000
0
VERTEX
8
0
10
0.018000
20
-1.494000
0
SEQEND
8
0
0
POLYLINE
8
0
66
1
40
0.008000
41
0.008000
0
VERTEX
8
0
10
0.043000
20
-1.294000
0
VERTEX
8
0
10
0.043000
20
-1.244000
0
SEQEND
8
0
0
POLYLINE
8
0
66
1
40
0.008000
41
0.008000
0
VERTEX
8
0
10
0.605000
20
-1.673000
0
VERTEX
8
0
10
0.655000
20
-1.673000
0
SEQEND
8
0
0
POLYLINE
8
0
66
1
40
0.008000
41
0.008000
0
VERTEX
8
0
10
0.655000
20
-1.648000
0
VERTEX
8
0
10
0.655000
20
-1.698000
0
SEQEND
8
0
0
POLYLINE
8
0
66
1
40
0.008000
41
0.008000
0
VERTEX
8
0
10
0.655000
20
-1.648000
0
VERTEX
8
0
10
0.705000
20
-1.673000
0
SEQEND
8
0
0
POLYLINE
8
0
66
1
40
0.008000
41
0.008000
0
VERTEX
8
0
10
0.655000
20
-1.698000
0
VERTEX
8
0
10
0.705000
20
-1.673000
0
SEQEND
8
0
0
POLYLINE
8
0
66
1
40
0.008000
41
0.008000
0
VERTEX
8
0
10
0.705000
20
-1.648000
0
VERTEX
8
0
10
0.705000
20
-1.698000
0
SEQEND
8
0
0
POLYLINE
8
0
66
1
40
0.008000
41
0.008000
0
VERTEX
8
0
10
0.705000
20
-1.673000
0
VERTEX
8
0
10
0.755000
20
-1.673000
0
SEQEND
8
0
0
POLYLINE
8
0
66
1
40
0.008000
41
0.008000
0
VERTEX
8
0
10
0.605000
20
-1.397000
0
VERTEX
8
0
10
0.655000
20
-1.397000
0
SEQEND
8
0
0
POLYLINE
8
0
66
1
40
0.008000
41
0.008000
0
VERTEX
8
0
10
0.655000
20
-1.372000
0
VERTEX
8
0
10
0.655000
20
-1.422000
0
SEQEND
8
0
0
POLYLINE
8
0
66
1
40
0.008000
41
0.008000
0
VERTEX
8
0
10
0.655000
20
-1.372000
0
VERTEX
8
0
10
0.705000
20
-1.397000
0
SEQEND
8
0
0
POLYLINE
8
0
66
1
40
0.008000
41
0.008000
0
VERTEX
8
0
10
0.655000
20
-1.422000
0
VERTEX
8
0
10
0.705000
20
-1.397000
0
SEQEND
8
0
0
POLYLINE
8
0
66
1
40
0.008000
41
0.008000
0
VERTEX
8
0
10
0.705000
20
-1.372000
0
VERTEX
8
0
10
0.705000
20
-1.422000
0
SEQEND
8
0
0
POLYLINE
8
0
66
1
40
0.008000
41
0.008000
0
VERTEX
8
0
10
0.705000
20
-1.397000
0
VERTEX
8
0
10
0.755000
20
-1.397000
0
SEQEND
8
0
0
POLYLINE
8
0
66
1
40
0.008000
41
0.008000
0
VERTEX
8
0
10
0.605000
20
-1.948000
0
VERTEX
8
0
10
0.655000
20
-1.948000
0
SEQEND
8
0
0
POLYLINE
8
0
66
1
40
0.008000
41
0.008000
0
VERTEX
8
0
10
0.655000
20
-1.923000
0
VERTEX
8
0
10
0.655000
20
-1.973000
0
SEQEND
8
0
0
POLYLINE
8
0
66
1
40
0.008000
41
0.008000
0
VERTEX
8
0
10
0.655000
20
-1.923000
0
VERTEX
8
0
10
0.705000
20
-1.948000
0
SEQEND
8
0
0
POLYLINE
8
0
66
1
40
0.008000
41
0.008000
0
VERTEX
8
0
10
0.655000
20
-1.973000
0
VERTEX
8
0
10
0.705000
20
-1.948000
0
SEQEND
8
0
0
POLYLINE
8
0
66
1
40
0.008000
41
0.008000
0
VERTEX
8
0
10
0.705000
20
-1.923000
0
VERTEX
8
0
10
0.705000
20
-1.973000
0
SEQEND
8
0
0
POLYLINE
8
0
66
1
40
0.008000
41
0.008000
0
VERTEX
8
0
10
0.705000
20
-1.948000
0
VERTEX
8
0
10
0.755000
20
-1.948000
0
SEQEND
8
0
0
CIRCLE
8
12632256
10
1.028000
20
-1.898000
40
0.125000
0
CIRCLE
8
12632256
10
1.028000
20
-1.623000
40
0.125000
0
CIRCLE
8
12632256
10
1.028000
20
-1.347000
40
0.125000
0
POLYLINE
8
0
66
1
40
0.008000
41
0.008000
0
VERTEX
8
0
10
1.444000
20
-1.268000
0
VERTEX
8
0
10
1.494000
20
-1.268000
0
SEQEND
8
0
0
POLYLINE
8
0
66
1
40
0.008000
41
0.008000
0
VERTEX
8
0
10
1.294000
20
-1.268000
0
VERTEX
8
0
10
1.344000
20
-1.268000
0
SEQEND
8
0
0
POLYLINE
8
0
66
1
40
0.008000
41
0.008000
0
VERTEX
8
0
10
1.394000
20
-1.318000
0
VERTEX
8
0
10
1.404000
20
-1.317000
0
VERTEX
8
0
10
1.414000
20
-1.314000
0
VERTEX
8
0
10
1.422000
20
-1.310000
0
VERTEX
8
0
10
1.430000
20
-1.304000
0
VERTEX
8
0
10
1.436000
20
-1.297000
0
VERTEX
8
0
10
1.440000
20
-1.288000
0
VERTEX
8
0
10
1.443000
20
-1.278000
0
VERTEX
8
0
10
1.444000
20
-1.268000
0
SEQEND
8
0
0
POLYLINE
8
0
66
1
40
0.008000
41
0.008000
0
VERTEX
8
0
10
1.394000
20
-1.318000
0
VERTEX
8
0
10
1.384000
20
-1.317000
0
VERTEX
8
0
10
1.374000
20
-1.314000
0
VERTEX
8
0
10
1.365000
20
-1.310000
0
VERTEX
8
0
10
1.358000
20
-1.304000
0
VERTEX
8
0
10
1.352000
20
-1.297000
0
VERTEX
8
0
10
1.348000
20
-1.288000
0
VERTEX
8
0
10
1.345000
20
-1.278000
0
VERTEX
8
0
10
1.344000
20
-1.268000
0
SEQEND
8
0
0
POLYLINE
8
0
66
1
40
0.008000
41
0.008000
0
VERTEX
8
0
10
1.294000
20
-1.268000
0
VERTEX
8
0
10
1.294000
20
-1.968000
0
VERTEX
8
0
10
1.494000
20
-1.968000
0
VERTEX
8
0
10
1.494000
20
-1.268000
0
SEQEND
8
0
0
POLYLINE
8
0
66
1
40
0.008000
41
0.008000
0
VERTEX
8
0
10
0.702000
20
-0.882000
0
VERTEX
8
0
10
0.702000
20
-0.832000
0
SEQEND
8
0
0
POLYLINE
8
0
66
1
40
0.008000
41
0.008000
0
VERTEX
8
0
10
0.702000
20
-1.032000
0
VERTEX
8
0
10
0.702000
20
-0.982000
0
SEQEND
8
0
0
POLYLINE
8
0
66
1
40
0.008000
41
0.008000
0
VERTEX
8
0
10
0.752000
20
-0.932000
0
VERTEX
8
0
10
0.751000
20
-0.922000
0
VERTEX
8
0
10
0.748000
20
-0.912000
0
VERTEX
8
0
10
0.744000
20
-0.904000
0
VERTEX
8
0
10
0.738000
20
-0.896000
0
VERTEX
8
0
10
0.731000
20
-0.890000
0
VERTEX
8
0
10
0.722000
20
-0.886000
0
VERTEX
8
0
10
0.712000
20
-0.883000
0
VERTEX
8
0
10
0.702000
20
-0.882000
0
SEQEND
8
0
0
POLYLINE
8
0
66
1
40
0.008000
41
0.008000
0
VERTEX
8
0
10
0.752000
20
-0.932000
0
VERTEX
8
0
10
0.751000
20
-0.942000
0
VERTEX
8
0
10
0.748000
20
-0.952000
0
VERTEX
8
0
10
0.744000
20
-0.961000
0
VERTEX
8
0
10
0.738000
20
-0.968000
0
VERTEX
8
0
10
0.731000
20
-0.974000
0
VERTEX
8
0
10
0.722000
20
-0.978000
0
VERTEX
8
0
10
0.712000
20
-0.981000
0
VERTEX
8
0
10
0.702000
20
-0.982000
0
SEQEND
8
0
0
POLYLINE
8
0
66
1
40
0.008000
41
0.008000
0
VERTEX
8
0
10
0.702000
20
-1.032000
0
VERTEX
8
0
10
1.402000
20
-1.032000
0
VERTEX
8
0
10
1.402000
20
-0.832000
0
VERTEX
8
0
10
0.702000
20
-0.832000
0
SEQEND
8
0
0
POLYLINE
8
0
66
1
40
0.008000
41
0.008000
0
VERTEX
8
0
10
1.638000
20
-1.367000
0
VERTEX
8
0
10
1.638000
20
-1.317000
0
SEQEND
8
0
0
POLYLINE
8
0
66
1
40
0.008000
41
0.008000
0
VERTEX
8
0
10
1.613000
20
-1.317000
0
VERTEX
8
0
10
1.663000
20
-1.317000
0
VERTEX
8
0
10
1.663000
20
-1.117000
0
VERTEX
8
0
10
1.613000
20
-1.117000
0
VERTEX
8
0
10
1.613000
20
-1.317000
0
SEQEND
8
0
0
POLYLINE
8
0
66
1
40
0.008000
41
0.008000
0
VERTEX
8
0
10
1.638000
20
-1.117000
0
VERTEX
8
0
10
1.638000
20
-1.067000
0
SEQEND
8
0
0
POLYLINE
8
0
66
1
40
0.008000
41
0.008000
0
VERTEX
8
0
10
1.756000
20
-1.367000
0
VERTEX
8
0
10
1.756000
20
-1.317000
0
SEQEND
8
0
0
POLYLINE
8
0
66
1
40
0.008000
41
0.008000
0
VERTEX
8
0
10
1.731000
20
-1.317000
0
VERTEX
8
0
10
1.781000
20
-1.317000
0
VERTEX
8
0
10
1.781000
20
-1.117000
0
VERTEX
8
0
10
1.731000
20
-1.117000
0
VERTEX
8
0
10
1.731000
20
-1.317000
0
SEQEND
8
0
0
POLYLINE
8
0
66
1
40
0.008000
41
0.008000
0
VERTEX
8
0
10
1.756000
20
-1.117000
0
VERTEX
8
0
10
1.756000
20
-1.067000
0
SEQEND
8
0
0
POLYLINE
8
0
66
1
40
0.008000
41
0.008000
0
VERTEX
8
0
10
1.411000
20
-0.688000
0
VERTEX
8
0
10
1.361000
20
-0.688000
0
SEQEND
8
0
0
POLYLINE
8
0
66
1
40
0.008000
41
0.008000
0
VERTEX
8
0
10
1.161000
20
-0.713000
0
VERTEX
8
0
10
1.361000
20
-0.713000
0
VERTEX
8
0
10
1.361000
20
-0.663000
0
VERTEX
8
0
10
1.161000
20
-0.663000
0
VERTEX
8
0
10
1.161000
20
-0.713000
0
SEQEND
8
0
0
POLYLINE
8
0
66
1
40
0.008000
41
0.008000
0
VERTEX
8
0
10
1.161000
20
-0.688000
0
VERTEX
8
0
10
1.111000
20
-0.688000
0
SEQEND
8
0
0
POLYLINE
8
0
66
1
40
0.008000
41
0.008000
0
VERTEX
8
0
10
0.283000
20
-1.080000
0
VERTEX
8
0
10
0.433000
20
-1.080000
0
VERTEX
8
0
10
0.433000
20
-0.730000
0
VERTEX
8
0
10
0.283000
20
-0.730000
0
VERTEX
8
0
10
0.283000
20
-1.080000
0
SEQEND
8
0
0
CIRCLE
8
12632256
10
0.333000
20
-1.030000
40
0.035000
0
POLYLINE
8
0
66
1
40
0.008000
41
0.008000
0
VERTEX
8
0
10
0.358000
20
-1.055000
0
VERTEX
8
0
10
0.308000
20
-1.005000
0
SEQEND
8
0
0
POLYLINE
8
0
66
1
40
0.008000
41
0.008000
0
VERTEX
8
0
10
0.240000
20
-0.738000
0
VERTEX
8
0
10
0.240000
20
-0.788000
0
SEQEND
8
0
0
POLYLINE
8
0
66
1
40
0.008000
41
0.008000
0
VERTEX
8
0
10
0.215000
20
-0.988000
0
VERTEX
8
0
10
0.265000
20
-0.988000
0
VERTEX
8
0
10
0.265000
20
-0.788000
0
VERTEX
8
0
10
0.215000
20
-0.788000
0
VERTEX
8
0
10
0.215000
20
-0.988000
0
SEQEND
8
0
0
POLYLINE
8
0
66
1
40
0.008000
41
0.008000
0
VERTEX
8
0
10
0.240000
20
-0.988000
0
VERTEX
8
0
10
0.240000
20
-1.038000
0
SEQEND
8
0
0
POLYLINE
8
0
66
1
40
0.008000
41
0.008000
0
VERTEX
8
0
10
0.718000
20
0.126000
0
VERTEX
8
0
10
0.718000
20
1.476000
0
VERTEX
8
0
10
0.518000
20
1.476000
0
VERTEX
8
0
10
0.518000
20
0.126000
0
SEQEND
8
0
0
POLYLINE
8
0
66
1
40
0.008000
41
0.008000
0
VERTEX
8
0
10
0.718000
20
0.126000
0
VERTEX
8
0
10
0.668000
20
0.126000
0
SEQEND
8
0
0
POLYLINE
8
0
66
1
40
0.008000
41
0.008000
0
VERTEX
8
0
10
0.518000
20
0.126000
0
VERTEX
8
0
10
0.568000
20
0.126000
0
SEQEND
8
0
0
POLYLINE
8
0
66
1
40
0.008000
41
0.008000
0
VERTEX
8
0
10
0.668000
20
0.126000
0
VERTEX
8
0
10
0.667000
20
0.136000
0
VERTEX
8
0
10
0.664000
20
0.146000
0
VERTEX
8
0
10
0.660000
20
0.154000
0
VERTEX
8
0
10
0.654000
20
0.162000
0
VERTEX
8
0
10
0.646000
20
0.168000
0
VERTEX
8
0
10
0.638000
20
0.172000
0
VERTEX
8
0
10
0.628000
20
0.175000
0
VERTEX
8
0
10
0.618000
20
0.176000
0
SEQEND
8
0
0
POLYLINE
8
0
66
1
40
0.008000
41
0.008000
0
VERTEX
8
0
10
0.568000
20
0.126000
0
VERTEX
8
0
10
0.569000
20
0.136000
0
VERTEX
8
0
10
0.572000
20
0.146000
0
VERTEX
8
0
10
0.576000
20
0.154000
0
VERTEX
8
0
10
0.582000
20
0.162000
0
VERTEX
8
0
10
0.590000
20
0.168000
0
VERTEX
8
0
10
0.598000
20
0.172000
0
VERTEX
8
0
10
0.608000
20
0.175000
0
VERTEX
8
0
10
0.618000
20
0.176000
0
SEQEND
8
0
0
CIRCLE
8
12632256
10
0.702000
20
0.146000
40
0.002000
0
POLYLINE
8
0
66
1
40
0.008000
41
0.008000
0
VERTEX
8
0
10
0.873000
20
-0.214000
0
VERTEX
8
0
10
0.873000
20
-0.164000
0
SEQEND
8
0
0
POLYLINE
8
0
66
1
40
0.008000
41
0.008000
0
VERTEX
8
0
10
0.848000
20
-0.164000
0
VERTEX
8
0
10
0.898000
20
-0.164000
0
VERTEX
8
0
10
0.898000
20
0.035000
0
VERTEX
8
0
10
0.848000
20
0.035000
0
VERTEX
8
0
10
0.848000
20
-0.164000
0
SEQEND
8
0
0
POLYLINE
8
0
66
1
40
0.008000
41
0.008000
0
VERTEX
8
0
10
0.873000
20
0.035000
0
VERTEX
8
0
10
0.873000
20
0.085000
0
SEQEND
8
0
0
POLYLINE
8
0
66
1
40
0.008000
41
0.008000
0
VERTEX
8
0
10
-0.406000
20
-1.964000
0
VERTEX
8
0
10
-0.356000
20
-1.964000
0
SEQEND
8
0
0
POLYLINE
8
0
66
1
40
0.008000
41
0.008000
0
VERTEX
8
0
10
-0.356000
20
-1.939000
0
VERTEX
8
0
10
-0.356000
20
-1.989000
0
SEQEND
8
0
0
POLYLINE
8
0
66
1
40
0.008000
41
0.008000
0
VERTEX
8
0
10
-0.356000
20
-1.939000
0
VERTEX
8
0
10
-0.306000
20
-1.964000
0
SEQEND
8
0
0
POLYLINE
8
0
66
1
40
0.008000
41
0.008000
0
VERTEX
8
0
10
-0.356000
20
-1.989000
0
VERTEX
8
0
10
-0.306000
20
-1.964000
0
SEQEND
8
0
0
POLYLINE
8
0
66
1
40
0.008000
41
0.008000
0
VERTEX
8
0
10
-0.306000
20
-1.939000
0
VERTEX
8
0
10
-0.306000
20
-1.989000
0
SEQEND
8
0
0
POLYLINE
8
0
66
1
40
0.008000
41
0.008000
0
VERTEX
8
0
10
-0.306000
20
-1.964000
0
VERTEX
8
0
10
-0.256000
20
-1.964000
0
SEQEND
8
0
0
CIRCLE
8
12632256
10
-0.151000
20
-2.194000
40
0.125000
0
POLYLINE
8
0
66
1
40
0.008000
41
0.008000
0
VERTEX
8
0
10
-0.041000
20
-1.739000
0
VERTEX
8
0
10
-0.291000
20
-1.739000
0
SEQEND
8
0
0
POLYLINE
8
0
66
1
40
0.008000
41
0.008000
0
VERTEX
8
0
10
-0.041000
20
-1.739000
0
VERTEX
8
0
10
-0.041000
20
-1.689000
0
VERTEX
8
0
10
-0.042000
20
-1.679000
0
VERTEX
8
0
10
-0.045000
20
-1.669000
0
VERTEX
8
0
10
-0.050000
20
-1.661000
0
VERTEX
8
0
10
-0.056000
20
-1.654000
0
VERTEX
8
0
10
-0.063000
20
-1.647000
0
VERTEX
8
0
10
-0.071000
20
-1.643000
0
VERTEX
8
0
10
-0.081000
20
-1.640000
0
VERTEX
8
0
10
-0.091000
20
-1.639000
0
SEQEND
8
0
0
POLYLINE
8
0
66
1
40
0.008000
41
0.008000
0
VERTEX
8
0
10
-0.291000
20
-1.689000
0
VERTEX
8
0
10
-0.290000
20
-1.679000
0
VERTEX
8
0
10
-0.287000
20
-1.669000
0
VERTEX
8
0
10
-0.282000
20
-1.661000
0
VERTEX
8
0
10
-0.276000
20
-1.654000
0
VERTEX
8
0
10
-0.269000
20
-1.647000
0
VERTEX
8
0
10
-0.261000
20
-1.643000
0
VERTEX
8
0
10
-0.251000
20
-1.640000
0
VERTEX
8
0
10
-0.241000
20
-1.639000
0
SEQEND
8
0
0
POLYLINE
8
0
66
1
40
0.008000
41
0.008000
0
VERTEX
8
0
10
-0.291000
20
-1.739000
0
VERTEX
8
0
10
-0.291000
20
-1.689000
0
SEQEND
8
0
0
POLYLINE
8
0
66
1
40
0.008000
41
0.008000
0
VERTEX
8
0
10
-0.241000
20
-1.639000
0
VERTEX
8
0
10
-0.091000
20
-1.639000
0
SEQEND
8
0
0
POLYLINE
8
0
66
1
40
0.008000
41
0.008000
0
VERTEX
8
0
10
-0.566000
20
-1.869000
0
VERTEX
8
0
10
-0.616000
20
-1.869000
0
VERTEX
8
0
10
-0.616000
20
-1.669000
0
VERTEX
8
0
10
-0.416000
20
-1.669000
0
VERTEX
8
0
10
-0.416000
20
-1.869000
0
VERTEX
8
0
10
-0.466000
20
-1.869000
0
SEQEND
8
0
0
POLYLINE
8
0
66
1
40
0.008000
41
0.008000
0
VERTEX
8
0
10
-0.516000
20
-1.819000
0
VERTEX
8
0
10
-0.526000
20
-1.820000
0
VERTEX
8
0
10
-0.536000
20
-1.823000
0
VERTEX
8
0
10
-0.544000
20
-1.827000
0
VERTEX
8
0
10
-0.552000
20
-1.833000
0
VERTEX
8
0
10
-0.558000
20
-1.840000
0
VERTEX
8
0
10
-0.562000
20
-1.849000
0
VERTEX
8
0
10
-0.565000
20
-1.859000
0
VERTEX
8
0
10
-0.566000
20
-1.869000
0
SEQEND
8
0
0
POLYLINE
8
0
66
1
40
0.008000
41
0.008000
0
VERTEX
8
0
10
-0.516000
20
-1.819000
0
VERTEX
8
0
10
-0.506000
20
-1.820000
0
VERTEX
8
0
10
-0.496000
20
-1.823000
0
VERTEX
8
0
10
-0.487000
20
-1.827000
0
VERTEX
8
0
10
-0.480000
20
-1.833000
0
VERTEX
8
0
10
-0.474000
20
-1.840000
0
VERTEX
8
0
10
-0.470000
20
-1.849000
0
VERTEX
8
0
10
-0.467000
20
-1.859000
0
VERTEX
8
0
10
-0.466000
20
-1.869000
0
SEQEND
8
0
0
POLYLINE
8
0
66
1
40
0.008000
41
0.008000
0
VERTEX
8
0
10
-0.966000
20
-2.051000
0
VERTEX
8
0
10
-0.916000
20
-2.051000
0
SEQEND
8
0
0
POLYLINE
8
0
66
1
40
0.008000
41
0.008000
0
VERTEX
8
0
10
-0.916000
20
-2.101000
0
VERTEX
8
0
10
-0.516000
20
-2.101000
0
VERTEX
8
0
10
-0.516000
20
-2.001000
0
VERTEX
8
0
10
-0.916000
20
-2.001000
0
VERTEX
8
0
10
-0.916000
20
-2.101000
0
SEQEND
8
0
0
POLYLINE
8
0
66
1
40
0.008000
41
0.008000
0
VERTEX
8
0
10
-0.516000
20
-2.051000
0
VERTEX
8
0
10
-0.466000
20
-2.051000
0
SEQEND
8
0
0
TEXT
8
12632256
10
1.378000
20
0.215000
40
0.080000
41
1.000000
1
LLVT
0
TEXT
8
12632256
10
1.383000
20
0.320000
40
0.080000
41
1.000000
1
LU
0
TEXT
8
12632256
10
1.383000
20
0.515000
40
0.080000
41
1.000000
1
UU
0
TEXT
8
12632256
10
1.383000
20
0.415000
40
0.080000
41
1.000000
1
UL
0
POLYLINE
8
0
66
1
40
0.008000
41
0.008000
0
VERTEX
8
0
10
1.107000
20
1.198000
0
VERTEX
8
0
10
1.107000
20
0.898000
0
VERTEX
8
0
10
1.057000
20
0.848000
0
VERTEX
8
0
10
0.957000
20
0.848000
0
VERTEX
8
0
10
0.907000
20
0.898000
0
VERTEX
8
0
10
0.907000
20
1.198000
0
VERTEX
8
0
10
0.957000
20
1.248000
0
VERTEX
8
0
10
1.057000
20
1.248000
0
VERTEX
8
0
10
1.107000
20
1.198000
0
SEQEND
8
0
0
CIRCLE
8
12632256
10
-0.065000
20
1.787000
40
0.015000
0
POLYLINE
8
0
66
1
40
0.006000
41
0.006000
0
VERTEX
8
0
10
-0.210000
20
1.662000
0
VERTEX
8
0
10
1.579000
20
1.662000
0
VERTEX
8
0
10
1.579000
20
1.762000
0
VERTEX
8
0
10
-0.210000
20
1.762000
0
VERTEX
8
0
10
-0.210000
20
1.662000
0
SEQEND
8
0
0
POLYLINE
8
0
66
1
40
0.008000
41
0.008000
0
VERTEX
8
0
10
0.472000
20
1.850000
0
VERTEX
8
0
10
0.422000
20
1.850000
0
SEQEND
8
0
0
POLYLINE
8
0
66
1
40
0.008000
41
0.008000
0
VERTEX
8
0
10
0.222000
20
1.825000
0
VERTEX
8
0
10
0.422000
20
1.825000
0
VERTEX
8
0
10
0.422000
20
1.875000
0
VERTEX
8
0
10
0.222000
20
1.875000
0
VERTEX
8
0
10
0.222000
20
1.825000
0
SEQEND
8
0
0
POLYLINE
8
0
66
1
40
0.008000
41
0.008000
0
VERTEX
8
0
10
0.222000
20
1.850000
0
VERTEX
8
0
10
0.172000
20
1.850000
0
SEQEND
8
0
0
POLYLINE
8
0
66
1
40
0.008000
41
0.008000
0
VERTEX
8
0
10
0.997000
20
1.850000
0
VERTEX
8
0
10
0.947000
20
1.850000
0
SEQEND
8
0
0
POLYLINE
8
0
66
1
40
0.008000
41
0.008000
0
VERTEX
8
0
10
0.747000
20
1.825000
0
VERTEX
8
0
10
0.947000
20
1.825000
0
VERTEX
8
0
10
0.947000
20
1.875000
0
VERTEX
8
0
10
0.747000
20
1.875000
0
VERTEX
8
0
10
0.747000
20
1.825000
0
SEQEND
8
0
0
POLYLINE
8
0
66
1
40
0.008000
41
0.008000
0
VERTEX
8
0
10
0.747000
20
1.850000
0
VERTEX
8
0
10
0.697000
20
1.850000
0
SEQEND
8
0
0
POLYLINE
8
0
66
1
40
0.008000
41
0.008000
0
VERTEX
8
0
10
1.358000
20
0.805000
0
VERTEX
8
0
10
1.258000
20
0.805000
0
SEQEND
8
0
0
POLYLINE
8
0
66
1
40
0.008000
41
0.008000
0
VERTEX
8
0
10
1.258000
20
0.105000
0
VERTEX
8
0
10
1.358000
20
0.105000
0
VERTEX
8
0
10
1.358000
20
0.905000
0
VERTEX
8
0
10
1.258000
20
0.905000
0
VERTEX
8
0
10
1.258000
20
0.105000
0
SEQEND
8
0
0
POLYLINE
8
0
66
1
40
0.008000
41
0.008000
0
VERTEX
8
0
10
-0.096000
20
-1.394000
0
VERTEX
8
0
10
-0.096000
20
-1.344000
0
SEQEND
8
0
0
POLYLINE
8
0
66
1
40
0.008000
41
0.008000
0
VERTEX
8
0
10
-0.121000
20
-1.344000
0
VERTEX
8
0
10
-0.071000
20
-1.344000
0
VERTEX
8
0
10
-0.071000
20
-1.144000
0
VERTEX
8
0
10
-0.121000
20
-1.144000
0
VERTEX
8
0
10
-0.121000
20
-1.344000
0
SEQEND
8
0
0
POLYLINE
8
0
66
1
40
0.008000
41
0.008000
0
VERTEX
8
0
10
-0.096000
20
-1.144000
0
VERTEX
8
0
10
-0.096000
20
-1.094000
0
SEQEND
8
0
0
POLYLINE
8
0
66
1
40
0.008000
41
0.008000
0
VERTEX
8
0
10
1.678000
20
0.200000
0
VERTEX
8
0
10
1.778000
20
0.200000
0
VERTEX
8
0
10
1.778000
20
0.900000
0
VERTEX
8
0
10
1.678000
20
0.900000
0
VERTEX
8
0
10
1.678000
20
0.200000
0
SEQEND
8
0
0
POLYLINE
8
0
66
1
40
0.008000
41
0.008000
0
VERTEX
8
0
10
-1.056000
20
2.300000
0
VERTEX
8
0
10
-0.756000
20
2.300000
0
SEQEND
8
0
0
POLYLINE
8
0
66
1
40
0.008000
41
0.008000
0
VERTEX
8
0
10
-0.756000
20
1.900000
0
VERTEX
8
0
10
-1.056000
20
1.900000
0
SEQEND
8
0
0
POLYLINE
8
0
66
1
40
0.008000
41
0.008000
0
VERTEX
8
0
10
-1.056000
20
2.300000
0
VERTEX
8
0
10
-1.056000
20
1.900000
0
SEQEND
8
0
0
POLYLINE
8
0
66
1
40
0.008000
41
0.008000
0
VERTEX
8
0
10
-0.756000
20
2.300000
0
VERTEX
8
0
10
-0.756000
20
1.900000
0
SEQEND
8
0
0
POLYLINE
8
0
66
1
40
0.008000
41
0.008000
0
VERTEX
8
0
10
-1.561000
20
2.140000
0
VERTEX
8
0
10
-1.211000
20
2.140000
0
VERTEX
8
0
10
-1.211000
20
2.290000
0
VERTEX
8
0
10
-1.561000
20
2.290000
0
VERTEX
8
0
10
-1.561000
20
2.140000
0
SEQEND
8
0
0
POLYLINE
8
0
66
1
40
0.008000
41
0.008000
0
VERTEX
8
0
10
-1.286000
20
2.290000
0
VERTEX
8
0
10
-1.286000
20
2.140000
0
SEQEND
8
0
0
POLYLINE
8
0
66
1
40
0.008000
41
0.008000
0
VERTEX
8
0
10
-1.186000
20
2.215000
0
VERTEX
8
0
10
-1.211000
20
2.215000
0
SEQEND
8
0
0
POLYLINE
8
0
66
1
40
0.008000
41
0.008000
0
VERTEX
8
0
10
-1.586000
20
2.215000
0
VERTEX
8
0
10
-1.561000
20
2.215000
0
SEQEND
8
0
0
POLYLINE
8
0
66
1
40
0.008000
41
0.008000
0
VERTEX
8
0
10
-1.561000
20
1.925000
0
VERTEX
8
0
10
-1.211000
20
1.925000
0
VERTEX
8
0
10
-1.211000
20
2.075000
0
VERTEX
8
0
10
-1.561000
20
2.075000
0
VERTEX
8
0
10
-1.561000
20
1.925000
0
SEQEND
8
0
0
POLYLINE
8
0
66
1
40
0.008000
41
0.008000
0
VERTEX
8
0
10
-1.286000
20
2.075000
0
VERTEX
8
0
10
-1.286000
20
1.925000
0
SEQEND
8
0
0
POLYLINE
8
0
66
1
40
0.008000
41
0.008000
0
VERTEX
8
0
10
-1.186000
20
2.000000
0
VERTEX
8
0
10
-1.211000
20
2.000000
0
SEQEND
8
0
0
POLYLINE
8
0
66
1
40
0.008000
41
0.008000
0
VERTEX
8
0
10
-1.586000
20
2.000000
0
VERTEX
8
0
10
-1.561000
20
2.000000
0
SEQEND
8
0
0
POLYLINE
8
0
66
1
40
0.008000
41
0.008000
0
VERTEX
8
0
10
-0.596000
20
1.935000
0
VERTEX
8
0
10
-0.246000
20
1.935000
0
VERTEX
8
0
10
-0.246000
20
2.085000
0
VERTEX
8
0
10
-0.596000
20
2.085000
0
VERTEX
8
0
10
-0.596000
20
1.935000
0
SEQEND
8
0
0
POLYLINE
8
0
66
1
40
0.008000
41
0.008000
0
VERTEX
8
0
10
-0.321000
20
2.085000
0
VERTEX
8
0
10
-0.321000
20
1.935000
0
SEQEND
8
0
0
POLYLINE
8
0
66
1
40
0.008000
41
0.008000
0
VERTEX
8
0
10
-0.221000
20
2.010000
0
VERTEX
8
0
10
-0.246000
20
2.010000
0
SEQEND
8
0
0
POLYLINE
8
0
66
1
40
0.008000
41
0.008000
0
VERTEX
8
0
10
-0.621000
20
2.010000
0
VERTEX
8
0
10
-0.596000
20
2.010000
0
SEQEND
8
0
0
POLYLINE
8
0
66
1
40
0.008000
41
0.008000
0
VERTEX
8
0
10
-0.596000
20
2.130000
0
VERTEX
8
0
10
-0.246000
20
2.130000
0
VERTEX
8
0
10
-0.246000
20
2.280000
0
VERTEX
8
0
10
-0.596000
20
2.280000
0
VERTEX
8
0
10
-0.596000
20
2.130000
0
SEQEND
8
0
0
POLYLINE
8
0
66
1
40
0.008000
41
0.008000
0
VERTEX
8
0
10
-0.321000
20
2.280000
0
VERTEX
8
0
10
-0.321000
20
2.130000
0
SEQEND
8
0
0
POLYLINE
8
0
66
1
40
0.008000
41
0.008000
0
VERTEX
8
0
10
-0.221000
20
2.205000
0
VERTEX
8
0
10
-0.246000
20
2.205000
0
SEQEND
8
0
0
POLYLINE
8
0
66
1
40
0.008000
41
0.008000
0
VERTEX
8
0
10
-0.621000
20
2.205000
0
VERTEX
8
0
10
-0.596000
20
2.205000
0
SEQEND
8
0
0
POLYLINE
8
0
66
1
40
0.008000
41
0.008000
0
VERTEX
8
0
10
0.048000
20
2.270000
0
VERTEX
8
0
10
0.148000
20
2.270000
0
VERTEX
8
0
10
0.148000
20
2.570000
0
VERTEX
8
0
10
0.048000
20
2.570000
0
VERTEX
8
0
10
0.048000
20
2.270000
0
VERTEX
8
0
10
-0.001000
20
2.270000
0
VERTEX
8
0
10
-0.001000
20
2.570000
0
VERTEX
8
0
10
0.048000
20
2.570000
0
SEQEND
8
0
0
POLYLINE
8
0
66
1
40
0.008000
41
0.008000
0
VERTEX
8
0
10
0.048000
20
2.270000
0
VERTEX
8
0
10
-0.001000
20
2.320000
0
SEQEND
8
0
0
POLYLINE
8
0
66
1
40
0.008000
41
0.008000
0
VERTEX
8
0
10
0.048000
20
2.320000
0
VERTEX
8
0
10
-0.001000
20
2.370000
0
SEQEND
8
0
0
POLYLINE
8
0
66
1
40
0.008000
41
0.008000
0
VERTEX
8
0
10
0.048000
20
2.370000
0
VERTEX
8
0
10
-0.001000
20
2.420000
0
SEQEND
8
0
0
POLYLINE
8
0
66
1
40
0.008000
41
0.008000
0
VERTEX
8
0
10
0.048000
20
2.420000
0
VERTEX
8
0
10
-0.001000
20
2.470000
0
SEQEND
8
0
0
POLYLINE
8
0
66
1
40
0.008000
41
0.008000
0
VERTEX
8
0
10
0.048000
20
2.470000
0
VERTEX
8
0
10
-0.001000
20
2.520000
0
SEQEND
8
0
0
POLYLINE
8
0
66
1
40
0.008000
41
0.008000
0
VERTEX
8
0
10
0.048000
20
2.520000
0
VERTEX
8
0
10
-0.001000
20
2.570000
0
SEQEND
8
0
0
POLYLINE
8
0
66
1
40
0.008000
41
0.008000
0
VERTEX
8
0
10
0.741000
20
2.275000
0
VERTEX
8
0
10
0.841000
20
2.275000
0
VERTEX
8
0
10
0.841000
20
2.575000
0
VERTEX
8
0
10
0.741000
20
2.575000
0
VERTEX
8
0
10
0.741000
20
2.275000
0
SEQEND
8
0
0
POLYLINE
8
0
66
1
40
0.008000
41
0.008000
0
VERTEX
8
0
10
0.841000
20
2.575000
0
VERTEX
8
0
10
0.891000
20
2.575000
0
VERTEX
8
0
10
0.891000
20
2.275000
0
VERTEX
8
0
10
0.841000
20
2.275000
0
SEQEND
8
0
0
POLYLINE
8
0
66
1
40
0.008000
41
0.008000
0
VERTEX
8
0
10
0.841000
20
2.575000
0
VERTEX
8
0
10
0.891000
20
2.525000
0
SEQEND
8
0
0
POLYLINE
8
0
66
1
40
0.008000
41
0.008000
0
VERTEX
8
0
10
0.841000
20
2.525000
0
VERTEX
8
0
10
0.891000
20
2.475000
0
SEQEND
8
0
0
POLYLINE
8
0
66
1
40
0.008000
41
0.008000
0
VERTEX
8
0
10
0.841000
20
2.475000
0
VERTEX
8
0
10
0.891000
20
2.425000
0
SEQEND
8
0
0
POLYLINE
8
0
66
1
40
0.008000
41
0.008000
0
VERTEX
8
0
10
0.841000
20
2.425000
0
VERTEX
8
0
10
0.891000
20
2.375000
0
SEQEND
8
0
0
POLYLINE
8
0
66
1
40
0.008000
41
0.008000
0
VERTEX
8
0
10
0.841000
20
2.375000
0
VERTEX
8
0
10
0.891000
20
2.325000
0
SEQEND
8
0
0
POLYLINE
8
0
66
1
40
0.008000
41
0.008000
0
VERTEX
8
0
10
0.841000
20
2.325000
0
VERTEX
8
0
10
0.891000
20
2.275000
0
SEQEND
8
0
0
CIRCLE
8
12632256
10
0.463000
20
2.475000
40
0.125000
0
POLYLINE
8
0
66
1
40
0.008000
41
0.008000
0
VERTEX
8
0
10
1.133000
20
-0.599000
0
VERTEX
8
0
10
0.368000
20
-0.599000
0
SEQEND
8
0
0
TEXT
8
12632256
10
1.533000
20
-2.584000
40
0.080000
41
1.000000
1
TR
0
TEXT
8
12632256
10
0.854000
20
-2.629000
40
0.080000
41
1.000000
1
FUSE
0
TEXT
8
12632256
10
1.473000
20
-2.269000
40
0.080000
41
1.000000
1
L
0
TEXT
8
12632256
10
1.668000
20
-2.264000
40
0.080000
41
1.000000
1
N
0
TEXT
8
12632256
10
-0.016000
20
-2.614000
40
0.080000
41
1.000000
1
L1
0
TEXT
8
12632256
10
0.183000
20
-2.619000
40
0.080000
41
1.000000
1
L2
0
TEXT
8
12632256
10
0.388000
20
-2.619000
40
0.080000
41
1.000000
1
L3
0
TEXT
8
12632256
10
0.613000
20
-2.619000
40
0.080000
41
1.000000
1
N
0
TEXT
8
12632256
10
-1.111000
20
-2.624000
40
0.080000
41
1.000000
1
START
0
POLYLINE
8
0
66
1
40
0.008000
41
0.008000
0
VERTEX
8
0
10
0.783000
20
-2.524000
0
VERTEX
8
0
10
1.208000
20
-2.524000
0
VERTEX
8
0
10
1.208000
20
-2.344000
0
VERTEX
8
0
10
0.783000
20
-2.344000
0
VERTEX
8
0
10
0.783000
20
-2.524000
0
SEQEND
8
0
0
TEXT
8
12632256
10
1.796000
20
0.860000
40
0.080000
41
1.000000
50
-90.000000
1
RECEIVER
0
TEXT
8
12632256
10
1.498000
20
0.820000
40
0.080000
41
1.000000
1
GR
0
TEXT
8
12632256
10
1.418000
20
0.715000
40
0.080000
41
1.000000
1
+VE
0
TEXT
8
12632256
10
1.503000
20
0.610000
40
0.080000
41
1.000000
1
D0
0
TEXT
8
12632256
10
0.809000
20
1.188000
40
0.080000
41
1.000000
50
-90.000000
1
XTAL
0
TEXT
8
12632256
10
-0.106000
20
1.625000
40
0.080000
41
1.000000
50
-90.000000
1
Di1
0
POLYLINE
8
0
66
1
40
0.008000
41
0.008000
0
VERTEX
8
0
10
1.458000
20
1.150000
0
VERTEX
8
0
10
1.508000
20
1.150000
0
SEQEND
8
0
0
POLYLINE
8
0
66
1
40
0.008000
41
0.008000
0
VERTEX
8
0
10
1.508000
20
1.125000
0
VERTEX
8
0
10
1.708000
20
1.125000
0
VERTEX
8
0
10
1.708000
20
1.175000
0
VERTEX
8
0
10
1.508000
20
1.175000
0
VERTEX
8
0
10
1.508000
20
1.125000
0
SEQEND
8
0
0
POLYLINE
8
0
66
1
40
0.008000
41
0.008000
0
VERTEX
8
0
10
1.708000
20
1.150000
0
VERTEX
8
0
10
1.758000
20
1.150000
0
SEQEND
8
0
0
TEXT
8
12632256
10
1.403000
20
1.620000
40
0.080000
41
1.000000
50
-90.000000
1
Di16
0
TEXT
8
12632256
10
1.448000
20
1.005000
40
0.080000
41
1.000000
1
100R
0
TEXT
8
12632256
10
-1.031000
20
2.460000
40
0.080000
41
1.000000
1
12V
0
TEXT
8
12632256
10
-0.986000
20
2.345000
40
0.080000
41
1.000000
1
AC
0
TEXT
8
12632256
10
0.213000
20
2.580000
40
0.080000
41
1.000000
50
-90.000000
1
7812
0
TEXT
8
12632256
10
0.058000
20
2.155000
40
0.080000
41
1.000000
1
1
0
TEXT
8
12632256
10
0.715000
20
2.270000
40
0.080000
41
1.000000
50
90.000000
1
7805
0
TEXT
8
12632256
10
0.868000
20
2.165000
40
0.080000
41
1.000000
1
3
0
TEXT
8
12632256
10
0.828000
20
1.920000
40
0.080000
41
1.000000
1
5V
0
TEXT
8
12632256
10
0.995000
20
2.085000
40
0.080000
41
1.000000
1
GND
0
TEXT
8
12632256
10
-0.096000
20
2.060000
40
0.080000
41
1.000000
1
+
0
TEXT
8
12632256
10
-1.766000
20
2.055000
40
0.080000
41
1.000000
1
-
0
CIRCLE
8
12632256
10
-1.736000
20
2.100000
40
0.067000
0
CIRCLE
8
12632256
10
-0.061000
20
2.095000
40
0.067000
0
TEXT
8
12632256
10
-0.661000
20
-1.264000
40
0.080000
41
1.000000
1
Water
0
TEXT
8
12632256
10
-0.606000
20
-1.374000
40
0.080000
41
1.000000
1
Prob
0
POLYLINE
8
0
66
1
40
0.008000
41
0.008000
0
VERTEX
8
0
10
1.078000
20
0.001000
0
VERTEX
8
0
10
1.083000
20
0.720000
0
SEQEND
8
0
0
CIRCLE
8
12632256
10
-0.451000
20
-1.819000
40
0.014000
0
CIRCLE
8
12632256
10
1.318000
20
-1.319000
40
0.011000
0
POLYLINE
8
0
66
1
40
0.008000
41
0.008000
0
VERTEX
8
0
10
1.398000
20
-2.594000
0
VERTEX
8
0
10
1.398000
20
-2.294000
0
SEQEND
8
0
0
POLYLINE
8
0
66
1
40
0.008000
41
0.008000
0
VERTEX
8
0
10
1.798000
20
-2.294000
0
VERTEX
8
0
10
1.798000
20
-2.594000
0
SEQEND
8
0
0
POLYLINE
8
0
66
1
40
0.008000
41
0.008000
0
VERTEX
8
0
10
1.398000
20
-2.594000
0
VERTEX
8
0
10
1.798000
20
-2.594000
0
SEQEND
8
0
0
POLYLINE
8
0
66
1
40
0.008000
41
0.008000
0
VERTEX
8
0
10
1.398000
20
-2.294000
0
VERTEX
8
0
10
1.798000
20
-2.294000
0
SEQEND
8
0
0
POLYLINE
8
0
66
1
40
0.008000
41
0.008000
0
VERTEX
8
0
10
0.748000
20
-0.269000
0
VERTEX
8
0
10
0.112000
20
-0.694000
0
SEQEND
8
0
0
POLYLINE
8
0
66
1
40
0.008000
41
0.008000
0
VERTEX
8
0
10
0.293000
20
-0.004000
0
VERTEX
8
0
10
0.393000
20
-0.004000
0
VERTEX
8
0
10
0.393000
20
0.895000
0
VERTEX
8
0
10
0.293000
20
0.895000
0
VERTEX
8
0
10
0.293000
20
-0.004000
0
SEQEND
8
0
0
POLYLINE
8
0
66
1
40
0.008000
41
0.008000
0
VERTEX
8
0
10
0.293000
20
0.095000
0
VERTEX
8
0
10
0.393000
20
0.095000
0
SEQEND
8
0
0
CIRCLE
8
12632256
10
0.048000
20
1.000000
40
0.125000
0
POLYLINE
8
0
66
1
40
0.008000
41
0.008000
0
VERTEX
8
0
10
-0.266000
20
-1.409000
0
VERTEX
8
0
10
-0.166000
20
-1.409000
0
VERTEX
8
0
10
-0.166000
20
-1.209000
0
VERTEX
8
0
10
-0.266000
20
-1.209000
0
VERTEX
8
0
10
-0.266000
20
-1.409000
0
SEQEND
8
0
0
POLYLINE
8
0
66
1
40
0.008000
41
0.008000
0
VERTEX
8
0
10
0.378000
20
2.100000
0
VERTEX
8
0
10
0.428000
20
2.100000
0
SEQEND
8
0
0
POLYLINE
8
0
66
1
40
0.008000
41
0.008000
0
VERTEX
8
0
10
0.428000
20
2.075000
0
VERTEX
8
0
10
0.628000
20
2.075000
0
VERTEX
8
0
10
0.628000
20
2.125000
0
VERTEX
8
0
10
0.428000
20
2.125000
0
VERTEX
8
0
10
0.428000
20
2.075000
0
SEQEND
8
0
0
POLYLINE
8
0
66
1
40
0.008000
41
0.008000
0
VERTEX
8
0
10
0.628000
20
2.100000
0
VERTEX
8
0
10
0.678000
20
2.100000
0
SEQEND
8
0
0
CIRCLE
8
12632256
10
0.528000
20
2.235000
40
0.000000
0
CIRCLE
8
12632256
10
0.528000
20
2.235000
40
0.100000
0
POLYLINE
8
0
66
1
40
0.008000
41
0.008000
0
VERTEX
8
0
10
0.403000
20
2.335000
0
VERTEX
8
0
10
0.453000
20
2.335000
0
SEQEND
8
0
0
POLYLINE
8
0
66
1
40
0.008000
41
0.008000
0
VERTEX
8
0
10
0.428000
20
2.360000
0
VERTEX
8
0
10
0.428000
20
2.310000
0
SEQEND
8
0
0
TEXT
8
12632256
10
-1.451000
20
-2.624000
40
0.080000
41
1.000000
1
STOP
0
CIRCLE
8
12632256
10
-1.236000
20
-1.426000
40
0.241000
0
CIRCLE
8
12632256
10
-1.236000
20
-1.426000
40
0.149000
0
CIRCLE
8
12632256
10
-1.044000
20
-0.787000
40
0.125000
0
POLYLINE
8
0
66
1
40
0.008000
41
0.008000
0
VERTEX
8
0
10
-1.407000
20
-0.787000
0
VERTEX
8
0
10
-1.357000
20
-0.787000
0
SEQEND
8
0
0
POLYLINE
8
0
66
1
40
0.008000
41
0.008000
0
VERTEX
8
0
10
-1.357000
20
-0.762000
0
VERTEX
8
0
10
-1.357000
20
-0.812000
0
SEQEND
8
0
0
POLYLINE
8
0
66
1
40
0.008000
41
0.008000
0
VERTEX
8
0
10
-1.357000
20
-0.762000
0
VERTEX
8
0
10
-1.307000
20
-0.787000
0
SEQEND
8
0
0
POLYLINE
8
0
66
1
40
0.008000
41
0.008000
0
VERTEX
8
0
10
-1.357000
20
-0.812000
0
VERTEX
8
0
10
-1.307000
20
-0.787000
0
SEQEND
8
0
0
POLYLINE
8
0
66
1
40
0.008000
41
0.008000
0
VERTEX
8
0
10
-1.307000
20
-0.762000
0
VERTEX
8
0
10
-1.307000
20
-0.812000
0
SEQEND
8
0
0
POLYLINE
8
0
66
1
40
0.008000
41
0.008000
0
VERTEX
8
0
10
-1.307000
20
-0.787000
0
VERTEX
8
0
10
-1.257000
20
-0.787000
0
SEQEND
8
0
0
POLYLINE
8
0
66
1
40
0.008000
41
0.008000
0
VERTEX
8
0
10
-0.955000
20
-0.593000
0
VERTEX
8
0
10
-0.955000
20
-0.293000
0
SEQEND
8
0
0
POLYLINE
8
0
66
1
40
0.008000
41
0.008000
0
VERTEX
8
0
10
-0.555000
20
-0.293000
0
VERTEX
8
0
10
-0.555000
20
-0.593000
0
SEQEND
8
0
0
POLYLINE
8
0
66
1
40
0.008000
41
0.008000
0
VERTEX
8
0
10
-0.955000
20
-0.593000
0
VERTEX
8
0
10
-0.555000
20
-0.593000
0
SEQEND
8
0
0
POLYLINE
8
0
66
1
40
0.008000
41
0.008000
0
VERTEX
8
0
10
-0.955000
20
-0.293000
0
VERTEX
8
0
10
-0.555000
20
-0.293000
0
SEQEND
8
0
0
POLYLINE
8
0
66
1
40
0.008000
41
0.008000
0
VERTEX
8
0
10
-1.826000
20
-0.588000
0
VERTEX
8
0
10
-1.826000
20
-0.288000
0
SEQEND
8
0
0
POLYLINE
8
0
66
1
40
0.008000
41
0.008000
0
VERTEX
8
0
10
-1.426000
20
-0.288000
0
VERTEX
8
0
10
-1.426000
20
-0.588000
0
SEQEND
8
0
0
POLYLINE
8
0
66
1
40
0.008000
41
0.008000
0
VERTEX
8
0
10
-1.826000
20
-0.588000
0
VERTEX
8
0
10
-1.426000
20
-0.588000
0
SEQEND
8
0
0
POLYLINE
8
0
66
1
40
0.008000
41
0.008000
0
VERTEX
8
0
10
-1.826000
20
-0.288000
0
VERTEX
8
0
10
-1.426000
20
-0.288000
0
SEQEND
8
0
0
POLYLINE
8
0
66
1
40
0.008000
41
0.008000
0
VERTEX
8
0
10
-1.668000
20
1.330000
0
VERTEX
8
0
10
-1.668000
20
1.630000
0
SEQEND
8
0
0
POLYLINE
8
0
66
1
40
0.008000
41
0.008000
0
VERTEX
8
0
10
-1.268000
20
1.630000
0
VERTEX
8
0
10
-1.268000
20
1.330000
0
SEQEND
8
0
0
POLYLINE
8
0
66
1
40
0.008000
41
0.008000
0
VERTEX
8
0
10
-1.668000
20
1.330000
0
VERTEX
8
0
10
-1.268000
20
1.330000
0
SEQEND
8
0
0
POLYLINE
8
0
66
1
40
0.008000
41
0.008000
0
VERTEX
8
0
10
-1.668000
20
1.630000
0
VERTEX
8
0
10
-1.268000
20
1.630000
0
SEQEND
8
0
0
POLYLINE
8
0
66
1
40
0.008000
41
0.008000
0
VERTEX
8
0
10
-0.948000
20
1.330000
0
VERTEX
8
0
10
-0.948000
20
1.630000
0
SEQEND
8
0
0
POLYLINE
8
0
66
1
40
0.008000
41
0.008000
0
VERTEX
8
0
10
-0.548000
20
1.630000
0
VERTEX
8
0
10
-0.548000
20
1.330000
0
SEQEND
8
0
0
POLYLINE
8
0
66
1
40
0.008000
41
0.008000
0
VERTEX
8
0
10
-0.948000
20
1.330000
0
VERTEX
8
0
10
-0.548000
20
1.330000
0
SEQEND
8
0
0
POLYLINE
8
0
66
1
40
0.008000
41
0.008000
0
VERTEX
8
0
10
-0.948000
20
1.630000
0
VERTEX
8
0
10
-0.548000
20
1.630000
0
SEQEND
8
0
0
POLYLINE
8
0
66
1
40
0.008000
41
0.008000
0
VERTEX
8
0
10
-0.451000
20
1.100000
0
VERTEX
8
0
10
-0.451000
20
0.850000
0
SEQEND
8
0
0
POLYLINE
8
0
66
1
40
0.008000
41
0.008000
0
VERTEX
8
0
10
-0.451000
20
1.100000
0
VERTEX
8
0
10
-0.501000
20
1.100000
0
VERTEX
8
0
10
-0.511000
20
1.099000
0
VERTEX
8
0
10
-0.521000
20
1.096000
0
VERTEX
8
0
10
-0.529000
20
1.092000
0
VERTEX
8
0
10
-0.536000
20
1.086000
0
VERTEX
8
0
10
-0.542000
20
1.078000
0
VERTEX
8
0
10
-0.547000
20
1.070000
0
VERTEX
8
0
10
-0.550000
20
1.060000
0
VERTEX
8
0
10
-0.551000
20
1.050000
0
SEQEND
8
0
0
POLYLINE
8
0
66
1
40
0.008000
41
0.008000
0
VERTEX
8
0
10
-0.501000
20
0.850000
0
VERTEX
8
0
10
-0.511000
20
0.851000
0
VERTEX
8
0
10
-0.521000
20
0.854000
0
VERTEX
8
0
10
-0.529000
20
0.858000
0
VERTEX
8
0
10
-0.536000
20
0.864000
0
VERTEX
8
0
10
-0.542000
20
0.872000
0
VERTEX
8
0
10
-0.547000
20
0.880000
0
VERTEX
8
0
10
-0.550000
20
0.890000
0
VERTEX
8
0
10
-0.551000
20
0.900000
0
SEQEND
8
0
0
POLYLINE
8
0
66
1
40
0.008000
41
0.008000
0
VERTEX
8
0
10
-0.451000
20
0.850000
0
VERTEX
8
0
10
-0.501000
20
0.850000
0
SEQEND
8
0
0
POLYLINE
8
0
66
1
40
0.008000
41
0.008000
0
VERTEX
8
0
10
-0.551000
20
0.900000
0
VERTEX
8
0
10
-0.551000
20
1.050000
0
SEQEND
8
0
0
POLYLINE
8
0
66
1
40
0.008000
41
0.008000
0
VERTEX
8
0
10
-0.101000
20
1.260000
0
VERTEX
8
0
10
-0.351000
20
1.260000
0
SEQEND
8
0
0
POLYLINE
8
0
66
1
40
0.008000
41
0.008000
0
VERTEX
8
0
10
-0.101000
20
1.260000
0
VERTEX
8
0
10
-0.101000
20
1.310000
0
VERTEX
8
0
10
-0.102000
20
1.320000
0
VERTEX
8
0
10
-0.105000
20
1.330000
0
VERTEX
8
0
10
-0.110000
20
1.338000
0
VERTEX
8
0
10
-0.116000
20
1.346000
0
VERTEX
8
0
10
-0.123000
20
1.352000
0
VERTEX
8
0
10
-0.131000
20
1.356000
0
VERTEX
8
0
10
-0.141000
20
1.359000
0
VERTEX
8
0
10
-0.151000
20
1.360000
0
SEQEND
8
0
0
POLYLINE
8
0
66
1
40
0.008000
41
0.008000
0
VERTEX
8
0
10
-0.351000
20
1.310000
0
VERTEX
8
0
10
-0.350000
20
1.320000
0
VERTEX
8
0
10
-0.347000
20
1.330000
0
VERTEX
8
0
10
-0.342000
20
1.338000
0
VERTEX
8
0
10
-0.336000
20
1.346000
0
VERTEX
8
0
10
-0.329000
20
1.352000
0
VERTEX
8
0
10
-0.321000
20
1.356000
0
VERTEX
8
0
10
-0.311000
20
1.359000
0
VERTEX
8
0
10
-0.301000
20
1.360000
0
SEQEND
8
0
0
POLYLINE
8
0
66
1
40
0.008000
41
0.008000
0
VERTEX
8
0
10
-0.351000
20
1.260000
0
VERTEX
8
0
10
-0.351000
20
1.310000
0
SEQEND
8
0
0
POLYLINE
8
0
66
1
40
0.008000
41
0.008000
0
VERTEX
8
0
10
-0.301000
20
1.360000
0
VERTEX
8
0
10
-0.151000
20
1.360000
0
SEQEND
8
0
0
POLYLINE
8
0
66
1
40
0.008000
41
0.008000
0
VERTEX
8
0
10
-0.221000
20
0.605000
0
VERTEX
8
0
10
-0.221000
20
0.655000
0
SEQEND
8
0
0
POLYLINE
8
0
66
1
40
0.008000
41
0.008000
0
VERTEX
8
0
10
-0.271000
20
0.655000
0
VERTEX
8
0
10
-0.171000
20
0.655000
0
VERTEX
8
0
10
-0.171000
20
1.055000
0
VERTEX
8
0
10
-0.271000
20
1.055000
0
VERTEX
8
0
10
-0.271000
20
0.655000
0
SEQEND
8
0
0
POLYLINE
8
0
66
1
40
0.008000
41
0.008000
0
VERTEX
8
0
10
-0.221000
20
1.055000
0
VERTEX
8
0
10
-0.221000
20
1.105000
0
SEQEND
8
0
0
POLYLINE
8
0
66
1
40
0.008000
41
0.008000
0
VERTEX
8
0
10
-0.331000
20
0.415000
0
VERTEX
8
0
10
-0.331000
20
0.465000
0
SEQEND
8
0
0
POLYLINE
8
0
66
1
40
0.008000
41
0.008000
0
VERTEX
8
0
10
-0.381000
20
0.465000
0
VERTEX
8
0
10
-0.281000
20
0.465000
0
VERTEX
8
0
10
-0.281000
20
0.865000
0
VERTEX
8
0
10
-0.381000
20
0.865000
0
VERTEX
8
0
10
-0.381000
20
0.465000
0
SEQEND
8
0
0
POLYLINE
8
0
66
1
40
0.008000
41
0.008000
0
VERTEX
8
0
10
-0.331000
20
0.865000
0
VERTEX
8
0
10
-0.331000
20
0.915000
0
SEQEND
8
0
0
POLYLINE
8
0
66
1
40
0.008000
41
0.008000
0
VERTEX
8
0
10
0.463000
20
-0.084000
0
VERTEX
8
0
10
0.173000
20
-0.449000
0
SEQEND
8
0
0
TEXT
8
12632256
10
-1.717000
20
-0.231000
40
0.080000
41
1.000000
1
RED
0
POLYLINE
8
0
66
1
40
0.008000
41
0.008000
0
VERTEX
8
0
10
-1.752000
20
-0.266000
0
VERTEX
8
0
10
-1.477000
20
-0.266000
0
VERTEX
8
0
10
-1.477000
20
-0.126000
0
VERTEX
8
0
10
-1.752000
20
-0.126000
0
VERTEX
8
0
10
-1.752000
20
-0.266000
0
SEQEND
8
0
0
POLYLINE
8
0
66
1
40
0.008000
41
0.008000
0
VERTEX
8
0
10
-1.767000
20
-0.281000
0
VERTEX
8
0
10
-1.467000
20
-0.281000
0
VERTEX
8
0
10
-1.467000
20
-0.111000
0
VERTEX
8
0
10
-1.767000
20
-0.111000
0
VERTEX
8
0
10
-1.767000
20
-0.281000
0
SEQEND
8
0
0
TEXT
8
12632256
10
-0.914000
20
-0.237000
40
0.080000
41
1.000000
1
BLUE
0
POLYLINE
8
0
66
1
40
0.008000
41
0.008000
0
VERTEX
8
0
10
-0.929000
20
-0.267000
0
VERTEX
8
0
10
-0.589000
20
-0.267000
0
VERTEX
8
0
10
-0.589000
20
-0.127000
0
VERTEX
8
0
10
-0.929000
20
-0.127000
0
VERTEX
8
0
10
-0.929000
20
-0.267000
0
SEQEND
8
0
0
POLYLINE
8
0
66
1
40
0.008000
41
0.008000
0
VERTEX
8
0
10
-0.924000
20
-0.277000
0
VERTEX
8
0
10
-0.579000
20
-0.277000
0
VERTEX
8
0
10
-0.579000
20
-0.117000
0
VERTEX
8
0
10
-0.924000
20
-0.117000
0
VERTEX
8
0
10
-0.924000
20
-0.277000
0
SEQEND
8
0
0
TEXT
8
12632256
10
-1.707000
20
1.183000
40
0.080000
41
1.000000
1
YELLOW
0
POLYLINE
8
0
66
1
40
0.008000
41
0.008000
0
VERTEX
8
0
10
-1.722000
20
1.163000
0
VERTEX
8
0
10
-1.232000
20
1.163000
0
VERTEX
8
0
10
-1.232000
20
1.283000
0
VERTEX
8
0
10
-1.722000
20
1.283000
0
VERTEX
8
0
10
-1.722000
20
1.163000
0
SEQEND
8
0
0
POLYLINE
8
0
66
1
40
0.008000
41
0.008000
0
VERTEX
8
0
10
-1.737000
20
1.148000
0
VERTEX
8
0
10
-1.217000
20
1.148000
0
VERTEX
8
0
10
-1.217000
20
1.298000
0
VERTEX
8
0
10
-1.737000
20
1.298000
0
VERTEX
8
0
10
-1.737000
20
1.148000
0
SEQEND
8
0
0
TEXT
8
12632256
10
-0.942000
20
1.189000
40
0.080000
41
1.000000
1
BLACK
0
POLYLINE
8
0
66
1
40
0.008000
41
0.008000
0
VERTEX
8
0
10
-0.967000
20
1.174000
0
VERTEX
8
0
10
-0.532000
20
1.174000
0
VERTEX
8
0
10
-0.532000
20
1.284000
0
VERTEX
8
0
10
-0.967000
20
1.284000
0
VERTEX
8
0
10
-0.967000
20
1.174000
0
SEQEND
8
0
0
POLYLINE
8
0
66
1
40
0.008000
41
0.008000
0
VERTEX
8
0
10
-0.977000
20
1.159000
0
VERTEX
8
0
10
-0.512000
20
1.159000
0
VERTEX
8
0
10
-0.512000
20
1.299000
0
VERTEX
8
0
10
-0.977000
20
1.299000
0
VERTEX
8
0
10
-0.977000
20
1.159000
0
SEQEND
8
0
0
TEXT
8
12632256
10
-1.390000
20
-1.846000
40
0.080000
41
1.000000
1
COIL
0
POLYLINE
8
0
66
1
40
0.008000
41
0.008000
0
VERTEX
8
0
10
-1.540000
20
1.732000
0
VERTEX
8
0
10
-1.490000
20
1.732000
0
SEQEND
8
0
0
POLYLINE
8
0
66
1
40
0.008000
41
0.008000
0
VERTEX
8
0
10
-1.490000
20
1.757000
0
VERTEX
8
0
10
-1.490000
20
1.707000
0
SEQEND
8
0
0
POLYLINE
8
0
66
1
40
0.008000
41
0.008000
0
VERTEX
8
0
10
-1.490000
20
1.757000
0
VERTEX
8
0
10
-1.440000
20
1.732000
0
SEQEND
8
0
0
POLYLINE
8
0
66
1
40
0.008000
41
0.008000
0
VERTEX
8
0
10
-1.490000
20
1.707000
0
VERTEX
8
0
10
-1.440000
20
1.732000
0
SEQEND
8
0
0
POLYLINE
8
0
66
1
40
0.008000
41
0.008000
0
VERTEX
8
0
10
-1.440000
20
1.757000
0
VERTEX
8
0
10
-1.440000
20
1.707000
0
SEQEND
8
0
0
POLYLINE
8
0
66
1
40
0.008000
41
0.008000
0
VERTEX
8
0
10
-1.440000
20
1.732000
0
VERTEX
8
0
10
-1.390000
20
1.732000
0
SEQEND
8
0
0
POLYLINE
8
0
66
1
40
0.008000
41
0.008000
0
VERTEX
8
0
10
-0.681000
20
1.732000
0
VERTEX
8
0
10
-0.731000
20
1.732000
0
SEQEND
8
0
0
POLYLINE
8
0
66
1
40
0.008000
41
0.008000
0
VERTEX
8
0
10
-0.731000
20
1.707000
0
VERTEX
8
0
10
-0.731000
20
1.757000
0
SEQEND
8
0
0
POLYLINE
8
0
66
1
40
0.008000
41
0.008000
0
VERTEX
8
0
10
-0.731000
20
1.707000
0
VERTEX
8
0
10
-0.781000
20
1.732000
0
SEQEND
8
0
0
POLYLINE
8
0
66
1
40
0.008000
41
0.008000
0
VERTEX
8
0
10
-0.731000
20
1.757000
0
VERTEX
8
0
10
-0.781000
20
1.732000
0
SEQEND
8
0
0
POLYLINE
8
0
66
1
40
0.008000
41
0.008000
0
VERTEX
8
0
10
-0.781000
20
1.707000
0
VERTEX
8
0
10
-0.781000
20
1.757000
0
SEQEND
8
0
0
POLYLINE
8
0
66
1
40
0.008000
41
0.008000
0
VERTEX
8
0
10
-0.781000
20
1.732000
0
VERTEX
8
0
10
-0.831000
20
1.732000
0
SEQEND
8
0
0
TEXT
8
12632256
10
0.047000
20
-0.892000
40
0.088000
41
0.909091
50
90.000000
1
EAGLE CONTROL SYSTEMS
0
POLYLINE
8
0
66
1
40
0.008000
41
0.008000
0
VERTEX
8
0
10
-1.530000
20
-1.889000
0
VERTEX
8
0
10
-0.960000
20
-1.889000
0
VERTEX
8
0
10
-0.960000
20
-1.732000
0
VERTEX
8
0
10
-1.530000
20
-1.732000
0
VERTEX
8
0
10
-1.530000
20
-1.889000
0
SEQEND
8
0
0
POLYLINE
8
0
66
1
40
0.008000
41
0.008000
0
VERTEX
8
0
10
-1.530000
20
-1.122000
0
VERTEX
8
0
10
-0.940000
20
-1.122000
0
VERTEX
8
0
10
-0.940000
20
-1.003000
0
VERTEX
8
0
10
-1.530000
20
-1.003000
0
VERTEX
8
0
10
-1.530000
20
-1.122000
0
SEQEND
8
0
0
POLYLINE
8
0
66
1
40
0.008000
41
0.008000
0
VERTEX
8
0
10
1.312000
20
2.351000
0
VERTEX
8
0
10
1.412000
20
2.351000
0
VERTEX
8
0
10
1.412000
20
2.551000
0
VERTEX
8
0
10
1.312000
20
2.551000
0
VERTEX
8
0
10
1.312000
20
2.351000
0
SEQEND
8
0
0
POLYLINE
8
0
66
1
40
0.008000
41
0.008000
0
VERTEX
8
0
10
1.411000
20
2.351000
0
VERTEX
8
0
10
1.511000
20
2.351000
0
VERTEX
8
0
10
1.511000
20
2.551000
0
VERTEX
8
0
10
1.411000
20
2.551000
0
VERTEX
8
0
10
1.411000
20
2.351000
0
SEQEND
8
0
0
POLYLINE
8
0
66
1
40
0.008000
41
0.008000
0
VERTEX
8
0
10
1.096000
20
2.351000
0
VERTEX
8
0
10
1.196000
20
2.351000
0
VERTEX
8
0
10
1.196000
20
2.551000
0
VERTEX
8
0
10
1.096000
20
2.551000
0
VERTEX
8
0
10
1.096000
20
2.351000
0
SEQEND
8
0
0
POLYLINE
8
0
66
1
40
0.008000
41
0.008000
0
VERTEX
8
0
10
1.194000
20
2.351000
0
VERTEX
8
0
10
1.294000
20
2.351000
0
VERTEX
8
0
10
1.294000
20
2.551000
0
VERTEX
8
0
10
1.194000
20
2.551000
0
VERTEX
8
0
10
1.194000
20
2.351000
0
SEQEND
8
0
0
TEXT
8
12632256
10
1.058000
20
2.278000
40
0.040000
41
1.000000
1
RESET
0
TEXT
8
12632256
10
1.312000
20
2.278000
40
0.040000
41
1.000000
1
DRYRUN
0
TEXT
8
12632256
10
1.471000
20
2.233000
40
0.040000
41
1.000000
1
ADJ.
0
POLYLINE
8
0
66
1
40
0.008000
41
0.008000
0
VERTEX
8
0
10
0.113000
20
1.535000
0
VERTEX
8
0
10
0.163000
20
1.535000
0
SEQEND
8
0
0
POLYLINE
8
0
66
1
40
0.008000
41
0.008000
0
VERTEX
8
0
10
0.163000
20
1.510000
0
VERTEX
8
0
10
0.363000
20
1.510000
0
VERTEX
8
0
10
0.363000
20
1.560000
0
VERTEX
8
0
10
0.163000
20
1.560000
0
VERTEX
8
0
10
0.163000
20
1.510000
0
SEQEND
8
0
0
POLYLINE
8
0
66
1
40
0.008000
41
0.008000
0
VERTEX
8
0
10
0.363000
20
1.535000
0
VERTEX
8
0
10
0.413000
20
1.535000
0
SEQEND
8
0
0
CIRCLE
8
12632256
10
0.063000
20
1.347000
40
0.000000
0
CIRCLE
8
12632256
10
0.063000
20
1.347000
40
0.100000
0
POLYLINE
8
0
66
1
40
0.008000
41
0.008000
0
VERTEX
8
0
10
0.163000
20
1.472000
0
VERTEX
8
0
10
0.163000
20
1.422000
0
SEQEND
8
0
0
POLYLINE
8
0
66
1
40
0.008000
41
0.008000
0
VERTEX
8
0
10
0.188000
20
1.447000
0
VERTEX
8
0
10
0.138000
20
1.447000
0
SEQEND
8
0
0
TEXT
8
12632256
10
0.417000
20
1.987000
40
0.080000
41
1.000000
1
PWR
0
TEXT
8
12632256
10
-0.054000
20
1.150000
40
0.080000
41
1.000000
1
LED
0
POLYLINE
8
0
66
1
40
0.008000
41
0.008000
0
VERTEX
8
0
10
0.298000
20
0.995000
0
VERTEX
8
0
10
0.398000
20
0.995000
0
VERTEX
8
0
10
0.398000
20
1.395000
0
VERTEX
8
0
10
0.298000
20
1.395000
0
VERTEX
8
0
10
0.298000
20
0.995000
0
SEQEND
8
0
0
POLYLINE
8
0
66
1
40
0.008000
41
0.008000
0
VERTEX
8
0
10
-1.366000
20
-0.584000
0
VERTEX
8
0
10
-1.166000
20
-0.584000
0
VERTEX
8
0
10
-1.166000
20
-0.084000
0
VERTEX
8
0
10
-1.366000
20
-0.084000
0
VERTEX
8
0
10
-1.366000
20
-0.584000
0
SEQEND
8
0
0
POLYLINE
8
0
66
1
40
0.008000
41
0.008000
0
VERTEX
8
0
10
-0.471000
20
-0.604000
0
VERTEX
8
0
10
-0.271000
20
-0.604000
0
VERTEX
8
0
10
-0.271000
20
-0.104000
0
VERTEX
8
0
10
-0.471000
20
-0.104000
0
VERTEX
8
0
10
-0.471000
20
-0.604000
0
SEQEND
8
0
0
POLYLINE
8
0
66
1
40
0.008000
41
0.008000
0
VERTEX
8
0
10
0.768000
20
-0.179000
0
VERTEX
8
0
10
0.758000
20
-0.177000
0
VERTEX
8
0
10
0.748000
20
-0.171000
0
VERTEX
8
0
10
0.740000
20
-0.162000
0
VERTEX
8
0
10
0.732000
20
-0.150000
0
VERTEX
8
0
10
0.726000
20
-0.135000
0
VERTEX
8
0
10
0.722000
20
-0.118000
0
VERTEX
8
0
10
0.719000
20
-0.099000
0
VERTEX
8
0
10
0.718000
20
-0.079000
0
SEQEND
8
0
0
POLYLINE
8
0
66
1
40
0.008000
41
0.008000
0
VERTEX
8
0
10
0.768000
20
0.020000
0
VERTEX
8
0
10
0.758000
20
0.018000
0
VERTEX
8
0
10
0.748000
20
0.012000
0
VERTEX
8
0
10
0.740000
20
0.003000
0
VERTEX
8
0
10
0.732000
20
-0.008000
0
VERTEX
8
0
10
0.726000
20
-0.023000
0
VERTEX
8
0
10
0.722000
20
-0.040000
0
VERTEX
8
0
10
0.719000
20
-0.059000
0
VERTEX
8
0
10
0.718000
20
-0.079000
0
SEQEND
8
0
0
POLYLINE
8
0
66
1
40
0.008000
41
0.008000
0
VERTEX
8
0
10
0.768000
20
-0.179000
0
VERTEX
8
0
10
0.778000
20
-0.177000
0
VERTEX
8
0
10
0.788000
20
-0.171000
0
VERTEX
8
0
10
0.796000
20
-0.162000
0
VERTEX
8
0
10
0.804000
20
-0.150000
0
VERTEX
8
0
10
0.810000
20
-0.135000
0
VERTEX
8
0
10
0.814000
20
-0.118000
0
VERTEX
8
0
10
0.817000
20
-0.099000
0
VERTEX
8
0
10
0.818000
20
-0.079000
0
SEQEND
8
0
0
POLYLINE
8
0
66
1
40
0.008000
41
0.008000
0
VERTEX
8
0
10
0.768000
20
0.020000
0
VERTEX
8
0
10
0.778000
20
0.018000
0
VERTEX
8
0
10
0.788000
20
0.012000
0
VERTEX
8
0
10
0.796000
20
0.003000
0
VERTEX
8
0
10
0.804000
20
-0.008000
0
VERTEX
8
0
10
0.810000
20
-0.023000
0
VERTEX
8
0
10
0.814000
20
-0.040000
0
VERTEX
8
0
10
0.817000
20
-0.059000
0
VERTEX
8
0
10
0.818000
20
-0.079000
0
SEQEND
8
0
0
POLYLINE
8
0
66
1
40
0.008000
41
0.008000
0
VERTEX
8
0
10
1.083000
20
-0.304000
0
VERTEX
8
0
10
1.073000
20
-0.302000
0
VERTEX
8
0
10
1.063000
20
-0.296000
0
VERTEX
8
0
10
1.055000
20
-0.287000
0
VERTEX
8
0
10
1.048000
20
-0.275000
0
VERTEX
8
0
10
1.042000
20
-0.260000
0
VERTEX
8
0
10
1.037000
20
-0.243000
0
VERTEX
8
0
10
1.034000
20
-0.224000
0
VERTEX
8
0
10
1.033000
20
-0.204000
0
SEQEND
8
0
0
POLYLINE
8
0
66
1
40
0.008000
41
0.008000
0
VERTEX
8
0
10
1.083000
20
-0.104000
0
VERTEX
8
0
10
1.073000
20
-0.106000
0
VERTEX
8
0
10
1.063000
20
-0.112000
0
VERTEX
8
0
10
1.055000
20
-0.121000
0
VERTEX
8
0
10
1.048000
20
-0.133000
0
VERTEX
8
0
10
1.042000
20
-0.148000
0
VERTEX
8
0
10
1.037000
20
-0.165000
0
VERTEX
8
0
10
1.034000
20
-0.184000
0
VERTEX
8
0
10
1.033000
20
-0.204000
0
SEQEND
8
0
0
POLYLINE
8
0
66
1
40
0.008000
41
0.008000
0
VERTEX
8
0
10
1.083000
20
-0.304000
0
VERTEX
8
0
10
1.093000
20
-0.302000
0
VERTEX
8
0
10
1.103000
20
-0.296000
0
VERTEX
8
0
10
1.111000
20
-0.287000
0
VERTEX
8
0
10
1.118000
20
-0.275000
0
VERTEX
8
0
10
1.124000
20
-0.260000
0
VERTEX
8
0
10
1.129000
20
-0.243000
0
VERTEX
8
0
10
1.132000
20
-0.224000
0
VERTEX
8
0
10
1.133000
20
-0.204000
0
SEQEND
8
0
0
POLYLINE
8
0
66
1
40
0.008000
41
0.008000
0
VERTEX
8
0
10
1.083000
20
-0.104000
0
VERTEX
8
0
10
1.093000
20
-0.106000
0
VERTEX
8
0
10
1.103000
20
-0.112000
0
VERTEX
8
0
10
1.111000
20
-0.121000
0
VERTEX
8
0
10
1.118000
20
-0.133000
0
VERTEX
8
0
10
1.124000
20
-0.148000
0
VERTEX
8
0
10
1.129000
20
-0.165000
0
VERTEX
8
0
10
1.132000
20
-0.184000
0
VERTEX
8
0
10
1.133000
20
-0.204000
0
SEQEND
8
0
0
POLYLINE
8
0
66
1
40
0.008000
41
0.008000
0
VERTEX
8
0
10
0.958000
20
0.750000
0
VERTEX
8
0
10
0.968000
20
0.025000
0
SEQEND
8
0
0
POLYLINE
8
0
66
1
40
0.008000
41
0.008000
0
VERTEX
8
0
10
1.621000
20
2.093000
0
VERTEX
8
0
10
1.623000
20
1.377000
0
SEQEND
8
0
0
POLYLINE
8
0
66
1
40
0.008000
41
0.008000
0
VERTEX
8
0
10
1.283000
20
2.185000
0
VERTEX
8
0
10
1.165000
20
0.137000
0
SEQEND
8
0
0
POLYLINE
8
0
66
1
40
0.008000
41
0.008000
0
VERTEX
8
0
10
0.963000
20
-0.189000
0
VERTEX
8
0
10
0.588000
20
-0.929000
0
SEQEND
8
0
0
TEXT
8
12632256
10
-1.787000
20
0.918000
40
0.064000
41
0.937500
1
A0-LL
0
TEXT
8
12632256
10
-1.787000
20
0.838000
40
0.064000
41
0.937500
1
A1-LU
0
TEXT
8
12632256
10
-1.787000
20
0.763000
40
0.064000
41
0.937500
1
A2-UL
0
TEXT
8
12632256
10
-1.792000
20
0.693000
40
0.064000
41
0.937500
1
A3-UU
0
TEXT
8
12632256
10
-1.792000
20
0.023000
40
0.064000
41
0.937500
1
B7-P1
0
TEXT
8
12632256
10
-1.792000
20
0.088000
40
0.064000
41
0.937500
1
B6-P2
0
TEXT
8
12632256
10
-1.792000
20
0.153000
40
0.064000
41
0.937500
1
B5-P3
0
TEXT
8
12632256
10
-1.792000
20
0.223000
40
0.064000
41
0.937500
1
B4-STOP
0
TEXT
8
12632256
10
-1.792000
20
0.293000
40
0.064000
41
0.937500
1
B3-START
0
TEXT
8
12632256
10
-1.792000
20
0.368000
40
0.064000
41
0.937500
1
B2-STRTR
0
TEXT
8
12632256
10
-1.792000
20
0.448000
40
0.064000
41
0.937500
1
B1-DR ADJ.
0
TEXT
8
12632256
10
-1.792000
20
0.528000
40
0.064000
41
0.937500
1
B0-VT
0
TEXT
8
12632256
10
-1.793000
20
0.613000
40
0.064000
41
0.937500
1
A5-DRYRUN
0
TEXT
8
12632256
10
-1.017000
20
0.343000
40
0.064000
41
0.937500
1
C7-RS
0
TEXT
8
12632256
10
-1.017000
20
0.413000
40
0.064000
41
0.937500
1
C6-R/W
0
TEXT
8
12632256
10
-1.017000
20
0.483000
40
0.064000
41
0.937500
1
C5-E
0
TEXT
8
12632256
10
-1.017000
20
0.668000
40
0.064000
41
0.937500
1
C3-DB7
0
TEXT
8
12632256
10
-1.017000
20
0.743000
40
0.064000
41
0.937500
1
C2-DB6
0
TEXT
8
12632256
10
-1.017000
20
0.823000
40
0.064000
41
0.937500
1
C1-DB5
0
TEXT
8
12632256
10
-1.017000
20
0.903000
40
0.064000
41
0.937500
1
C0-DB4
0
TEXT
8
12632256
10
-1.017000
20
0.568000
40
0.064000
41
0.937500
1
C4-LED
0
POLYLINE
8
0
66
1
40
0.008000
41
0.008000
0
VERTEX
8
0
10
-1.161000
20
0.405000
0
VERTEX
8
0
10
-1.141000
20
0.405000
0
VERTEX
8
0
10
-1.141000
20
0.930000
0
VERTEX
8
0
10
-1.161000
20
0.930000
0
VERTEX
8
0
10
-1.161000
20
0.405000
0
SEQEND
8
0
0
POLYLINE
8
0
66
1
40
0.008000
41
0.008000
0
VERTEX
8
0
10
-1.821000
20
0.010000
0
VERTEX
8
0
10
-0.646000
20
0.010000
0
VERTEX
8
0
10
-0.646000
20
1.005000
0
VERTEX
8
0
10
-1.821000
20
1.005000
0
VERTEX
8
0
10
-1.821000
20
0.010000
0
SEQEND
8
0
0
POLYLINE
8
0
66
1
40
0.008000
41
0.008000
0
VERTEX
8
0
10
-1.841000
20
-0.014000
0
VERTEX
8
0
10
-0.621000
20
-0.014000
0
VERTEX
8
0
10
-0.621000
20
1.030000
0
VERTEX
8
0
10
-1.841000
20
1.030000
0
VERTEX
8
0
10
-1.841000
20
-0.014000
0
SEQEND
8
0
0
TEXT
8
12632256
10
-0.591000
20
2.615000
40
0.080000
41
1.000000
50
-90.000000
1
SMPS
0
POLYLINE
8
0
66
1
40
0.008000
41
0.008000
0
VERTEX
8
0
10
-0.436000
20
2.360000
0
VERTEX
8
0
10
-0.336000
20
2.360000
0
VERTEX
8
0
10
-0.336000
20
2.560000
0
VERTEX
8
0
10
-0.436000
20
2.560000
0
VERTEX
8
0
10
-0.436000
20
2.360000
0
SEQEND
8
0
0
POLYLINE
8
0
66
1
40
0.008000
41
0.008000
0
VERTEX
8
0
10
-0.481000
20
2.300000
0
VERTEX
8
0
10
-0.291000
20
2.300000
0
VERTEX
8
0
10
-0.291000
20
2.620000
0
VERTEX
8
0
10
-0.481000
20
2.620000
0
VERTEX
8
0
10
-0.481000
20
2.300000
0
SEQEND
8
0
0
POLYLINE
8
0
66
1
40
0.008000
41
0.008000
0
VERTEX
8
0
10
-0.466000
20
2.315000
0
VERTEX
8
0
10
-0.306000
20
2.315000
0
VERTEX
8
0
10
-0.306000
20
2.605000
0
VERTEX
8
0
10
-0.466000
20
2.605000
0
VERTEX
8
0
10
-0.466000
20
2.315000
0
SEQEND
8
0
0
POLYLINE
8
0
66
1
40
0.008000
41
0.008000
0
VERTEX
8
0
10
-0.101000
20
0.645000
0
VERTEX
8
0
10
-0.221000
20
-1.124000
0
SEQEND
8
0
0
POLYLINE
8
0
66
1
40
0.008000
41
0.008000
0
VERTEX
8
0
10
-0.051000
20
-0.924000
0
VERTEX
8
0
10
0.063000
20
-0.924000
0
VERTEX
8
0
10
0.063000
20
0.795000
0
VERTEX
8
0
10
-0.051000
20
0.795000
0
VERTEX
8
0
10
-0.051000
20
-0.924000
0
SEQEND
8
0
0
POLYLINE
8
0
66
1
40
0.008000
41
0.008000
0
VERTEX
8
0
10
-0.071000
20
-0.939000
0
VERTEX
8
0
10
0.088000
20
-0.939000
0
VERTEX
8
0
10
0.088000
20
0.805000
0
VERTEX
8
0
10
-0.071000
20
0.805000
0
VERTEX
8
0
10
-0.071000
20
-0.939000
0
SEQEND
8
0
0
ENDSEC
0
EOF

