M48
INCH
T01C0.0300
T02C0.0250
T03C0.0400
T04C0.1574
%
T01
X+006123Y-001563
X+006123Y-002563
X+006123Y-003563
X+006123Y-004563
X+006123Y-005563
X+006123Y-006563
X+006123Y-007563
X+006123Y-008563
X+006123Y-009563
X+006123Y-010563
X+006123Y-011563
X+006123Y-012563
X+006123Y-013563
X+006123Y-014563
X+006123Y-015563
X+006123Y-016563
X+006123Y-017563
X+006123Y-018563
X+006123Y-019563
X+006123Y-020563
X+012123Y-020563
X+012123Y-019563
X+012123Y-018563
X+012123Y-017563
X+012123Y-016563
X+012123Y-015563
X+012123Y-014563
X+012123Y-013563
X+012123Y-012563
X+012123Y-011563
X+012123Y-010563
X+012123Y-009563
X+012123Y-008563
X+012123Y-007563
X+012123Y-006563
X+012123Y-005563
X+012123Y-004563
X+012123Y-003563
X+012123Y-002563
X+012123Y-001563
X+002773Y-014063
X+004773Y-014063
X+002373Y-012663
X+003161Y-012663
X+004323Y-012663
X+005111Y-012663
X-001994Y-002644
X-001994Y-003644
X-001994Y-004644
X-001994Y-005644
X-001994Y-006644
X-001994Y-007644
X-001994Y-008644
X-001994Y-009644
X-001994Y-010644
X-001994Y-011644
X+001005Y-011644
X+001005Y-010644
X+001005Y-009644
X+001005Y-008644
X+001005Y-007644
X+001005Y-006644
X+001005Y-005644
X+001005Y-004644
X+001005Y-003644
X+001005Y-002644
X+004505Y-008694
X+004505Y-007694
X+004505Y-006694
X+004505Y-005694
X+004505Y-004694
X+004505Y-003694
X+004505Y-002694
X+004505Y-001694
X-007394Y-002694
X-003394Y-002694
X-007394Y-004644
X-003394Y-004644
X-007394Y-006644
X-003394Y-006644
X-007394Y-008644
X-003394Y-008644
X-007394Y-010644
X-003394Y-010644
X-011044Y-020844
X-010044Y-020844
X-009044Y-020844
X-008044Y-020844
X-007044Y-020844
X-006044Y-020844
X-005044Y-020844
X-004044Y-020844
X-003044Y-020844
X-003044Y-017844
X-004044Y-017844
X-005044Y-017844
X-006044Y-017844
X-007044Y-017844
X-008044Y-017844
X-009044Y-017844
X-010044Y-017844
X-011044Y-017844
X-006044Y-016844
X-006044Y-012844
X-003044Y-016844
X-003044Y-012844
X-004044Y-016844
X-004044Y-012844
X-005044Y-016844
X-005044Y-012844
X+002168Y-001619
X+002955Y-001619
X+017715Y-019264
X+017715Y-020064
X+017715Y-020864
X+000855Y-016334
X+004855Y-016334
X+016447Y-008174
X+016447Y-004174
X-000735Y+013502
X+000264Y+013502
X+001264Y+013502
X+002264Y+013502
X+003264Y+013502
X+004264Y+013502
X+005264Y+013502
X+006264Y+013502
X+006264Y+016502
X+005264Y+016502
X+004264Y+016502
X+003264Y+016502
X+002264Y+016502
X+001264Y+016502
X+000264Y+016502
X-000735Y+016502
X+005366Y+012321
X+004366Y+012321
X+003366Y+012321
X+002366Y+012321
X+001366Y+012321
X+000366Y+012321
X-000633Y+012321
X-001633Y+012321
X-002633Y+012321
X-002633Y+009321
X-001633Y+009321
X-000633Y+009321
X+000366Y+009321
X+001366Y+009321
X+002366Y+009321
X+003366Y+009321
X+004366Y+009321
X+005366Y+009321
X-001719Y+017636
X-001719Y+013306
X-001637Y+004457
X-001637Y+008457
X-000587Y+004457
X-000587Y+008457
X+000362Y+004457
X+000362Y+008457
X+001362Y+004457
X+001362Y+008457
X+002362Y+004457
X+002362Y+008457
X+003362Y+004457
X+003362Y+008457
X+004412Y+004457
X+004412Y+008457
X+005412Y+004457
X+005412Y+008457
X+009664Y+013502
X+010664Y+013502
X+011664Y+013502
X+012664Y+013502
X+013664Y+013502
X+014664Y+013502
X+015664Y+013502
X+016664Y+013502
X+016664Y+016502
X+015664Y+016502
X+014664Y+016502
X+013664Y+016502
X+012664Y+016502
X+011664Y+016502
X+010664Y+016502
X+009664Y+016502
X+015766Y+012321
X+014766Y+012321
X+013766Y+012321
X+012766Y+012321
X+011766Y+012321
X+010766Y+012321
X+009766Y+012321
X+008766Y+012321
X+007766Y+012321
X+007766Y+009321
X+008766Y+009321
X+009766Y+009321
X+010766Y+009321
X+011766Y+009321
X+012766Y+009321
X+013766Y+009321
X+014766Y+009321
X+015766Y+009321
X+008680Y+017636
X+008680Y+013306
X+008762Y+004457
X+008762Y+008457
X+009812Y+004457
X+009812Y+008457
X+010762Y+004457
X+010762Y+008457
X+011762Y+004457
X+011762Y+008457
X+012762Y+004457
X+012762Y+008457
X+013762Y+004457
X+013762Y+008457
X+014812Y+004457
X+014812Y+008457
X+015812Y+004457
X+015812Y+008457
X-005037Y+014457
X-005037Y+015457
X+001304Y+020149
X+003244Y+020149
X+004494Y+020149
X+013644Y+020069
X+014704Y+020069
X+016654Y+020109
X-011165Y-013717
X-010165Y-013717
X-016085Y+004402
X-015085Y+004402
X-014085Y+004402
X-013085Y+004402
X-012085Y+004402
X-011085Y+004402
X-010085Y+004402
X-009085Y+004402
X-008085Y+004402
X-008085Y+007402
X-009085Y+007402
X-010085Y+007402
X-011085Y+007402
X-012085Y+007402
X-013085Y+007402
X-014085Y+007402
X-015085Y+007402
X-016085Y+007402
X-012110Y+006420
X-012110Y+005410
X-009100Y+006420
X-008090Y+005400
X-014170Y+022830
X-014170Y+021830
X-014170Y+020830
X-014170Y+019830
X-014170Y+018830
X-014170Y+017830
X-014170Y+016830
X-014170Y+015830
X-014170Y+014830
X-014170Y+013830
X-014170Y+012830
X-014170Y+011830
X-011170Y+011830
X-011170Y+012830
X-011170Y+013830
X-011170Y+014830
X-011170Y+015830
X-011170Y+016830
X-011170Y+017830
X-011170Y+018830
X-011170Y+019830
X-011170Y+020830
X-011170Y+021830
X-011170Y+022830
X-012340Y+013790
X-012340Y+017790
T02
X+004505Y-009694
T03
X-009294Y-002644
X-010294Y-002644
X-011294Y-002644
X-012294Y-002644
X-009244Y-004594
X-010244Y-004594
X-011244Y-004594
X-012244Y-004594
X-009194Y-006644
X-010194Y-006644
X-011194Y-006644
X-012194Y-006644
X-009144Y-008644
X-010144Y-008644
X-011144Y-008644
X-012144Y-008644
X-009144Y-010644
X-010144Y-010644
X-011144Y-010644
X-012144Y-010644
X+018801Y-016956
X+018801Y-015956
X+018801Y-014956
X+016496Y-014971
X+016496Y-016940
X+013543Y-014971
X+013543Y-016940
X+017480Y-014971
X+017480Y-016940
X+013770Y-008607
X+013770Y-007607
X+013770Y-006607
X+013770Y-005607
X+013770Y-004607
X+013770Y-003607
X+013770Y-002607
X+013770Y-001607
X+016565Y-001639
X+015565Y-001639
X-005993Y-022033
X-004993Y-022033
X-003993Y-022033
X-002993Y-022033
X-003097Y+014487
X-003097Y+015487
X+004312Y+018107
X+003312Y+018107
X+001312Y+018107
X+005362Y+002857
X+004362Y+002857
X+003362Y+002857
X+002362Y+002857
X+001362Y+002857
X+000362Y+002857
X-000637Y+002857
X-001637Y+002857
X+015762Y+002857
X+014762Y+002857
X+013762Y+002857
X+012762Y+002857
X+011762Y+002857
X+010762Y+002857
X+009762Y+002857
X+008762Y+002857
X-003733Y+005971
X-003733Y+006971
X+006366Y+002871
X+016766Y+002871
X+013684Y+018049
X+014684Y+018049
X+018234Y+014509
X+018234Y+015509
X+018224Y+005779
X+018224Y+006779
X+016694Y+018039
X-011165Y-015847
X-010165Y-015847
X-016095Y+001882
X-015095Y+001882
X-014095Y+001882
X-013095Y+001882
X-012095Y+001882
X-011095Y+001882
X-010095Y+001882
X-009095Y+001882
X-008095Y+001882
X-016095Y+009912
X-015095Y+009912
X-014095Y+009912
X-013095Y+009912
X-012095Y+009912
X-011095Y+009912
X-010095Y+009912
X-009095Y+009912
X-008095Y+009912
X-008050Y+011860
X-008050Y+012860
X-008050Y+013860
X-008050Y+014860
X-008050Y+015860
X-008050Y+016860
X-008050Y+017860
X-008050Y+018860
X-008050Y+019860
X-008050Y+020860
X-008050Y+021860
X-008050Y+022860
X-017370Y+011840
X-017370Y+012840
X-017370Y+013840
X-017370Y+014840
X-017370Y+015840
X-017370Y+016840
X-017370Y+017840
X-017370Y+018840
X-017370Y+019840
X-017370Y+020840
X-017370Y+021840
X-017370Y+022840
X+004820Y-020570
X+004820Y-019570
X+004820Y-018570
X+004820Y-017570
X+013370Y-020560
X+013370Y-019560
X+013370Y-018560
X+013410Y-013610
X+013410Y-012610
X+013410Y-011610
T04
X-005160Y+002844
X+018494Y+020099
X+018169Y-000802
X-015225Y-021907
X-015225Y-000857
M30
