M48
INCH
T01C0.0400
T02C0.1574
%
T01
X-015150Y+014500
X-014150Y+014500
X-011000Y+014500
X-010000Y+014500
X-006800Y+014500
X-005800Y+014500
X-002700Y+014500
X-001700Y+014500
X+001550Y+014400
X+002550Y+014400
X+005750Y+014450
X+006750Y+014450
X+009950Y+014500
X+010950Y+014500
X+014100Y+014550
X+015100Y+014550
X-015250Y+010400
X-014250Y+010400
X-015300Y+006250
X-014300Y+006250
X-015400Y+002200
X-014400Y+002200
X-015350Y-001950
X-014350Y-001950
X-015300Y-006150
X-014300Y-006150
X-015300Y-010250
X-014300Y-010250
X-015300Y-014150
X-014300Y-014150
X-010900Y+010350
X-009900Y+010350
X-010950Y+006200
X-009950Y+006200
X-011050Y+002150
X-010050Y+002150
X-011000Y-002000
X-010000Y-002000
X-010950Y-006200
X-009950Y-006200
X-010950Y-010300
X-009950Y-010300
X-010950Y-014200
X-009950Y-014200
X-006750Y+010400
X-005750Y+010400
X-006800Y+006250
X-005800Y+006250
X-006900Y+002200
X-005900Y+002200
X-006850Y-001950
X-005850Y-001950
X-006800Y-006150
X-005800Y-006150
X-006800Y-010250
X-005800Y-010250
X-006800Y-014150
X-005800Y-014150
X-002650Y+010400
X-001650Y+010400
X-002700Y+006250
X-001700Y+006250
X-002800Y+002200
X-001800Y+002200
X-002750Y-001950
X-001750Y-001950
X-002700Y-006150
X-001700Y-006150
X-002700Y-010250
X-001700Y-010250
X-002700Y-014150
X-001700Y-014150
X+001600Y+010300
X+002600Y+010300
X+001550Y+006150
X+002550Y+006150
X+001450Y+002100
X+002450Y+002100
X+001500Y-002050
X+002500Y-002050
X+001550Y-006250
X+002550Y-006250
X+001550Y-010350
X+002550Y-010350
X+001550Y-014250
X+002550Y-014250
X+005800Y+010400
X+006800Y+010400
X+005750Y+006250
X+006750Y+006250
X+005650Y+002200
X+006650Y+002200
X+005700Y-001950
X+006700Y-001950
X+005750Y-006150
X+006750Y-006150
X+005750Y-010250
X+006750Y-010250
X+005750Y-014150
X+006750Y-014150
X+010000Y+010400
X+011000Y+010400
X+009950Y+006250
X+010950Y+006250
X+009850Y+002200
X+010850Y+002200
X+009900Y-001950
X+010900Y-001950
X+009950Y-006150
X+010950Y-006150
X+009950Y-010250
X+010950Y-010250
X+009950Y-014150
X+010950Y-014150
X+014200Y+010450
X+015200Y+010450
X+014150Y+006300
X+015150Y+006300
X+014050Y+002250
X+015050Y+002250
X+014100Y-001900
X+015100Y-001900
X+014150Y-006100
X+015150Y-006100
X+014150Y-010200
X+015150Y-010200
X+014150Y-014100
X+015150Y-014100
X-015150Y+013200
X-015250Y+009150
X-015300Y+004950
X-015400Y+000950
X-015250Y-003250
X-015250Y-007450
X-015250Y-011550
X-015250Y-015450
X+014150Y-015350
X+014150Y-011450
X+014150Y-007400
X+014150Y-003150
X+014050Y+001000
X+014150Y+005050
X+014100Y+013300
X+014150Y+009200
X-013200Y+014500
X-009050Y+014500
X-004850Y+014500
X-000750Y+014500
X+003500Y+014400
X+007700Y+014450
X+016050Y+014550
X+011900Y+014500
X+016100Y-014100
X+011900Y-014150
X+007700Y-014150
X-004850Y-014150
X-000750Y-014150
X+003500Y-014250
X-013350Y-014150
X-009000Y-014200
T02
X+000000Y-000393
X+008464Y+007677
X+008464Y-009055
X-008267Y-008858
X-008267Y+007677
M30
